<?xml version="1.0" standalone="no"?>
<!DOCTYPE svg PUBLIC "-//W3C//DTD SVG 1.1//EN" "http://www.w3.org/Graphics/SVG/1.1/DTD/svg11.dtd" >
<svg>
<metadata>
Created by FontForge 20090622 at Tue Mar 15 08:48:29 2016
 By deploy user
</metadata>
<defs>
<font id="BernardoModa" horiz-adv-x="1024" >
  <font-face 
    font-family="Bernardo Moda"
    font-weight="400"
    font-stretch="normal"
    units-per-em="2048"
    panose-1="4 3 2 5 2 11 2 2 5 2"
    ascent="1638"
    descent="-410"
    x-height="573"
    cap-height="1616"
    bbox="-342 -647 2718 2042"
    underline-thickness="33"
    underline-position="-179"
    unicode-range="U+000D-U+1F427"
  />
<missing-glyph horiz-adv-x="916" 
d="M102 -311v1418h661v-1418h-661zM217 -197h432v1189h-432v-1189z" />
    <glyph glyph-name=".notdef" horiz-adv-x="916" 
d="M102 -311v1418h661v-1418h-661zM217 -197h432v1189h-432v-1189z" />
    <glyph glyph-name="NULL" horiz-adv-x="0" 
 />
    <glyph glyph-name="nonmarkingreturn" unicode="&#xd;" horiz-adv-x="516" 
 />
    <glyph glyph-name="space" unicode=" " horiz-adv-x="516" 
 />
    <glyph glyph-name="exclam" unicode="!" horiz-adv-x="739" 
d="M371 274q-7 0 -11 5.5t-4 11.5q-2 283 -5 562t-3 562q0 8 7 11.5t14 3.5q14 0 18 -5.5t4 -19.5l-8 -1114q0 -5 -4 -9.5t-8 -7.5zM371 86q20 0 34.5 -14.5t14.5 -34.5t-14.5 -35.5t-34.5 -15.5q-19 0 -35.5 16t-16.5 35t17 34t35 15z" />
    <glyph glyph-name="quotedbl" unicode="&#x22;" horiz-adv-x="530" 
d="M377 1431h42v-533h-42v533zM117 1431h40v-533h-40v533z" />
    <glyph glyph-name="numbersign" unicode="#" horiz-adv-x="1575" 
d="M697 892l-117 -339h333l116 339h-332zM849 1448h44l-183 -520h336l183 520h44l-183 -520h334q-3 -20 -10 -36h-341l-118 -339h368l-11 -35h-369l-182 -516h-43l183 516h-336l-185 -516h-44l183 516h-350l7 21v-1l5 15h350l125 339h-387q2 9 6 18t6 18h385z" />
    <glyph glyph-name="dollar" unicode="$" horiz-adv-x="1034" 
d="M537 23q28 0 59.5 7t57.5 22.5t43.5 39.5t17.5 58q0 35 -24 59.5t-62.5 43t-88.5 34l-101.5 32t-101.5 37t-88.5 50t-62.5 69.5t-24 96q0 71 32 123.5t82.5 88t113 54.5t124.5 22v315q0 8 5 14t13 6q10 0 13.5 -7.5t3.5 -15.5v-313q45 0 94.5 -8t97 -25t88 -45t66.5 -67
l8 -12.5t4 -14.5t-5.5 -12t-12.5 -4q-5 2 -10 6t-9 8q-41 39 -75.5 66t-71.5 43t-80.5 23t-101.5 7q-59 0 -119 -14t-109.5 -44.5t-80.5 -78.5t-31 -117q0 -55 26 -91.5t66 -61t87.5 -40t90.5 -27.5q20 -6 49 -15.5t60.5 -22t62 -28.5t55 -36t39.5 -44t15 -51
q0 -42 -18 -72.5t-47 -50.5t-65 -30.5t-73 -12.5q0 -14 2 -48t2 -71q0 -19 -1 -36t-3 -30.5t-6.5 -21.5t-10.5 -8q-18 0 -18 20v197q-11 1 -31.5 5.5t-45 11.5t-50.5 16.5t-46.5 21t-34 25t-13.5 28.5q0 6 6 11.5t12 5.5q3 0 21 -14t47.5 -31t69.5 -31t88 -14z" />
    <glyph glyph-name="percent" unicode="%" horiz-adv-x="1227" 
d="M731 227q0 -39 15 -73t41 -59.5t60.5 -40.5t72.5 -15q39 0 73 15t59.5 40.5t40.5 59.5t15 73t-14.5 73.5t-40 61t-60 41.5t-73.5 15t-73.5 -15t-60 -41t-40.5 -61t-15 -74zM692 225q0 48 18 89.5t48.5 72t72 48.5t89.5 18t89 -18t71.5 -48.5t47.5 -72t17 -89.5
q0 -47 -17.5 -88t-48 -71.5t-71.5 -48t-88 -17.5t-88 17.5t-72.5 48t-49.5 71.5t-18 88zM328 -49q-6 0 -12.5 4.5t-6.5 11.5q2 6 25 45l60 99l83.5 136l96.5 155.5l98.5 157.5l89.5 143l69.5 111l38.5 62q6 11 19 11q7 0 11.5 -5.5t4.5 -11.5q0 -2 -22.5 -39.5l-59 -98
l-84 -137l-98.5 -158l-100.5 -161l-90.5 -145l-69.5 -111.5l-36.5 -59q-2 -2 -7.5 -6t-8.5 -4zM121 633q0 -39 14.5 -73.5t39.5 -60.5t59 -41.5t73 -15.5t73.5 15.5t60 41.5t40.5 60.5t15 73.5t-15 73.5t-40.5 60.5t-60 41t-73.5 15t-73 -15t-59 -41t-39.5 -60.5
t-14.5 -73.5zM80 631q0 47 17.5 88.5t48.5 72t72.5 48.5t88.5 18q48 0 89 -17.5t71.5 -48.5t47.5 -72t17 -89q0 -47 -17.5 -88t-48 -71.5t-71.5 -48t-88 -17.5t-88 17.5t-72 48t-49 71.5t-18 88z" />
    <glyph glyph-name="ampersand" unicode="&#x26;" horiz-adv-x="2216" 
d="M569 891q-68 14 -129.5 43.5t-108 73.5t-73.5 104t-27 135q0 87 37 156t97 118t137 75t157 26q42 0 84 -7t82 -21t77 -35.5t67 -51.5q4 -4 9 -11.5t5 -12.5q0 -7 -4.5 -12t-11.5 -5q-5 0 -11 5.5t-10 9.5q-29 28 -63 47.5t-72 32t-77.5 18.5t-78.5 6q-72 0 -141.5 -23.5
t-123.5 -67t-87 -105.5t-33 -140q0 -94 42 -158.5t108.5 -104.5t148 -57.5t160.5 -17.5q11 0 22 -2t11 -16q0 -12 -9 -17t-21 -7t-24.5 -2t-19.5 -1q-78 -7 -155 -25t-144 -61q-56 -36 -102.5 -85.5t-79.5 -108t-51.5 -124t-18.5 -132.5q0 -114 46 -212.5t124 -171.5
t180 -115t213 -42q115 0 216.5 40t178 111.5t122 170t49.5 214.5l-467 1q-9 0 -15 5.5t-6 14.5q0 11 6 13.5t15 2.5l467 1q-2 39 -9.5 74t-21.5 71q-2 3 -4 10t-2 10q0 9 6 14t14 5t15.5 -12t13.5 -31t11 -41.5t8.5 -43t5.5 -36t2 -20.5l546 -1q30 0 70 4.5t75.5 18t60 38.5
t24.5 66q0 16 -4 28.5t-8.5 22.5t-8.5 17.5t-4 15.5q0 5 2.5 9t7.5 4q13 0 19 -6l2 -5q7 -7 12 -17.5t8.5 -22.5t5 -24t1.5 -22q0 -27 -11.5 -49.5t-30 -41t-41.5 -32t-46 -22.5q37 -8 63.5 -29t43 -49.5t24.5 -62.5t8 -68q0 -9 -4 -19t-15 -10q-8 0 -11.5 7t-4.5 16
t-0.5 18.5t0.5 14.5q0 43 -17 74t-45 51t-64 29.5t-75 9.5h-583q-5 -125 -54 -229.5t-130 -181t-189 -119t-232 -42.5q-80 0 -155.5 20t-142 57t-122.5 89.5t-96 116.5t-62 139t-22 156q0 105 35.5 197.5t98 165.5t148.5 123.5t187 72.5z" />
    <glyph glyph-name="quotesingle" unicode="'" horiz-adv-x="274" 
d="M117 1431h43v-533h-43v533z" />
    <glyph glyph-name="parenleft" unicode="(" horiz-adv-x="680" 
d="M621 -412q0 -16 -15 -16q-11 0 -30 19.5t-39 44.5t-36.5 48.5l-22.5 32.5q-137 198 -202 419t-65 462q0 239 64.5 458.5t199.5 417.5l22.5 33t36.5 49.5t39.5 45.5t32.5 20q15 0 15 -14q0 -10 -6.5 -18l-12.5 -15q-178 -211 -265 -455.5t-87 -521.5q0 -129 21.5 -262
t65 -260.5t110 -244t155.5 -212.5l12.5 -14t6.5 -17z" />
    <glyph glyph-name="parenright" unicode=")" horiz-adv-x="680" 
d="M57 1608q0 8 5.5 11t11.5 3q12 0 30.5 -19t37.5 -43.5t35.5 -48l22.5 -32.5q138 -201 203.5 -419t65.5 -462q0 -240 -64 -459.5t-201 -417.5q-6 -8 -22.5 -32.5t-36.5 -50.5t-39.5 -46t-31.5 -20q-17 0 -17 16q0 8 8 17t13 14q88 94 154 211t110 245.5t66 261.5t22 261
q0 273 -87.5 521t-264.5 456q-5 5 -13 16t-8 17z" />
    <glyph glyph-name="asterisk" unicode="*" 
d="M512 1612q11 0 13.5 -8t2.5 -17v-233l24.5 14.5l40 24l47 28l46 26.5t37.5 20t22 8t11.5 -4t5.5 -11q0 -6 -14.5 -17t-36.5 -24.5t-49 -28.5l-51 -27.5l-43 -22.5l-25 -13l207 -115q12 -7 12 -18q0 -7 -5 -10.5t-12 -3.5q-5 0 -11 2q-17 13 -44 28.5l-56 31l-57.5 30
t-48.5 26.5v-233q0 -7 -4 -15t-12 -8q-10 0 -13 7.5t-3 15.5v233l-26 -15.5l-40 -24l-46.5 -27.5l-46 -26t-38 -19.5t-23.5 -7.5q-14 0 -14 14q0 11 12 18l207 117l-207 119q-5 3 -8.5 6.5t-3.5 9.5q0 7 5.5 11t11.5 4q5 0 21.5 -8t38 -20l46 -26.5l47 -28l39.5 -24
t25 -14.5v235q0 8 3.5 14.5t12.5 6.5z" />
    <glyph glyph-name="plus" unicode="+" horiz-adv-x="1205" 
d="M558 1216h32v-427h417v-31h-417v-427h-32v427h-419v31h419v427z" />
    <glyph glyph-name="comma" unicode="," horiz-adv-x="516" 
d="M283 92q6 0 11 -5t5 -11q0 -3 -10.5 -22l-26.5 -47t-36 -59.5l-38 -58.5t-32.5 -45t-20.5 -18t-11 5t-5 11q0 4 9.5 22t24 42l32 52l34 53l29 44.5t16.5 26.5q7 10 19 10z" />
    <glyph glyph-name="hyphen" unicode="-" horiz-adv-x="393" 
d="M301 317q8 0 14.5 -5t6.5 -13q0 -11 -7 -13.5t-16 -2.5h-207q-8 0 -14 5t-6 13q0 10 5.5 13t14.5 3h209z" />
    <glyph glyph-name="period" unicode="." horiz-adv-x="516" 
d="M258 86q20 0 34.5 -14.5t14.5 -34.5t-14.5 -35.5t-34.5 -15.5q-19 0 -34 16t-15 35q0 18 15.5 33.5t33.5 15.5z" />
    <glyph glyph-name="slash" unicode="/" horiz-adv-x="696" 
d="M719 1612q4 -2 8 -5t4 -8q0 -2 -19.5 -51l-52.5 -132.5l-78 -195l-95.5 -237.5l-105 -260l-107 -263.5l-100 -248l-86 -212.5l-64 -157l-33.5 -83q-2 -5 -7 -9t-10 -4q-6 0 -11 2.5t-5 9.5q0 1 19.5 50l52.5 132.5l78 194.5l96 237.5l105 260.5l106.5 263.5l100.5 248
l86 212.5l63.5 157.5l33.5 82.5q2 6 8.5 10t12.5 5z" />
    <glyph glyph-name="zero" unicode="0" horiz-adv-x="1034" 
d="M119 422q0 -82 31 -154.5t85 -127t126.5 -86t154.5 -31.5q84 0 156.5 31t126.5 85t85 127t31 156q0 84 -30.5 157t-84.5 127.5t-127 85.5t-157 31t-156.5 -31.5t-126 -85.5t-84 -127t-30.5 -157zM80 422q0 91 34 170.5t93 138.5t138.5 93t170.5 34q93 0 172.5 -33.5
t138 -92t92 -138t33.5 -172.5q0 -91 -34 -170.5t-93 -138.5t-138.5 -93t-170.5 -34q-90 0 -169 34.5t-138.5 94t-94 138.5t-34.5 169z" />
    <glyph glyph-name="one" unicode="1" horiz-adv-x="498" 
d="M268 16q0 -20 -20 -20q-19 0 -19 20v811q0 9 7.5 15t15.5 6q11 0 13.5 -7.5t2.5 -15.5v-809z" />
    <glyph glyph-name="two" unicode="2" horiz-adv-x="805" 
d="M270 37h308q10 0 15 -3t5 -14q0 -20 -20 -20h-342q-8 0 -16.5 4t-8.5 14q2 5 5 10.5t7 10.5l269 317q22 25 45.5 56t43 65t32 70t12.5 71q0 52 -23 90.5t-59.5 64t-82 38t-91.5 12.5q-51 0 -99 -12.5t-88 -38t-68 -65t-38 -93.5q-2 -8 -5.5 -14t-13.5 -6q-6 0 -13 4
t-5 12q11 62 41.5 108.5t74.5 78t99 47.5t115 16q54 0 106.5 -14.5t94 -43.5t67 -74t25.5 -105q0 -42 -12.5 -80t-32 -73t-45 -67.5l-50.5 -62.5z" />
    <glyph glyph-name="three" unicode="3" horiz-adv-x="813" 
d="M547 807h-414q-20 0 -20 18q0 11 4.5 15t15.5 4h442q10 0 17.5 -3t7.5 -14q0 -8 -16.5 -30t-42 -52l-56 -63.5l-58.5 -63.5l-50 -53t-30 -32q22 5 43.5 7.5t43.5 2.5q58 0 110 -16t92 -47.5t63.5 -79t23.5 -109.5q0 -74 -30.5 -131t-81 -95.5t-115 -58.5t-131.5 -20
q-92 0 -164 31t-135 96l-5 4q-2 3 -4 7t-2 7q0 19 19 19q10 0 15.5 -6t10.5 -13q21 -28 52.5 -48.5t67.5 -33.5t73.5 -19.5t71.5 -6.5q60 0 117 17.5t102 51t72.5 83.5t27.5 116q0 56 -22 96.5t-59 67t-84 39t-97 12.5q-32 0 -63.5 -8.5t-63.5 -8.5q-7 0 -11.5 0.5t-4.5 8.5
t17.5 31.5t44 54.5l59 66l62 66.5l53 56z" />
    <glyph glyph-name="four" unicode="4" horiz-adv-x="940" 
d="M127 186h518v498q0 8 6 15.5t15 7.5t13.5 -8.5t4.5 -16.5v-496h207q10 0 15 -3.5t5 -14.5t-4.5 -14.5t-15.5 -3.5h-207v-277q0 -9 -7 -14.5t-15 -5.5q-17 0 -17 20v277h-539q-9 0 -16.5 2.5t-7.5 13.5q0 7 3.5 17t6.5 16l348 639q2 4 7.5 7t9.5 5q6 0 12 -5t6 -11
q0 -2 -14 -29l-36.5 -70l-52 -97.5l-61 -112.5l-62 -114.5l-56 -103l-43.5 -79t-23 -42.5z" />
    <glyph glyph-name="five" unicode="5" horiz-adv-x="842" 
d="M164 844h504q20 0 20 -19q0 -18 -20 -18h-486l-4 -301q59 41 116.5 59.5t129.5 18.5q63 0 120 -19t99.5 -55.5t68 -89t25.5 -119.5q0 -71 -28 -128.5t-74.5 -98.5t-108.5 -63.5t-129 -22.5q-30 0 -68 6t-76 18t-71.5 29t-54.5 39q-4 4 -9 8t-5 10q0 5 5 13t11 8
q5 0 27.5 -15t57.5 -33t81 -33t98 -15q60 0 115 19t97.5 54.5t67.5 86t25 114.5q0 58 -22.5 105t-61 79.5t-89 50t-105.5 17.5q-30 0 -65.5 -7t-70.5 -19.5t-66 -31t-51 -41.5q-2 -1 -5.5 -2.5t-5.5 -1.5q-17 0 -17 19l6 356q0 9 4 16t15 7z" />
    <glyph glyph-name="six" unicode="6" horiz-adv-x="1034" 
d="M119 422q0 -82 31 -154.5t85 -127t126.5 -86t154.5 -31.5q84 0 156.5 31t126.5 85t85 127t31 156q0 84 -30.5 157t-84.5 127.5t-127 85.5t-157 31t-156.5 -31.5t-126 -85.5t-84 -127t-30.5 -157zM313 807q48 24 98.5 37.5t104.5 13.5q92 0 171.5 -33.5t138.5 -92.5
t92.5 -138.5t33.5 -171.5q0 -91 -34 -170.5t-93 -138.5t-138.5 -93t-170.5 -34q-90 0 -169 34.5t-138.5 94t-94 138.5t-34.5 169q0 93 36 168.5t95 146.5l428 516q3 3 7.5 5t8.5 4q6 -1 12.5 -5t6.5 -12q0 -5 -24 -36.5t-61.5 -76.5l-81.5 -97.5l-84.5 -99.5l-70.5 -82z" />
    <glyph glyph-name="seven" unicode="7" horiz-adv-x="729" 
d="M174 -162q-18 0 -18 17q0 3 17 42l44.5 102.5l63.5 144l74.5 165.5l76 168.5l68.5 152l52.5 116l27.5 61.5h-467q-9 0 -15 3.5t-6 14.5t5 15t16 4h485q9 0 18 -3t9 -14q0 -4 -17 -44.5l-45.5 -105.5l-65 -147l-75 -169l-77 -172l-70 -155.5l-53.5 -119.5l-29 -64
q-2 -4 -8 -8t-11 -4z" />
    <glyph glyph-name="eight" unicode="8" horiz-adv-x="1034" 
d="M776 889q0 54 -23 91.5t-59.5 61.5t-83 34.5t-92.5 10.5q-47 0 -93.5 -10.5t-83.5 -34t-60 -61t-23 -92.5q0 -53 23 -91.5t59.5 -63.5t82.5 -36.5t93 -11.5q46 0 92.5 11.5t83.5 36.5t60.5 63.5t23.5 91.5zM127 340q0 -81 34 -140.5t88.5 -99t124.5 -58.5t142 -19t142 19
t125.5 58.5t89.5 99t34 140.5t-34.5 140t-90 97t-125.5 56t-141 18t-140.5 -18.5t-125 -56.5t-89.5 -96.5t-34 -139.5zM393 670q-37 14 -69 34t-56 46.5t-37.5 60.5t-13.5 76q0 62 26.5 106.5t69.5 73t97 42t108 13.5q55 0 108 -13t94.5 -41.5t67 -73t25.5 -107.5
q0 -42 -13.5 -75.5t-37 -60.5t-55 -47t-68.5 -34q64 -12 120 -39t97 -69t64.5 -97.5t23.5 -124.5q0 -90 -37 -156t-97 -109.5t-137 -65t-157 -21.5t-156.5 21.5t-136.5 65t-96.5 109.5t-36.5 156q0 68 23.5 124t64 98t96 69t119.5 39z" />
    <glyph glyph-name="nine" unicode="9" horiz-adv-x="1034" 
d="M915 422q0 82 -31.5 154.5t-86 127t-127 86t-154.5 31.5q-83 0 -155.5 -31.5t-126 -85.5t-84.5 -126.5t-31 -155.5q0 -84 30 -157.5t83.5 -127.5t126 -85.5t157.5 -31.5q84 0 156.5 31.5t126.5 86t85 128t31 156.5zM463 -330l-14 -6q-7 0 -13 4.5t-6 12.5q0 5 19.5 31
l49 62.5l65 78.5l68 80l57 66.5l32.5 37.5q-48 -25 -99.5 -38t-105.5 -13q-93 0 -172.5 33.5t-138 92t-92 138t-33.5 172.5q0 91 34 170.5t93 138.5t138.5 93t170.5 34q90 0 169 -34.5t138.5 -94t94 -138.5t34.5 -169q0 -86 -29 -157.5t-83 -137.5z" />
    <glyph glyph-name="colon" unicode=":" horiz-adv-x="516" 
d="M258 487q20 0 34.5 -14.5t14.5 -34.5t-14.5 -34.5t-34.5 -14.5q-18 0 -33.5 15.5t-15.5 33.5q0 19 15 34t34 15zM258 86q20 0 34.5 -14.5t14.5 -34.5t-14.5 -35.5t-34.5 -15.5q-19 0 -34 16t-15 35q0 18 15.5 33.5t33.5 15.5z" />
    <glyph glyph-name="semicolon" unicode=";" horiz-adv-x="516" 
d="M258 487q20 0 34.5 -14.5t14.5 -34.5t-14.5 -34.5t-34.5 -14.5q-18 0 -33.5 15.5t-15.5 33.5q0 19 15 34t34 15zM139 -135q0 9 4 12.5t10 4t12.5 -1t12.5 -1.5q20 0 32.5 8.5t19 22.5t8.5 32t2 37q0 16 -0.5 31t-0.5 29q0 20 3.5 33.5t15.5 13.5q11 0 14.5 -5t3.5 -15
v-80q0 -24 -3 -48t-13 -43.5t-27.5 -32t-46.5 -12.5q-3 0 -11 0.5t-16 2t-14 4.5t-6 8z" />
    <glyph glyph-name="less" unicode="&#x3c;" horiz-adv-x="1706" 
d="M1445 1095v-36l-1116 -452l558 -226l558 -227v-33l-585 238l-584 240v17z" />
    <glyph glyph-name="equal" unicode="=" horiz-adv-x="1706" 
d="M266 444h1189v-35h-1189v35zM266 804h1189v-33h-1189v33z" />
    <glyph glyph-name="greater" unicode="&#x3e;" horiz-adv-x="1706" 
d="M276 1094l584.5 -240l584.5 -238v-17l-584.5 -240l-584.5 -238v33l1115 453l-557.5 226l-557.5 226v35z" />
    <glyph glyph-name="question" unicode="?" horiz-adv-x="1143" 
d="M471 86q20 0 34.5 -14.5t14.5 -34.5t-14.5 -35.5t-34.5 -15.5q-19 0 -34 16t-15 35q0 18 15.5 33.5t33.5 15.5zM469 274q-11 0 -13.5 6t-2.5 15v190q0 29 2.5 58t12.5 56q13 35 43.5 66t68 61.5l78 64.5t73.5 75.5t54.5 93t21.5 119.5q0 72 -23.5 130t-66.5 99t-102 63
t-130 22q-53 0 -93 -13t-72.5 -37.5t-59 -59t-51.5 -77.5l-8.5 -13t-12.5 -7q-6 0 -10 5.5t-4 10.5q0 15 8 29q48 94 126.5 146.5t185.5 52.5q76 0 141 -25.5t111.5 -72t73 -110.5t26.5 -141q0 -60 -21.5 -115.5t-57 -105t-79.5 -92t-89 -76.5q-27 -20 -54 -43.5t-41 -55.5
q-9 -20 -11.5 -51t-2.5 -66q0 -29 1 -58t1 -55q0 -38 -4.5 -63.5t-18.5 -25.5z" />
    <glyph glyph-name="at" unicode="@" horiz-adv-x="1079" 
d="M696 73q-17 0 -32.5 3t-28 10.5t-20.5 20.5t-9 32q-26 -29 -62.5 -47.5t-76.5 -18.5q-78 0 -115.5 43t-37.5 119q0 48 15.5 95.5t44 85.5t70 62t94.5 24q43 0 77.5 -18.5t57.5 -55.5l13 47l9 6l18 1q5 0 8.5 -3t1.5 -8l-11 -41l-15.5 -56.5l-17.5 -63.5t-16.5 -63.5
t-12 -54.5t-4.5 -38q0 -12 5.5 -20t14.5 -12.5t20 -6.5t21 -2q52 0 92 26.5t67 68t40.5 90.5t13.5 94q0 75 -30.5 129.5t-81 90t-114.5 52.5t-130 17q-72 0 -144 -23t-131 -66h1q-74 -61 -117 -143.5t-43 -179.5q0 -86 32 -152.5t87 -111.5t127 -68t153 -23q42 0 80 7
t74 18.5t71.5 27.5t71.5 34q4 2 5 2q5 0 11.5 -8.5t6.5 -13.5q0 -7 -3 -10q-28 -25 -66.5 -42.5t-81 -29t-85.5 -16.5t-80 -5q-90 0 -170.5 25t-141.5 74t-96.5 122t-35.5 170q0 100 38.5 183.5t103.5 142.5t152 92t185 33q72 0 142 -21.5t125.5 -63.5t90 -103.5
t34.5 -140.5q0 -56 -18 -112.5t-52 -102.5t-83 -74.5t-111 -28.5zM654 365q-10 45 -40.5 71t-76.5 26q-42 0 -76 -21t-58 -54t-36.5 -73t-12.5 -78q0 -52 29 -87.5t84 -35.5q53 0 85.5 24t52 61.5t30 81.5z" />
    <glyph glyph-name="A" unicode="A" horiz-adv-x="1976" 
d="M381 360h1214l-604 1201zM362 324l-284 -560q-2 -2 -7 -6t-8 -4q-8 0 -14 5.5t-6 13.5q0 2 11 25l29.5 59.5l42 83l48.5 95.5l50 97l45.5 87.5l34.5 67.5l18 36h-187q-20 0 -20 20q0 10 5.5 13t14.5 3h205l631 1235q2 5 6.5 13t11.5 8q10 0 16.5 -6.5t10.5 -14.5
q9 -19 41 -81l79 -155.5l106 -210.5l124 -245.5l132 -262l130 -258.5l118.5 -235l97 -192.5l65.5 -130.5t24 -49q0 -8 -5.5 -15.5t-14.5 -7.5q-5 2 -19.5 25.5t-35 60.5l-45 84l-49.5 97.5l-49.5 100l-45 91l-35 72t-20.5 41.5h-1252z" />
    <glyph glyph-name="B" unicode="B" horiz-adv-x="1280" 
d="M254 -233q-24 0 -32.5 6.5t-8.5 31.5v816h-193q-20 0 -20 20q0 12 28 16t65 4t71.5 -2t48.5 -2v928q0 7 4.5 12t11 7t13.5 3t12 1h391q120 0 227 -31t187.5 -94.5t127 -160t46.5 -226.5q0 -86 -29 -162t-80 -136t-121 -102t-153 -61q137 -51 204.5 -159t67.5 -251
q0 -121 -39 -208t-108 -142.5t-164.5 -81.5t-208.5 -26h-348zM684 621h-432v-818h299q51 0 101 2t100 11q78 14 139.5 50t104 89t65 121t22.5 147q0 93 -28 166.5t-79.5 125t-125.5 79t-166 27.5zM670 1569h-418v-912h399q54 0 109 2.5t107 16.5q72 19 132 58.5t103.5 94.5
t67.5 122.5t24 142.5q0 114 -41.5 202.5t-112.5 149t-166.5 92t-203.5 31.5z" />
    <glyph glyph-name="C" unicode="C" horiz-adv-x="1741" 
d="M1661 1368q0 -5 -4 -10.5t-10 -5.5q-5 0 -10.5 3.5l-10.5 6.5l-74.5 53.5t-76.5 50.5t-79.5 44.5t-83.5 35.5q-68 23 -137 34t-141 11q-124 0 -239 -32t-214.5 -90.5t-181.5 -140.5t-140 -182t-90 -215t-32 -239q0 -122 32.5 -235.5t91.5 -213.5t141.5 -182.5
t182.5 -141.5t213.5 -91.5t235.5 -32.5q166 0 308 51t268 158q4 4 15.5 12.5t16.5 8.5q8 0 11.5 -5t3.5 -12q0 -8 -3.5 -12.5t-8.5 -9.5q-51 -55 -125 -97.5t-157.5 -71.5t-169.5 -44t-159 -15q-127 0 -245 34t-222 95.5t-190 147.5t-147.5 190t-95.5 222t-34 245
q0 129 33.5 248t94.5 223t146 189t189 146t223 94.5t248 33.5q170 0 325 -57.5t281 -171.5q14 -13 21 -29z" />
    <glyph glyph-name="D" unicode="D" horiz-adv-x="1839" 
d="M252 -197h467q85 0 171 7t169 28q147 37 265.5 119.5t202 196t128.5 251.5t45 287q0 162 -52 305t-146 255t-226 188t-291 105q-91 17 -183 21.5t-184 4.5h-366v-1768zM213 -195v1780q0 7 4.5 12t11 7t13.5 3t12 1h393q68 0 141 -3.5t146.5 -13.5t144 -27.5t133.5 -45.5
q124 -56 221.5 -141t165 -192.5t103 -232.5t35.5 -260q0 -99 -20 -194.5t-58 -183.5t-93 -166.5t-125 -143t-154.5 -113t-180.5 -77.5q-49 -15 -103 -24t-109 -14t-110 -7t-106 -2h-424q-24 0 -32.5 6.5t-8.5 31.5z" />
    <glyph glyph-name="E" unicode="E" horiz-adv-x="1612" 
d="M213 324h-193q-20 0 -20 20q0 10 5.5 13t14.5 3h193v1225q0 15 15 19t26 4h1190q8 0 14 -6.5t6 -14.5q0 -9 -6 -12.5t-14 -3.5h-1192v-1211h1227q8 0 14 -6t6 -14q0 -9 -6 -12.5t-14 -3.5h-1227v-521h1192q7 0 13.5 -4t6.5 -12q0 -20 -20 -20h-1190q-24 0 -32.5 6.5
t-8.5 31.5v519z" />
    <glyph glyph-name="F" unicode="F" horiz-adv-x="1554" 
d="M213 324h-193q-20 0 -20 20q0 10 5.5 13t14.5 3h193v1225q0 15 14 19t25 4h1192q8 0 14 -6.5t6 -14.5q0 -9 -6 -12.5t-14 -3.5h-1192v-1211h1227q8 0 14 -6t6 -14q0 -9 -6 -12.5t-14 -3.5h-1227v-545q0 -9 -6 -15t-15 -6q-10 0 -14 6t-4 15v545z" />
    <glyph glyph-name="G" unicode="G" horiz-adv-x="1931" 
d="M1841 332h-1059q-8 0 -14 5t-6 13q0 11 5 14t15 3h1078q10 0 17 -4t7 -15q0 -9 -5 -22.5t-12 -27.5l-14 -27l-11 -21q-62 -113 -147 -204t-188.5 -155t-223 -98.5t-249.5 -34.5q-127 0 -245 34t-222 95.5t-190 147.5t-147.5 190t-95.5 222t-34 245q0 129 33.5 248
t94.5 223t146 189t189 146t223 94.5t248 33.5q71 0 149 -12.5t153 -37t143 -62.5t120 -89q15 -13 21 -30q0 -6 -3.5 -11t-10.5 -6q-6 3 -11 6t-10 7q-69 50 -131 87.5t-126.5 62.5t-135.5 37.5t-158 12.5q-124 0 -239 -32t-214.5 -90.5t-181.5 -140.5t-140 -182t-90 -215
t-32 -239q0 -121 32.5 -235t92 -214t142 -182.5t182 -142t213.5 -92.5t235 -33q138 0 260 38t224.5 108t184 170t138.5 223z" />
    <glyph glyph-name="H" unicode="H" horiz-adv-x="1731" 
d="M233 1616q9 0 14 -6t5 -15v-1235h1227v1235q0 9 5.5 15t14.5 6t14 -6t5 -15v-1816q0 -9 -6 -15t-15 -6q-11 0 -14.5 6t-3.5 15v545h-1227v-545q0 -9 -6 -15t-15 -6q-10 0 -14 6t-4 15v545h-135q-9 0 -15 5.5t-6 14.5q0 11 6 13.5t15 2.5h135v1235q0 8 6 14.5t14 6.5z" />
    <glyph glyph-name="I" unicode="I" horiz-adv-x="512" 
d="M238 1595q0 9 5.5 15t14.5 6q11 0 13.5 -6t2.5 -15v-1816q0 -9 -5.5 -15t-14.5 -6q-11 0 -13.5 6t-2.5 15v1816z" />
    <glyph glyph-name="J" unicode="J" horiz-adv-x="1788" 
d="M1501 639q0 -64 -3.5 -137t-14 -146.5t-30.5 -142.5t-54 -125q-51 -84 -119.5 -147t-149.5 -104.5t-172.5 -62t-187.5 -20.5q-118 0 -230 37t-206 104.5t-162 162.5t-98 212q-1 2 -2.5 8.5t-1.5 8.5q0 16 16 16q10 0 15.5 -8t7.5 -16q31 -113 93.5 -203.5t150.5 -153.5
t198.5 -97t239.5 -34q155 0 297 67q88 42 150.5 95t104.5 116t66 133.5t36 148.5t15.5 161t3.5 170v915q0 9 6 15t15 6q11 0 13.5 -6t2.5 -15v-958z" />
    <glyph glyph-name="K" unicode="K" horiz-adv-x="1714" 
d="M252 502v-723q0 -9 -6 -15t-15 -6q-10 0 -14 6t-4 15v1816q0 8 6 14.5t14 6.5q9 0 14 -6t5 -15v-1034l64 49l119 91l160.5 122.5l187 143l198.5 151.5l196 149l179 136l147.5 111.5l101 75t40.5 28.5q8 0 13 -7.5t5 -15.5q-2 -4 -38.5 -33.5l-99.5 -78.5l-146 -113
l-177.5 -136l-195.5 -148.5l-198.5 -150.5l-186.5 -141.5l-161 -121.5l-120.5 -90.5l-65.5 -49.5l1395 -737q3 -2 5.5 -7l4.5 -9q0 -7 -4 -13t-12 -6q-3 0 -41 19.5l-102 52.5l-149 77.5l-181 95.5l-198.5 105l-201.5 106.5l-189.5 100.5l-162.5 86.5l-121 64.5z" />
    <glyph glyph-name="L" unicode="L" horiz-adv-x="1554" 
d="M252 -197h1192q7 0 13.5 -4t6.5 -12q0 -20 -20 -20h-1190q-24 0 -32.5 6.5t-8.5 31.5v1790q0 8 6 14.5t14 6.5q9 0 14 -6t5 -15v-1792z" />
    <glyph glyph-name="M" unicode="M" horiz-adv-x="1896" 
d="M1647 1546l-672 -874q-5 -7 -11 -14t-16 -7q-11 0 -15.5 6l-10.5 14l-670 875v-1767q0 -9 -6 -15t-15 -6q-10 0 -13 6.5t-3 14.5v1814q0 9 2.5 17t13.5 8q10 0 16 -7t11 -14l690 -901l690 901q5 7 12 14t17 7t13 -8.5t3 -16.5v-1814q0 -9 -5.5 -15t-14.5 -6
q-11 0 -13.5 6t-2.5 15v1767z" />
    <glyph glyph-name="N" unicode="N" horiz-adv-x="1911" 
d="M252 1546v-1767q0 -9 -6 -15t-15 -6q-10 0 -13 6.5t-3 14.5v1814q0 9 2.5 17t13.5 8q10 0 15 -4q2 -5 5.5 -9t6.5 -8l1403 -1767v1765q0 7 4 15t12 8q21 0 21 -23v-1812q0 -9 -3 -17t-14 -8q-10 0 -16.5 7t-11.5 14z" />
    <glyph glyph-name="O" unicode="O" horiz-adv-x="2066" 
d="M137 692q0 -123 32.5 -237t91 -213.5t141 -181.5t182 -141t213.5 -91.5t237 -32.5q124 0 238.5 32t214 90.5t181 140.5t139.5 181.5t90 214t32 238.5q0 125 -31.5 240.5t-88.5 215.5t-138.5 181.5t-180.5 140t-214.5 90t-241.5 31.5q-124 0 -238.5 -32.5t-214 -91
t-181.5 -140.5t-140.5 -182t-90.5 -215t-32 -238zM100 692q0 130 33 249.5t94 223.5t146 189t188.5 145.5t223.5 93.5t249 33q131 0 251 -33t223.5 -93t188.5 -145t145 -189t93 -224t33 -250q0 -129 -33.5 -248.5t-94 -223t-146 -189t-189 -146t-223 -94t-248.5 -33.5
q-128 0 -246.5 33.5t-222.5 95t-189.5 147t-147 189.5t-95 222.5t-33.5 246.5z" />
    <glyph glyph-name="P" unicode="P" horiz-adv-x="1597" 
d="M627 1608q60 0 123 -1t126.5 -6.5t125 -17t118.5 -31.5q105 -37 181.5 -95.5t126.5 -136t74 -171.5t24 -203q0 -88 -18 -172.5t-60 -162.5q-41 -77 -96 -131t-120 -90.5t-138.5 -58t-151 -32t-157.5 -13.5t-158 -3h-140h-235v-504q0 -9 -6 -15t-15 -6t-13.5 6.5
t-4.5 14.5v1806q0 7 4.5 12t11 7t13.5 3t12 1h373zM674 1571h-422v-1252h276h123q107 0 216.5 7t209.5 36t185.5 87t144.5 161q44 76 63 161t19 173q0 127 -29.5 223t-83.5 165.5t-129 115.5t-165.5 73.5t-194 38.5t-213.5 11z" />
    <glyph glyph-name="Q" unicode="Q" horiz-adv-x="2066" 
d="M1378 -135l-67 79.5l-86 100t-99.5 104.5t-106 93.5t-106.5 67.5t-102 26q-41 0 -76.5 -15t-64 -33t-48 -33t-28.5 -15q-6 0 -11 3.5t-5 10.5q0 15 14 29.5t36.5 27.5t50 24t54 19t49 12.5t35.5 4.5q52 0 108.5 -27t112.5 -70t110.5 -97t103.5 -108.5t90 -104.5l71 -85
q120 57 215.5 141.5t162.5 189.5t102.5 227.5t35.5 254.5q0 126 -31.5 241.5t-88.5 215.5t-138.5 181.5t-180.5 139.5t-214.5 89.5t-241.5 31.5q-124 0 -238.5 -32.5t-214 -91t-181.5 -140.5t-140.5 -182t-90.5 -215t-32 -238t32.5 -237t91 -213.5t141 -181.5t182 -141
t213.5 -91.5t237 -32.5q177 0 344 70zM1405 -164q-89 -36 -181.5 -57t-189.5 -21q-128 0 -246.5 33.5t-222.5 95t-189.5 147t-147 189.5t-95 222.5t-33.5 246.5q0 129 33 248.5t94 223.5t146 189t188.5 145.5t223.5 94t249 33.5q131 0 251 -33t223.5 -93t188.5 -145
t145 -188.5t93 -223.5t33 -251q0 -138 -36.5 -263.5t-104.5 -233t-166 -194.5t-221 -148l76.5 -73t81 -64.5t90 -46t104.5 -17.5q35 0 66 10t56 22.5t42 22.5t24 10q15 0 15 -16q-8 -21 -34 -36.5t-58.5 -26t-65 -16t-51.5 -5.5q-60 0 -112.5 19t-99 50t-88.5 70t-81 80z
" />
    <glyph glyph-name="R" unicode="R" horiz-adv-x="1694" 
d="M674 473l49.5 -33.5l90 -59.5l119.5 -79l137.5 -92l146 -98l144 -96.5l131 -88.5l107.5 -74.5l73.5 -52.5t29.5 -24q0 -8 -5.5 -13.5t-13.5 -5.5q-3 0 -47 29l-115.5 76.5l-162.5 108l-187.5 125.5l-190.5 128l-171.5 115.5l-131.5 88.5l-69 46q-7 5 -13.5 9t-6.5 14
q0 11 20 14t46 3q16 0 32 -1t30 -1.5t24.5 -1.5t13.5 -1q70 0 141 2.5t140 13.5q106 18 188 60.5t138 107.5t85 152.5t29 195.5q0 93 -26 176t-75.5 149.5t-122 114t-164.5 68.5q-63 14 -127.5 17.5t-128.5 3.5h-579v-1790q0 -9 -6 -15t-15 -6t-13.5 6.5t-4.5 14.5v1806
q0 7 4.5 12t11 7t13.5 3t12 1h604q138 0 257.5 -32.5t207.5 -101.5t138 -176.5t50 -257.5q0 -107 -26.5 -191t-73.5 -148t-112 -108.5t-142.5 -72.5t-164.5 -41t-177 -13q-35 0 -70.5 1.5t-70.5 5.5z" />
    <glyph glyph-name="S" unicode="S" horiz-adv-x="1679" 
d="M1581 1294q0 -8 -6 -14t-14 -6q-8 3 -12 7.5l-9 10.5q-60 78 -143.5 134t-179 91t-196.5 51.5t-196 16.5q-72 0 -149.5 -11t-151.5 -34.5t-140.5 -60.5t-116.5 -89.5t-79.5 -121.5t-29.5 -156q0 -111 47.5 -185.5t123 -122.5t168.5 -74.5t185 -41.5q55 -9 118.5 -16
t130 -16t133.5 -22t128 -33.5t114 -51t91.5 -74.5t61 -103.5t22.5 -138.5q0 -84 -26 -151.5t-71 -121t-105.5 -92.5t-129.5 -64t-143 -37.5t-146 -12.5q-150 0 -283.5 39t-254.5 129q-3 2 -15.5 11t-26 20.5t-24 23.5t-10.5 21q0 8 5.5 12t12.5 4q9 0 15 -4t12 -10
q56 -55 123 -94.5t139.5 -65.5t150 -38.5t154.5 -12.5q66 0 135.5 11.5t134.5 34.5t122.5 59t100.5 85t68 112t25 140q0 96 -36.5 161.5t-97 109t-138.5 68t-161 39t-164.5 22.5t-148.5 18q-68 10 -137.5 25t-133.5 39t-120 58t-97 82t-65 111.5t-24 145.5q0 97 31.5 173
t85.5 133t126 96.5t153 63.5t166 35t165 11q87 0 173.5 -13t169 -40.5t158.5 -70t142 -100.5q26 -23 51 -47.5t39 -56.5z" />
    <glyph glyph-name="T" unicode="T" horiz-adv-x="1421" 
d="M709 -242q-11 0 -14 6t-3 15v1792h-614q-9 0 -15 5.5t-6 14.5q0 11 6 14t15 3h1268q20 0 20 -21q0 -8 -6.5 -12t-13.5 -4h-617v-1792q0 -9 -5.5 -15t-14.5 -6z" />
    <glyph glyph-name="U" unicode="U" horiz-adv-x="1878" 
d="M1692 510q0 -73 -7.5 -146.5t-30.5 -143.5q-36 -111 -110.5 -197.5t-172 -146.5t-210 -91t-223.5 -31q-112 0 -224 31t-209 91t-171 146.5t-111 197.5q-23 70 -31 143.5t-8 146.5v1085q0 9 6 15t15 6q11 0 14.5 -6t3.5 -15v-1079q0 -72 7 -145.5t30 -142.5
q34 -105 105 -187t163 -138t198 -85t212 -29q105 0 211.5 29t198.5 85t163 137t106 186q23 69 30.5 143.5t7.5 146.5v1079q0 9 5.5 15t14.5 6q11 0 14 -5.5t3 -15.5v-1085z" />
    <glyph glyph-name="V" unicode="V" horiz-adv-x="1976" 
d="M983 -190l915 1796q2 2 7 6t8 4q8 0 14 -5t6 -14q0 -2 -24 -50l-66 -131l-98 -193l-119.5 -235l-131.5 -258l-133.5 -261.5l-125.5 -245.5l-107.5 -210l-79.5 -156l-42 -82q-3 -6 -7.5 -12t-11.5 -9q-10 0 -16 6.5t-10 14.5q-9 19 -41 81.5l-79 155.5l-106 210.5
l-124 246l-132.5 261.5l-130.5 258l-118.5 235l-97 192.5l-65.5 130.5t-24 49q0 8 6 15.5t14 7.5q5 0 9 -4.5t6 -8.5z" />
    <glyph glyph-name="W" unicode="W" horiz-adv-x="2370" 
d="M911 -246q-9 0 -14.5 5.5t-9.5 13.5v2l-39.5 82l-75.5 156l-102 210.5l-119 246l-126.5 262l-125 258.5l-113.5 235.5l-92.5 193l-62.5 131t-23 49.5q0 19 19 19q3 0 8.5 -4t7.5 -6l866 -1798l256 530q-7 13 -28 56.5l-52 108l-70 145.5l-82 169.5l-87.5 180.5l-86 178
l-78 162l-63.5 133l-43 91t-16 35q0 19 19 19q3 -2 8.5 -4.5t7.5 -5.5l592 -1227l602 1227q2 2 7.5 6t8.5 4q7 0 13 -6t6 -13q0 -1 -16 -35l-44 -91l-65 -133l-79.5 -162l-87.5 -178l-88.5 -180.5l-83.5 -169.5l-72 -145.5l-53 -108t-28 -56.5l254 -530l879 1798q1 2 6.5 6
t7.5 4q9 0 15 -6t6 -15q0 -1 -23.5 -49l-63.5 -130.5l-94 -192.5l-115 -235.5l-126.5 -258.5l-128.5 -262l-120.5 -246.5l-103.5 -211l-76.5 -155.5l-39.5 -81q-3 -7 -7.5 -14t-13.5 -7q-11 0 -16 5t-10 15l-246 525l-258 -524q-3 -7 -7.5 -14t-13.5 -7z" />
    <glyph glyph-name="X" unicode="X" horiz-adv-x="1698" 
d="M104 -242q-6 0 -12 5.5t-6 11.5q0 3 1 7t3 7l727 897l-48.5 60l-91 112l-118.5 145.5l-130.5 160.5l-127.5 158l-109.5 137.5l-76.5 98.5t-29 41q0 7 4.5 12t11.5 5q2 0 8.5 -2t8.5 -4l725 -895l735 895l14 6q6 0 11 -4.5t8 -9.5q-1 -6 -31 -45l-78.5 -100l-111.5 -137.5
l-129.5 -157l-132 -159.5l-119.5 -144.5l-92.5 -111.5l-51.5 -61l35.5 -43l65 -78.5l86.5 -104.5l100.5 -121l107 -129l105.5 -127.5l95.5 -116.5l78 -96.5l53 -66.5t19.5 -28q0 -7 -6.5 -12t-12.5 -5q-6 3 -38.5 39.5l-82.5 95.5l-112.5 134.5l-128 155.5l-130 158.5
l-118 144l-91 112t-50.5 61.5l-49 -61.5l-90 -112.5l-116.5 -145.5l-128.5 -160.5l-127 -157l-111 -134.5l-80.5 -94t-35.5 -35.5z" />
    <glyph glyph-name="Y" unicode="Y" horiz-adv-x="1593" 
d="M795 -242q-11 0 -14 6t-3 15v907l-65 81.5l-98.5 122l-119 147l-126.5 156.5l-120.5 150.5l-102 128.5l-71 90.5t-26.5 36.5q0 7 6.5 12t12.5 5l14 -6l715 -889l712 889q2 2 8 4t9 2q7 0 12.5 -5t5.5 -12q0 -2 -26.5 -36.5l-70.5 -90.5l-102 -128.5l-121 -150.5
l-126 -156.5l-118.5 -147l-99 -122l-65.5 -81.5v-907q0 -9 -5.5 -15t-14.5 -6z" />
    <glyph glyph-name="Z" unicode="Z" horiz-adv-x="1708" 
d="M1505 1571h-1366q-20 0 -20 20q0 17 20 17h1393q11 0 17.5 -4.5t6.5 -16.5q0 -8 -3.5 -14t-8.5 -12l-1407 -1758h1399q7 0 13.5 -4t6.5 -12q0 -20 -20 -20h-1430q-10 0 -16 3.5t-6 14.5q0 7 6 16t10 14z" />
    <glyph glyph-name="bracketleft" unicode="[" horiz-adv-x="680" 
d="M338 -426q-23 0 -31 6t-8 29v1976q0 15 14 19t25 4h186q8 0 14.5 -6.5t6.5 -14.5q0 -9 -6.5 -12.5t-14.5 -3.5h-188v-1962h188q8 0 14.5 -3.5t6.5 -13.5q0 -8 -6.5 -13t-14.5 -5h-186z" />
    <glyph glyph-name="backslash" unicode="\" horiz-adv-x="696" 
d="M733 -242q0 -7 -5 -9.5t-11 -2.5t-10.5 4t-6.5 9l-737 1826q-2 3 -2.5 7t-1.5 7l12 13q6 0 13.5 -4.5t9.5 -10.5l33.5 -83l63.5 -157l85.5 -212.5l100 -248l106.5 -263.5l105 -260l95.5 -237l77.5 -194.5l52.5 -132.5t19.5 -51z" />
    <glyph glyph-name="bracketright" unicode="]" horiz-adv-x="680" 
d="M342 1608q23 0 31 -7t8 -30v-1977q0 -14 -14.5 -17t-24.5 -3h-186q-8 0 -14.5 4.5t-6.5 13.5q0 11 5.5 14t15.5 3h188v1962h-188q-9 0 -15 2.5t-6 13.5q0 9 6 15t15 6h186z" />
    <glyph glyph-name="asciicircum" unicode="^" horiz-adv-x="2048" 
d="M993 1452h84l522 -527h-54l-509 504l-509 -504h-57z" />
    <glyph glyph-name="underscore" unicode="_" 
d="M5 -440h1019v-47h-1019v47z" />
    <glyph glyph-name="grave" unicode="`" 
d="M580 672q0 -6 -4.5 -10.5t-10.5 -4.5q-3 0 -7.5 3.5t-6.5 5.5l-25.5 25l-45.5 44.5l-54 54.5l-52 54t-39.5 43.5t-15.5 23.5q0 6 5 9.5t10 3.5q10 0 16 -6l26.5 -26.5l45 -44.5l53.5 -53.5l51.5 -53.5t38.5 -43.5t15 -24.5z" />
    <glyph glyph-name="a" unicode="a" horiz-adv-x="870" 
d="M686 551h-31q-53 0 -114.5 -11.5t-123.5 -34.5t-119 -56.5t-101 -77t-70.5 -97t-26.5 -116.5q0 -66 40.5 -102t103.5 -36q61 0 115 25t99.5 67t83.5 96.5t66.5 113.5t48 118.5t29.5 110.5zM723 16q0 -9 -3 -14.5t-13 -5.5q-9 0 -15 5.5t-6 14.5v412q-15 -46 -38 -97
t-54 -100t-69 -93.5t-82 -78t-94 -53.5t-105 -20q-82 0 -131.5 43.5t-49.5 128.5q0 66 27.5 123.5t73.5 105.5t105.5 86t124.5 64t130.5 39.5t122.5 13.5q9 0 22 0.5t25 -1.5t20.5 -8.5t8.5 -19.5v-545z" />
    <glyph glyph-name="b" unicode="b" horiz-adv-x="811" 
d="M182 461v-314q-2 -28 21 -51t59 -40t78 -26.5t80 -9.5q58 0 109.5 20.5t89.5 57t60.5 86.5t22.5 109q0 60 -20.5 108t-57 81t-86.5 51t-108 18q-69 0 -130.5 -26t-117.5 -64zM182 500q57 39 121 63.5t133 24.5t125 -20.5t96 -59t62 -94t22 -125.5q0 -66 -25 -121.5
t-68 -96t-100.5 -63t-121.5 -22.5q-21 0 -49.5 3.5t-60 10.5t-62 18.5t-55 27.5t-39.5 37.5t-15 47.5v1460q0 9 5 15t14 6q11 0 14.5 -6.5t3.5 -14.5v-1091z" />
    <glyph glyph-name="c" unicode="c" horiz-adv-x="711" 
d="M637 98q7 0 10.5 -6.5t3.5 -11.5q0 -13 -15 -25t-38 -22t-51 -19t-54.5 -15t-48.5 -9.5t-32 -3.5q-68 0 -130 20t-108.5 58.5t-74 95t-27.5 129.5q0 64 26.5 119t70.5 95t102 62.5t120 22.5q10 0 33.5 -2.5t52.5 -8t59.5 -13t56 -17.5t42 -21.5t16.5 -25.5
q0 -6 -3.5 -11.5t-10.5 -5.5q-1 0 -22.5 10.5t-56 23.5t-77 23.5t-84.5 10.5q-57 0 -109 -18.5t-92 -52.5t-63.5 -82.5t-23.5 -108.5q0 -63 25.5 -112t68 -83.5t97 -52.5t112.5 -18q46 0 85.5 11.5t69 26t48 26t22.5 11.5z" />
    <glyph glyph-name="d" unicode="d" horiz-adv-x="870" 
d="M686 551h-31q-53 0 -114.5 -11.5t-123.5 -34.5t-119 -56.5t-101 -77t-70.5 -97t-26.5 -116.5q0 -66 40.5 -102t103.5 -36q61 0 115 25t99.5 67t83.5 96.5t66.5 113.5t48 118.5t29.5 110.5zM705 1612q10 0 14 -7t4 -14v-1575q0 -9 -3 -14.5t-13 -5.5q-9 0 -15 5.5t-6 14.5
v412q-15 -46 -38 -97t-54 -100t-69 -93.5t-82 -78t-94 -53.5t-105 -20q-82 0 -131.5 43.5t-49.5 128.5q0 48 14.5 90.5t39 79t57.5 68.5t70 59q96 70 205 101.5t227 31.5h10v1003q0 9 5 15t14 6z" />
    <glyph glyph-name="e" unicode="e" horiz-adv-x="731" 
d="M111 320l512 -1q-5 51 -26 94t-55 74t-78.5 48.5t-96.5 17.5q-51 0 -95.5 -17.5t-79 -48t-56 -73.5t-25.5 -94zM111 283q0 -62 19 -110t53.5 -81.5t83.5 -51t110 -17.5q58 0 100.5 17t72.5 38t48.5 38t28.5 17q16 0 16 -16q0 -7 -3.5 -12.5t-8.5 -10.5
q-58 -57 -119 -82.5t-143 -25.5q-69 0 -124 21.5t-93.5 61.5t-59 96t-20.5 124q0 65 22.5 120.5t62.5 95.5t95.5 62.5t120.5 22.5q57 0 109 -22.5t91 -60.5t62.5 -89t23.5 -109q0 -26 -28 -26h-520z" />
    <glyph glyph-name="f" unicode="f" horiz-adv-x="694" 
d="M266 573h393q8 0 14.5 -5.5t6.5 -14.5q0 -10 -6.5 -13t-14.5 -3h-393v-906q0 -20 -20 -20q-9 0 -13 6t-4 14v906q-10 0 -32.5 -2t-48.5 -2q-29 0 -51.5 5t-22.5 19q0 12 21.5 15.5t49.5 3.5q26 0 50 -1.5t34 -1.5q-1 185 -2.5 367t-1.5 367q0 60 11 115t38 97t72.5 67.5
t114.5 25.5q48 0 92 -15t77 -43t52.5 -69t19.5 -92l-2 -4q0 -8 -3.5 -15.5t-14.5 -7.5q-9 0 -12.5 8.5t-5.5 16.5q-9 43 -23.5 77t-38 58t-57.5 36.5t-82 12.5q-62 0 -101.5 -22.5t-61.5 -60.5t-30 -87t-8 -102z" />
    <glyph glyph-name="g" unicode="g" horiz-adv-x="870" 
d="M686 551h-31q-53 0 -114.5 -11.5t-123.5 -34.5t-119 -56.5t-101 -77t-70.5 -97t-26.5 -116.5q0 -66 40.5 -102t103.5 -36q61 0 115 25t99.5 67t83.5 96.5t66.5 113.5t48 118.5t29.5 110.5zM686 428q-15 -46 -38 -97t-54 -100t-69 -93.5t-82 -78t-94 -53.5t-105 -20
q-82 0 -131.5 43.5t-49.5 128.5q0 66 27.5 123.5t73.5 105.5t105.5 86t124.5 64t130.5 39.5t122.5 13.5q9 0 22 0.5t25 -1.5t20.5 -8.5t8.5 -19.5v-606q0 -73 -19.5 -133t-58.5 -103t-96.5 -66.5t-132.5 -23.5q-88 0 -156 35.5t-113 112.5q-4 5 -4 14q0 7 4.5 14t12.5 7
t17.5 -11t22 -27t31 -35t46 -35t65.5 -27t90 -11q67 0 115 23.5t79 63.5t45.5 94t14.5 116v465z" />
    <glyph glyph-name="h" unicode="h" horiz-adv-x="782" 
d="M162 -4q-17 0 -17 20v428q-3 -2 -11.5 -7l-18.5 -10.5t-19.5 -10t-13.5 -4.5q-12 0 -12 12q0 9 10 18t22.5 17t25 14.5t17.5 9.5v1108q0 9 6 15t15 6q10 0 13 -8.5t3 -16.5v-1083q26 16 54.5 31t59 27t62 19t62.5 7q69 0 112.5 -21.5t68 -60t33.5 -90.5t9 -113v-287
q0 -8 -6 -14t-14 -6q-19 0 -19 20q-1 72 -1.5 143.5t-0.5 143.5q0 48 -6 92.5t-24 79t-52.5 55.5t-91.5 21q-67 0 -128 -25t-118 -59v-451q0 -20 -20 -20z" />
    <glyph glyph-name="i" unicode="i" horiz-adv-x="356" 
d="M178 1038q20 0 33.5 -13.5t13.5 -33.5q0 -19 -14 -33t-33 -14q-18 0 -32.5 14.5t-14.5 32.5q0 19 14 33t33 14zM197 16q0 -8 -6.5 -14t-14.5 -6q-10 0 -13 5.5t-3 14.5v551q0 8 5.5 14.5t14.5 6.5q10 0 13.5 -8.5t3.5 -16.5v-547z" />
    <glyph glyph-name="j" unicode="j" horiz-adv-x="346" 
d="M168 1038q19 0 33 -14t14 -33t-14 -33t-33 -14q-18 0 -32.5 14.5t-14.5 32.5q0 19 14 33t33 14zM186 -45q0 -63 -14.5 -121.5t-46 -104t-81 -73t-120.5 -27.5q-10 0 -22.5 3.5t-12.5 15.5q0 15 10 17.5t21 2.5q67 0 111 25.5t70.5 67.5t37.5 96t11 112v598q0 9 5.5 15
t14.5 6q11 0 13.5 -8.5t2.5 -16.5v-608z" />
    <glyph glyph-name="k" unicode="k" horiz-adv-x="764" 
d="M145 1591q0 9 6 15t15 6q10 0 13 -8.5t3 -16.5v-1319l454 313l11 7q8 -1 14.5 -5.5t6.5 -13.5q0 -4 -27.5 -25.5t-70 -51.5l-93 -65l-96 -66l-80.5 -54.5l-45 -30.5q34 3 68.5 4t68.5 1q66 0 105.5 -8.5t61 -26.5t28.5 -45.5t7 -65.5q0 -33 -2.5 -73.5t-2.5 -90.5
q0 -42 21 -68t65 -26q22 0 36.5 10.5t25 23l18.5 22.5t16 10q5 -3 8.5 -8t3.5 -11q0 -15 -12.5 -30t-30 -26.5t-37 -18.5t-32.5 -7q-38 0 -62 13t-37 34.5t-17.5 50t-4.5 58.5q0 34 3 67t3 60q0 42 -9 66.5t-27.5 36.5t-46.5 15t-66 3q-57 0 -113 -3l-113 -6v-221
q0 -20 -20 -20q-17 0 -17 20v1575z" />
    <glyph glyph-name="l" unicode="l" horiz-adv-x="356" 
d="M160 1591q0 8 5.5 14.5t14.5 6.5q10 0 13.5 -8.5t3.5 -16.5v-1571q0 -8 -6.5 -14t-14.5 -6q-10 0 -13 5.5t-3 14.5v1575z" />
    <glyph glyph-name="m" unicode="m" horiz-adv-x="1171" 
d="M182 434l58.5 47.5t71 50t76 39t73.5 15.5q67 0 104 -33.5t39 -101.5q30 23 65 47t72.5 44t77 33t78.5 13q77 0 105 -38.5t28 -111.5v-422q0 -20 -20 -20q-11 0 -14 5t-3 15v373q0 28 -1.5 57t-11 52t-29.5 38t-56 15t-76 -14.5t-78.5 -36t-74 -46.5t-62.5 -46v-392
q0 -20 -20 -20q-11 0 -14 5t-3 15v351q0 30 -1.5 62.5t-11.5 59.5t-31.5 44.5t-61.5 17.5q-33 0 -72 -17.5t-77 -43t-72 -53l-58 -48.5v-373q0 -20 -20 -20q-11 0 -14 5t-3 15v551q0 9 6 15t15 6q11 0 15 -22t4 -51q0 -26 -1.5 -49t-1.5 -32z" />
    <glyph glyph-name="n" unicode="n" horiz-adv-x="797" 
d="M162 -4q-11 0 -14 5t-3 15v551q0 9 6 15t15 6q11 0 15 -22t4 -49q0 -23 -1.5 -44t-1.5 -29q31 28 64.5 54t70 46t76 32t82.5 12q53 0 88 -18t56 -49t29.5 -72.5t8.5 -88.5v-344q0 -20 -20 -20q-19 0 -19 20v353q0 40 -7 73.5t-24 57.5t-46 37.5t-74 13.5q-41 0 -80 -14.5
t-75.5 -37.5t-69 -51t-60.5 -55v-377q0 -20 -20 -20z" />
    <glyph glyph-name="o" unicode="o" horiz-adv-x="743" 
d="M373 551q-55 0 -103 -20.5t-84 -56.5t-56.5 -84t-20.5 -103q0 -54 21 -102t57 -84t84 -57t102 -21q55 0 103 20.5t83 56.5t55.5 84t20.5 103q0 56 -20 104t-55 83.5t-83 56t-104 20.5zM373 588q63 0 118 -23t95.5 -63.5t64 -95.5t23.5 -119q0 -62 -23.5 -117t-64.5 -96
t-95.5 -64.5t-117.5 -23.5q-62 0 -116.5 24t-95.5 65t-65 95.5t-24 116.5q0 63 23.5 118t64.5 95.5t95.5 64t117.5 23.5z" />
    <glyph glyph-name="p" unicode="p" horiz-adv-x="729" 
d="M180 479v-397q34 -27 72 -42t82 -15q63 0 115.5 24t90.5 65.5t59.5 96t21.5 115.5q0 50 -14 91.5t-41 71t-66.5 46t-91.5 16.5q-62 0 -119 -20t-109 -52zM160 -389q-11 0 -14 5t-3 15v824q-3 -2 -12 -8.5l-19.5 -13.5t-19.5 -12t-12 -5q-14 0 -14 16q0 10 9.5 20t22 19
t25.5 16l20 11q0 6 -1 18t-1 25q0 18 4 32.5t17 14.5q12 0 15.5 -11t3.5 -25q0 -9 -0.5 -18t-0.5 -14q56 30 112 49t120 19q57 0 103 -19.5t78 -54t49 -81.5t17 -103q0 -69 -23.5 -131t-66 -108.5t-101.5 -73.5t-130 -27q-45 0 -83.5 11t-74.5 38v-408q0 -20 -20 -20z" />
    <glyph glyph-name="q" unicode="q" horiz-adv-x="870" 
d="M686 551h-31q-53 0 -114.5 -11.5t-123.5 -34.5t-119 -56.5t-101 -77t-70.5 -97t-26.5 -116.5q0 -66 40.5 -102t103.5 -36q61 0 115 25t99.5 67t83.5 96.5t66.5 113.5t48 118.5t29.5 110.5zM723 -369q0 -9 -3 -14.5t-13 -5.5q-8 0 -14.5 5.5t-6.5 14.5v797
q-15 -46 -38 -97t-54 -100t-69 -93.5t-82 -78t-94 -53.5t-105 -20q-82 0 -131.5 43.5t-49.5 128.5q0 66 27.5 123.5t73.5 105.5t105.5 86t124.5 64t130.5 39.5t122.5 13.5q9 0 22 0.5t25 -1.5t20.5 -8.5t8.5 -19.5v-930z" />
    <glyph glyph-name="r" unicode="r" horiz-adv-x="741" 
d="M176 551q-25 0 -50.5 -12.5t-48 -27.5t-39.5 -27.5t-24 -12.5q-5 0 -9.5 4t-6.5 8q0 16 22.5 34t53.5 34t61.5 26.5t46.5 10.5q40 0 61 -18.5t30 -47t9.5 -61.5t0.5 -62l61.5 58.5t73 61.5t79.5 49t81 20q65 0 103 -40t38 -104q0 -22 -8.5 -49.5t-24 -52t-37 -41
t-47.5 -16.5q-6 0 -9 4.5t-3 9.5q0 7 14.5 15.5t32.5 22.5t32.5 37t14.5 60q0 54 -28.5 85.5t-84.5 31.5q-34 0 -75 -22.5t-81 -54t-75 -65l-57 -55.5v-338q0 -9 -6.5 -14.5t-14.5 -5.5q-11 0 -13.5 5.5t-2.5 14.5v412q0 20 -1 41.5t-7.5 39.5t-21 30t-40.5 12z" />
    <glyph glyph-name="s" unicode="s" horiz-adv-x="569" 
d="M170 49l4 -4q47 -22 102 -22q23 0 44.5 5t38.5 16t27.5 29t10.5 44q0 34 -21 55t-52 35.5t-68 26.5t-68 29.5t-52 44.5t-21 71q0 51 20.5 90.5t55 65.5t78.5 39.5t91 13.5q9 0 32 -3t47 -9.5t42.5 -16.5t18.5 -24q0 -17 -17 -17q-5 0 -18.5 5.5t-32 12t-40 12t-42.5 5.5
q-38 0 -74 -11t-64 -32.5t-45 -53.5t-17 -73q0 -38 21 -61t53 -38.5t69 -27.5t69 -28t53 -40.5t21 -64.5q0 -34 -13.5 -59.5t-36 -43t-52 -26t-60.5 -8.5q-9 0 -31 2t-44.5 7.5t-40 14t-17.5 21.5q0 14 9.5 16t19.5 2z" />
    <glyph glyph-name="t" unicode="t" horiz-adv-x="692" 
d="M254 219q0 -44 5.5 -80.5t22 -62.5t46.5 -41t80 -15q49 0 82.5 17.5t56 38t36 38t21.5 17.5q7 0 13 -4t6 -12q0 -5 -4.5 -10t-6.5 -9q-34 -51 -87.5 -80.5t-116.5 -29.5q-59 0 -96.5 16.5t-59 46.5t-29 73t-6.5 97l6 318h-186q-9 0 -15 5.5t-6 14.5q0 11 6 13.5t15 2.5
h186l15 467q0 8 5 14.5t13 6.5q10 0 14 -6t4 -15l-12 -467h275q8 0 14 -6t6 -14q0 -9 -6 -12.5t-14 -3.5h-277l-4 -159t-2 -159z" />
    <glyph glyph-name="u" unicode="u" horiz-adv-x="782" 
d="M135 266v301q0 9 6 15t15 6q11 0 13.5 -8.5t2.5 -16.5v-280q0 -57 11 -104.5t36.5 -82t67.5 -54t104 -19.5t104 19.5t67 54t35.5 82t10.5 104.5v284q0 9 7.5 15t15.5 6q11 0 13.5 -8.5t2.5 -16.5v-297q0 -63 -15.5 -114.5t-47 -88t-79.5 -57t-114 -20.5t-114.5 20.5
t-80 57t-46.5 88t-15 114.5z" />
    <glyph glyph-name="v" unicode="v" horiz-adv-x="711" 
d="M350 -12q-8 0 -12.5 6t-7.5 12l-21.5 40l-37 69l-47.5 88.5l-52 97.5l-50.5 96l-43 84.5l-30 62t-11.5 29.5q0 6 5 10.5t11 4.5q13 0 19 -11l280 -534l277 535q2 2 8.5 5t9.5 5q6 0 12.5 -4t6.5 -11q0 -4 -11.5 -28.5l-30.5 -62l-43.5 -84.5l-50.5 -96.5l-52 -98
l-47.5 -89l-37 -69.5t-20.5 -39q-4 -7 -9.5 -12.5t-13.5 -5.5z" />
    <glyph glyph-name="w" unicode="w" horiz-adv-x="977" 
d="M483 215l-110 -209q-3 -5 -8.5 -11.5t-12.5 -6.5q-8 0 -12.5 6t-7.5 12l-21.5 40l-37 69l-47.5 88.5l-52 97.5l-50.5 96l-43 84.5l-30 62t-11.5 29.5q0 6 5 10.5t11 4.5q3 0 9 -4t8 -7l280 -536l113 211q-6 12 -20 38l-31.5 59l-36.5 68.5l-35 67l-27.5 55.5t-13.5 33
q0 5 5.5 10t10.5 5t11 -3t8 -8l149 -286l146 287q2 2 8.5 5t9.5 5q6 -1 11.5 -4.5t5.5 -10.5q0 -6 -10.5 -29t-27 -55l-36.5 -69l-38 -70.5l-31.5 -59l-18.5 -34.5l112 -215l279 536q5 11 16 11q5 0 11 -4.5t6 -10.5q0 -8 -19.5 -48.5l-49.5 -98.5l-66 -125.5l-68.5 -128
l-57 -106l-32.5 -60.5q-3 -6 -8 -12t-13 -6q-7 3 -18.5 18.5t-24.5 38t-27 49.5l-26 51l-21.5 43z" />
    <glyph glyph-name="x" unicode="x" horiz-adv-x="670" 
d="M94 -4q-6 0 -13 4.5t-7 11.5q0 5 15.5 26t39.5 50.5l52.5 63l55 63.5l46 53l26.5 31q-6 6 -25 28l-44.5 51l-54 61.5l-52.5 60.5t-39.5 48t-15.5 23q0 7 7 12t13 5q9 -4 27.5 -21.5t41.5 -43l48 -56l48 -58l41.5 -50.5t27.5 -33q9 10 27.5 33l41.5 50.5l48.5 58l48.5 56
t41.5 43t27.5 21.5q6 -1 12.5 -5.5t6.5 -11.5q0 -5 -15.5 -25t-39 -47.5l-51.5 -59l-53.5 -60l-45 -50l-25.5 -28.5l27.5 -31.5l46.5 -53.5l55 -64l53.5 -63.5t40.5 -51t17 -27.5q-4 -5 -9.5 -9.5t-11.5 -4.5t-24.5 18t-43 46l-52.5 61l-53 63.5l-44 54t-26 31.5
q-7 -8 -25.5 -31.5l-43 -54l-51.5 -64l-51 -61t-42.5 -45.5t-24.5 -18z" />
    <glyph glyph-name="y" unicode="y" horiz-adv-x="748" 
d="M551 68q-49 -32 -103 -57t-114 -25q-63 0 -102 24.5t-60.5 64t-29 90t-7.5 103.5v299q0 9 6 15t15 6q11 0 13.5 -6t2.5 -15v-301q0 -42 6 -85.5t23.5 -79t49 -58.5t83.5 -23q60 0 114 25.5t103 56.5v465q0 8 6 14.5t14 6.5q11 0 14 -5.5t3 -15.5v-442l30.5 22t34.5 15
q4 -2 7.5 -6t3.5 -9q0 -6 -11 -15.5t-24.5 -18.5t-25.5 -16t-15 -9v-324q0 -72 -40.5 -112.5t-111.5 -40.5q-8 0 -13 3t-5 13q0 14 13 14.5t22 0.5q35 0 55 16.5t29.5 41.5t11.5 55t2 57v256z" />
    <glyph glyph-name="z" unicode="z" horiz-adv-x="676" 
d="M219 37h322q20 0 20 -19q0 -18 -20 -18h-346q-8 0 -15.5 3.5t-7.5 12.5t21.5 47t54.5 91.5l73 114.5l76 115.5l64 96.5l37 56h-228q-27 0 -59.5 -1.5t-64 -8.5t-58.5 -22t-43 -42l-12 -6q-6 0 -11.5 5t-5.5 11q0 3 4.5 11t6.5 10q14 24 40.5 39.5t57 24.5t62.5 12t57 3
h278q9 0 15.5 -2.5t7.5 -13.5q-3 -8 -6.5 -16.5t-8.5 -16.5z" />
    <glyph glyph-name="braceleft" unicode="{" 
d="M836 1443q-87 0 -142 -15.5t-85.5 -51t-41.5 -93.5t-11 -142v-248q0 -70 -3.5 -127t-21.5 -102.5t-56.5 -80.5t-110.5 -61q70 -25 108.5 -60t57 -81t22.5 -103t4 -124q0 -28 -2 -75.5t-2 -104.5q0 -44 2.5 -90t9 -87t18 -75t30.5 -55q20 -22 47 -34t57.5 -18t61.5 -7.5
t58 -1.5v-30h-10q-27 0 -61 3t-68 10.5t-64 21t-50 35.5q-21 23 -34.5 65t-20.5 94t-9.5 108.5t-2.5 109.5q0 54 1.5 98t1.5 69q0 87 -16.5 148t-53.5 99t-97.5 55t-147.5 16l1 30q89 0 149 16.5t97 54t52.5 98.5t15.5 150q0 28 -1.5 74.5t-1.5 103.5q0 51 2.5 106t9.5 105
t20.5 91t34.5 65q22 24 53 38.5t65.5 21.5t69.5 9t65 2v-30z" />
    <glyph glyph-name="bar" unicode="|" 
d="M501 1564h35v-2059h-35v2059z" />
    <glyph glyph-name="braceright" unicode="}" 
d="M204 1473h10q29 0 63 -2.5t67 -10t62.5 -21.5t50.5 -37q21 -24 34.5 -65t20.5 -91t9.5 -105t2.5 -106q0 -57 -1.5 -103.5t-1.5 -74.5q0 -89 15.5 -150t52.5 -98.5t97 -54t149 -16.5l1 -13q0 -8 -3 -17q-5 1 -9 1h-9q-84 0 -140 -20t-90.5 -60t-49 -100t-14.5 -139
q0 -25 1.5 -69t1.5 -98q0 -53 -2.5 -109.5t-9.5 -108.5t-20.5 -94t-34.5 -65t-52 -36.5t-66.5 -21t-71 -10t-63.5 -2.5v30q27 0 58 1.5t61.5 7.5t57.5 18t47 34q19 21 30.5 55t18 75t9 87t2.5 90q0 57 -2 104.5t-2 75.5q0 67 4 124t22.5 103t57 81t108.5 60
q-72 26 -110.5 61t-56.5 80.5t-21.5 102.5t-3.5 127v248q0 84 -11.5 141.5t-42 93.5t-85 51.5t-141.5 15.5v30z" />
    <glyph glyph-name="asciitilde" unicode="~" horiz-adv-x="1706" 
d="M1534 660q-42 -29 -87.5 -55t-93.5 -46t-98.5 -31.5t-102.5 -11.5q-77 0 -151 22.5t-146 49t-143.5 49t-144.5 22.5q-52 0 -102.5 -13.5t-99 -35t-93.5 -49.5t-87 -57v51q42 30 87 56.5t93 46t98.5 31t103.5 11.5q51 0 99 -11t96 -27l2 -2l-1 1q44 -15 92.5 -33.5
t99 -34.5t100.5 -26.5t97 -10.5q52 0 102.5 13.5t98.5 35t93.5 49t87.5 55.5v-49z" />
    <glyph glyph-name="nonbreakingspace" horiz-adv-x="1034" 
 />
    <glyph glyph-name="uni00A0" unicode="&#xa0;" horiz-adv-x="0" 
 />
    <glyph glyph-name="exclamdown" unicode="&#xa1;" horiz-adv-x="739" 
d="M369 1139q6 0 10 -4.5t4 -10.5q2 -283 5 -562t3 -562q0 -7 -7 -10.5t-13 -3.5q-14 0 -18.5 4t-4.5 18l8 1116q0 6 3.5 10.5t9.5 4.5zM369 1329q-20 0 -35 14.5t-15 34.5t14.5 36t35.5 16q19 0 35 -16.5t16 -35.5q0 -18 -16.5 -33.5t-34.5 -15.5z" />
    <glyph glyph-name="cent" unicode="&#xa2;" horiz-adv-x="1034" 
d="M422 39v524q-54 -4 -101 -25t-82 -55.5t-55 -81t-20 -102.5t21 -101t56 -78.5t82 -54t99 -26.5zM422 0q-62 7 -115.5 31t-93.5 63t-63 91.5t-23 117.5q0 63 23.5 114.5t64 90t94 61.5t113.5 29v313q0 8 5 14.5t13 6.5q11 0 13 -7.5t2 -15.5v-309q34 0 65 -4t64 -14
q8 -3 28.5 -10t41.5 -17t37 -21.5t16 -21.5q0 -6 -4.5 -10t-10.5 -4t-28.5 10.5t-55.5 23t-73 23t-80 10.5v-530h10q42 0 81.5 12t70.5 26t51 26t24 12q7 0 11 -7t4 -12q0 -7 -5 -11t-10 -7q-57 -37 -112.5 -55.5t-124.5 -20.5q0 -16 1.5 -49t1.5 -68q0 -19 -0.5 -36
t-2.5 -30.5t-5.5 -21.5t-9.5 -8q-18 0 -18 20v195z" />
    <glyph glyph-name="sterling" unicode="&#xa3;" horiz-adv-x="1034" 
d="M340 324v-287h283q15 0 33.5 0.5t38 2t37.5 4t32 7.5q10 3 25.5 14l31 22.5l27 20.5t14.5 9q8 0 10 -7t2 -12q0 -6 -4 -11.5l-8 -10.5q-41 -47 -97.5 -61.5t-117.5 -14.5h-481q-9 0 -15 5.5t-6 14.5q0 13 22 17t50 4q26 0 50 -2t34 -2v287q-8 0 -24 -1.5t-33 -1.5
q-21 0 -38.5 4.5t-17.5 18.5q0 11 17 15t38 4q18 0 34.5 -1.5t23.5 -1.5q0 34 -0.5 68.5t-0.5 69.5q0 70 7.5 135t35.5 115t82.5 80t147.5 30q49 0 96 -13.5t84 -41t59 -68.5t22 -96l-3 -4q0 -8 -2.5 -15.5t-13.5 -7.5t-14 8.5t-4 16.5q-4 48 -23 82.5t-50 57t-70.5 33.5
t-84.5 11q-69 0 -113.5 -19t-70 -54t-35.5 -85.5t-10 -113.5v-189h371q8 0 14 -6t6 -14q0 -9 -6 -12.5t-14 -3.5h-371z" />
    <glyph glyph-name="currency" unicode="&#xa4;" horiz-adv-x="1241" 
d="M631 1248q-77 0 -142.5 -27.5t-114 -76t-76 -114.5t-27.5 -142q0 -77 27.5 -142.5t76 -114t114 -76t142.5 -27.5q76 0 141.5 28t114 76.5t76 114t27.5 141.5q0 74 -25.5 138.5t-79.5 116.5h1q-53 54 -116.5 79.5t-138.5 25.5zM147 1396l209 -210q60 48 127.5 76t145.5 28
q77 0 145.5 -28t128.5 -76l207 210l29 -31l-208 -207q45 -59 72.5 -128t27.5 -144t-27 -143.5t-73 -126.5l210 -210q-7 -8 -14.5 -14t-14.5 -15v1l-1 -1l-208 210q-60 -46 -129 -74t-145 -28q-77 0 -144 27.5t-127 74.5q-51 -55 -104.5 -105t-105.5 -104l-15 15l-15 15
l210 208q-45 58 -73.5 126.5t-28.5 143.5t28.5 144t73.5 128l-209 207z" />
    <glyph glyph-name="yen" unicode="&#xa5;" horiz-adv-x="844" 
d="M442 385v-369q0 -9 -7 -14.5t-15 -5.5q-17 0 -17 20v369h-313q-7 0 -13.5 4t-6.5 12t6 12.5t14 4.5h289l-119 155h-170q-7 0 -13.5 3.5t-6.5 11.5t6 13t14 5h146q-5 6 -18.5 24l-32 42l-39 50.5l-37.5 49.5l-28.5 39.5t-12.5 19.5q0 8 6 12.5t14 4.5l14 -6l320 -422
l319 422q3 4 8 5t9 1q5 0 9.5 -5t6.5 -9q0 -7 -10.5 -24.5t-27 -40l-36 -48l-38 -48.5l-33.5 -41t-21 -26h146q8 0 14 -5t6 -13q0 -11 -6.5 -13t-15.5 -2h-166l-119 -155h287q7 0 13.5 -4.5t6.5 -12.5q0 -11 -6.5 -13.5t-15.5 -2.5h-310z" />
    <glyph glyph-name="brokenbar" unicode="&#xa6;" 
d="M497 382h41v-739h-41v739zM497 1428h41v-740h-41v740z" />
    <glyph glyph-name="section" unicode="&#xa7;" 
d="M281 1524q-65 -49 -92 -118.5t-27 -148.5q0 -101 41.5 -204.5t104 -206.5t135 -205.5t135 -202t104 -195.5t41.5 -186q0 -69 -20.5 -128t-65.5 -111q79 63 114 145t35 182q0 83 -24 165t-64 163t-90.5 160l-103 155.5l-103 151t-90.5 145.5t-64 139t-24 132q0 93 58 168z
M483 -213q55 0 95 20.5t66 55t38 80.5t12 96q0 90 -42 186.5t-105 196.5t-136.5 203.5t-136.5 208t-105 210t-42 209.5q0 92 32 161t88 114.5t131 68.5t161 23q48 0 96.5 -8.5t93.5 -26.5t84.5 -45.5t69.5 -66.5l9 -11.5t5 -13.5q0 -5 -6 -8.5t-10 -5.5q-11 2 -23.5 14.5
l-30 29.5t-42.5 36.5t-60.5 36t-83 27.5t-111.5 11q-56 0 -106 -12t-87.5 -38.5t-60 -69.5t-22.5 -105q0 -65 24.5 -133.5t64 -140t90.5 -146l103.5 -151.5l103.5 -155.5t90.5 -159t64 -161.5t24.5 -163q0 -75 -22 -147t-64.5 -127.5t-106 -89.5t-145.5 -34q-36 0 -75 9.5
t-76 27t-68.5 42.5t-50.5 56q-2 2 -3 7t-1 8q0 14 14 14q5 0 15.5 -10l26.5 -24.5t38 -32t49.5 -32t60.5 -24.5t72 -10z" />
    <glyph glyph-name="dieresis" unicode="&#xa8;" 
d="M674 823q20 0 34.5 -14.5t14.5 -34.5t-14.5 -34.5t-34.5 -14.5q-19 0 -35 15t-16 34t16 34t35 15zM352 823q20 0 34.5 -14.5t14.5 -34.5t-14.5 -34.5t-34.5 -14.5q-18 0 -34.5 15.5t-16.5 33.5t16.5 33.5t34.5 15.5z" />
    <glyph glyph-name="copyright" unicode="&#xa9;" horiz-adv-x="1706" 
d="M609 430q-10 0 -18 14t-21 31.5t-35 31.5t-61 14t-65 -16t-42 -41.5t-22.5 -57.5t-6.5 -65t7 -64.5t23 -57t42 -41t64 -15.5q44 0 67 16t35.5 35.5t20.5 35.5t23 16t15 -15q0 -30 -16 -54.5t-40.5 -41t-53.5 -25.5t-55 -9q-47 0 -80.5 19t-55.5 49.5t-32 70t-10 81.5
q0 43 11 86t40 76v-1q25 31 59.5 46t74.5 15q23 0 50 -8.5t50 -23.5t38.5 -37t15.5 -49q0 -8 -7.5 -11.5t-14.5 -3.5zM473 651q-64 0 -120.5 -24t-98.5 -66t-66.5 -98.5t-24.5 -120.5q0 -63 24.5 -119.5t67 -99t99 -67.5t119.5 -25q64 0 120.5 24.5t99 67t67 99t24.5 120.5
q0 65 -24.5 121.5t-66.5 98t-98.5 65.5t-121.5 24zM473 692q73 0 137.5 -27t112 -74t75 -111t27.5 -138q0 -73 -27.5 -137t-75.5 -112t-112 -75.5t-137 -27.5q-72 0 -136 28t-111.5 76t-75.5 112t-28 136q0 73 27.5 136.5t75.5 111t112 75t136 27.5z" />
    <glyph glyph-name="ordfeminine" unicode="&#xaa;" horiz-adv-x="653" 
d="M514 1591h-22q-37 0 -82.5 -7.5t-91.5 -23t-89.5 -38.5t-77.5 -53.5t-54.5 -68.5t-20.5 -83q0 -48 30.5 -72t75.5 -24t84.5 17t74 45t63 65.5t50 78.5t37 83.5t23.5 80.5zM543 1219q0 -6 -3 -10.5t-10 -4.5q-16 0 -16 15v286q-18 -51 -49.5 -106t-74 -100t-95.5 -74
t-113 -29q-58 0 -96.5 30t-38.5 91q0 47 21.5 88t56.5 75t81 60t94.5 43.5t96.5 27t88 9.5h16t19 -1.5t16 -6t7 -13.5v-380z" />
    <glyph glyph-name="guillemotleft" unicode="&#xab;" horiz-adv-x="623" 
d="M70 283q0 8 5.5 15.5t10.5 12.5l205 203q2 2 6 5t8 3q6 0 11.5 -5t5.5 -11q0 -7 -13.5 -24t-34.5 -39l-46.5 -47l-49 -47l-42 -39.5l-25.5 -24.5l23 -22.5l41.5 -40.5l50 -49.5l48 -49l36 -38.5t14.5 -19q0 -7 -5 -12t-12 -5q-6 0 -26 16t-46 41l-55.5 54t-53.5 55
t-40 45t-16 23zM295 283q0 8 5.5 15.5t10.5 12.5l205 203q2 2 7 5t7 3q6 0 11.5 -4.5t5.5 -11.5q0 -11 -6 -17l-205 -204q8 -9 26.5 -26l41 -38.5l46.5 -45.5l45 -45.5t36 -38.5t18 -25q0 -7 -5 -12t-12 -5q-4 0 -23 16t-45 40l-56 53l-55 55t-41.5 45.5t-16.5 24.5z" />
    <glyph glyph-name="logicalnot" unicode="&#xac;" horiz-adv-x="1706" 
d="M262 844h1193v-488h-40v445h-1153v43z" />
    <glyph glyph-name="sfthyphen" horiz-adv-x="393" 
d="M301 317q8 0 14.5 -5t6.5 -13q0 -11 -7 -13.5t-16 -2.5h-207q-8 0 -14 5t-6 13q0 10 5.5 13t14.5 3h209z" />
    <glyph glyph-name="uni00AD" unicode="&#xad;" horiz-adv-x="393" 
d="M301 317q8 0 14.5 -5t6.5 -13q0 -11 -7 -13.5t-16 -2.5h-207q-8 0 -14 5t-6 13q0 10 5.5 13t14.5 3h209z" />
    <glyph glyph-name="registered" unicode="&#xae;" horiz-adv-x="699" 
d="M343 1476q-52 0 -98.5 -20.5t-81.5 -55.5t-55.5 -81.5t-20.5 -98.5q0 -51 21 -97.5t56.5 -82t81.5 -56.5t97 -21q52 0 99 20.5t82 56t56 82t21 98.5q0 53 -20.5 100t-55.5 81.5t-82 54.5t-100 20zM343 1521q63 0 118.5 -23.5t96 -64t64 -95.5t23.5 -118q0 -62 -24 -117
t-65 -96t-96 -64.5t-117 -23.5q-61 0 -115.5 24t-95.5 65.5t-65 96t-24 115.5q0 62 23.5 116.5t64.5 95.5t95.5 65t116.5 24zM273 1360v-105h71q15 0 33 1t33.5 6t26.5 16t11 31q0 18 -11.5 28.5t-27.5 15.5t-33.5 6t-30.5 1h-72zM226 1393q0 10 10 10h120q27 0 53 -3.5
t47 -14.5t33.5 -30.5t12.5 -52.5q0 -37 -23 -61t-58 -32l8 -16l14 -28.5l16.5 -35l16 -34.5l12.5 -26.5t5 -11.5q0 -10 -10 -10h-32l-9 6l-71 149h-96q0 -10 1.5 -37t1.5 -55q0 -26 -2.5 -44.5t-10.5 -18.5h-29q-10 0 -10 10v336z" />
    <glyph glyph-name="macron" unicode="&#xaf;" 
d="M709 778q7 0 13.5 -4t6.5 -12q0 -11 -7.5 -14t-16.5 -3h-390q-7 0 -13.5 4.5t-6.5 12.5t6.5 12t13.5 4h394z" />
    <glyph glyph-name="degree" unicode="&#xb0;" horiz-adv-x="557" 
d="M281 1591q-39 0 -75 -13.5t-63.5 -37.5t-44 -58t-16.5 -75q0 -40 17 -73.5t44.5 -58t63.5 -38.5t74 -14q39 0 74.5 14t62.5 38.5t43 58t16 73.5q0 41 -16 75t-43 58t-62.5 37.5t-74.5 13.5zM281 1618q45 0 85.5 -15.5t71.5 -43.5t49.5 -67t18.5 -85t-18.5 -84.5
t-50 -66.5t-72 -44t-84.5 -16t-85.5 15.5t-73 43.5t-50.5 67t-19 85q0 47 18.5 86t50 66.5t73 43t86.5 15.5z" />
    <glyph glyph-name="plusminus" unicode="&#xb1;" horiz-adv-x="1101" 
d="M123 114h800v-43h-800v43zM513 1145h43v-360h367v-45h-367v-360h-43v360h-390v45h390v360z" />
    <glyph glyph-name="twosuperior" unicode="&#xb2;" horiz-adv-x="530" 
d="M178 360h203q7 0 10.5 -1t3.5 -9q0 -12 -14 -12h-225q-5 0 -10.5 1.5t-6.5 8.5q7 18 30.5 43l53.5 55.5l63.5 64t61.5 67.5t46 67.5t18 63.5q0 33 -16 56t-40.5 37.5t-54 21.5t-57.5 7q-30 0 -61.5 -7t-59 -22t-48 -38.5t-26.5 -56.5v-5l-12 -8l-10 8v3q0 38 22.5 66
t55.5 46.5t70.5 27.5t68.5 9q33 0 67 -8t61.5 -25t45.5 -44t18 -66q0 -26 -8 -49t-21.5 -43.5t-30 -39l-32.5 -36.5z" />
    <glyph glyph-name="threesuperior" unicode="&#xb3;" horiz-adv-x="537" 
d="M360 821h-272q-14 0 -14 13q0 7 4 8.5t10 1.5h291q6 0 11 -1t5 -9q0 -4 -11 -17.5t-27.5 -31.5l-36.5 -38l-38.5 -38l-32.5 -32l-19 -19q28 6 57 6q35 0 69 -9t61 -27.5t43.5 -47.5t16.5 -68q0 -47 -21.5 -81.5t-56 -57t-76.5 -33t-83 -10.5q-21 0 -52 5t-61.5 15.5
t-55.5 27t-34 38.5q0 12 12 12q5 0 9.5 -4t7.5 -8q13 -17 34.5 -29.5t45.5 -20t48.5 -11t45.5 -3.5q36 0 73.5 9t68 28.5t50 50t19.5 72.5q0 35 -15.5 59.5t-40 40t-55.5 22.5t-61 7q-22 0 -42.5 -5t-41.5 -5q-2 0 -6.5 1t-4.5 5t11.5 17.5t29.5 32.5l39.5 40.5l41 40.5
l34.5 33.5z" />
    <glyph glyph-name="acute" unicode="&#xb4;" 
d="M690 924q5 0 10 -3.5t5 -9.5q0 -5 -15.5 -23.5t-39.5 -44l-52 -54l-54 -54.5l-45.5 -45l-25.5 -25q-2 -2 -7 -5t-7 -3q-6 0 -10.5 4.5t-4.5 10.5t15 25t38.5 44l51 53l53 53l45.5 44.5l27 26.5q6 6 16 6z" />
    <glyph glyph-name="mu" unicode="&#xb5;" horiz-adv-x="758" 
d="M72 593h32l-2 -162t-1 -162q0 -107 57.5 -169t166.5 -62q55 0 93.5 22t62.5 57.5t35.5 81.5t12.5 94l4 300h31l-7 -474q0 -26 5.5 -41t17.5 -23.5t29 -11t39 -2.5v-22q-7 -2 -13.5 -2h-13.5q-53 0 -73 24.5t-20 74.5l-11 3q-32 -59 -84 -83.5t-116 -24.5
q-62 0 -118.5 25.5t-88.5 82.5h-11q0 -80 -1.5 -159.5t-1.5 -159.5h-33z" />
    <glyph glyph-name="paragraph" unicode="&#xb6;" 
d="M494 1479h432v-58h-133v-1421h-58v1421h-196v-1421h-60v782q-78 3 -147.5 26.5t-121 67t-82 107t-30.5 147.5q0 87 31.5 152.5t85.5 109t126 65.5t153 22z" />
    <glyph glyph-name="periodcentered" unicode="&#xb7;" horiz-adv-x="516" 
d="M258 485q20 0 34.5 -14.5t14.5 -34.5t-14.5 -34.5t-34.5 -14.5q-18 0 -33.5 15.5t-15.5 33.5q0 19 15 34t34 15z" />
    <glyph glyph-name="cedilla" unicode="&#xb8;" 
d="M500 0h30v-111q37 0 75.5 -4t69.5 -18t50.5 -42.5t19.5 -76.5q0 -42 -16.5 -71t-43.5 -47t-62 -25.5t-72 -7.5q-7 0 -25 0.5t-41 2.5t-47.5 5t-45 7.5t-33.5 11.5t-13 16q2 4 5.5 8t8.5 4t11 -1.5t11 -2.5q44 -10 87 -15.5t88 -5.5q30 0 58 6t50.5 20.5t36 37.5t13.5 57
q0 38 -12.5 60t-33.5 33.5t-47.5 15t-54.5 3.5q-14 0 -27.5 -0.5t-27.5 -0.5q-8 0 -10 4t-2 12v125z" />
    <glyph glyph-name="onesuperior" unicode="&#xb9;" horiz-adv-x="328" 
d="M176 348q0 -12 -12 -12t-12 12v486q0 6 4.5 9t9.5 3q10 0 10 -12v-486z" />
    <glyph glyph-name="ordmasculine" unicode="&#xba;" horiz-adv-x="557" 
d="M281 1591q-39 0 -75 -13.5t-63.5 -37.5t-44 -58t-16.5 -75q0 -40 17 -73.5t44.5 -58t63.5 -38.5t74 -14q39 0 74.5 14t62.5 38.5t43 58t16 73.5q0 41 -16 75t-43 58t-62.5 37.5t-74.5 13.5zM281 1618q45 0 85.5 -15.5t71.5 -43.5t49.5 -67t18.5 -85t-18.5 -84.5
t-50 -66.5t-72 -44t-84.5 -16t-85.5 15.5t-73 43.5t-50.5 67t-19 85q0 47 18.5 86t50 66.5t73 43t86.5 15.5z" />
    <glyph glyph-name="guillemotright" unicode="&#xbb;" horiz-adv-x="623" 
d="M326 289q0 -8 -4.5 -14.5t-10.5 -12.5l-23 -23.5l-40 -41.5l-49 -50l-48.5 -47.5l-38.5 -36t-20 -14.5q-7 0 -11.5 5.5t-4.5 11.5q0 3 2 9.5t4 8.5l205 203q-6 5 -23.5 22.5l-41.5 40.5l-50 48.5l-48 48.5t-36 39t-14 20q0 6 5 11t11 5q10 0 16 -6l22 -21.5l42.5 -41
l52 -50.5l50.5 -51t38 -41t15 -22zM555 289q0 -6 -16.5 -26t-42 -46l-55.5 -55l-56.5 -54l-45.5 -41.5t-22 -17.5q-7 0 -11.5 5.5t-4.5 11.5q0 2 2.5 9t3.5 9l205 203q-6 5 -23.5 22.5l-41.5 40.5l-50 48.5l-47.5 48.5l-36 39t-14.5 20q0 6 5 11t11 5q11 0 17 -6l203 -203
l11 -10.5t9 -13.5z" />
    <glyph glyph-name="onequarter" unicode="&#xbc;" horiz-adv-x="1247" 
d="M735 104h326v279q0 6 4.5 9t9.5 3q6 0 8 -4.5t2 -9.5v-277h132q12 0 12 -10t-12 -10h-132v-156q-2 -4 -5.5 -7t-8.5 -3q-10 0 -10 10v156h-338q-5 0 -9.5 1.5t-6.5 6.5q2 11 17 39t37 65.5l48.5 79l50.5 80l43.5 69l28.5 44.5q1 2 4.5 4t5.5 2q8 0 12 -8
q-6 -14 -21.5 -42t-36.5 -62.5l-45 -73l-46.5 -74l-41 -65zM-12 -14q-6 0 -11.5 6t-5.5 12q2 4 5 7t6 5l68 58l98.5 84l120 102.5l132.5 113.5l136.5 116.5l132 112l119 100.5l97 81.5l66.5 54t27 19.5q6 0 11 -5t5 -11q0 -9 -9 -16l-48 -41l-86 -73.5l-114 -98l-132.5 -114
l-141 -120.5l-139 -118l-127.5 -107l-105.5 -87.5l-73 -59t-31.5 -21.5zM170 379q0 -6 -4.5 -8t-9.5 -2q-11 0 -11 10v455q0 12 13 12q12 0 12 -12v-455z" />
    <glyph glyph-name="onehalf" unicode="&#xbd;" horiz-adv-x="1163" 
d="M825 20h195q5 0 8.5 -1t3.5 -7q0 -12 -12 -12h-217q-5 0 -10 2t-5 8q9 18 32 42.5t52 52l60 58.5t57 62t43 62t17 59q0 31 -15.5 52.5t-39.5 35.5t-52.5 20.5t-54.5 6.5q-28 0 -58 -7t-56.5 -21t-45.5 -36t-25 -53v-4l-10 -8l-12 8v2q0 34 22 60.5t54 43.5t67.5 26
t63.5 9q30 0 62.5 -7.5t59.5 -23t44.5 -41t17.5 -61.5q0 -24 -7.5 -45.5t-20 -41t-28 -37.5l-30.5 -34zM-12 -14q-6 0 -11.5 6t-5.5 12q2 4 5 7t6 5l68 58l98.5 84l120 102.5l132.5 113.5l136.5 116.5l132 112l119 100.5l97 81.5l66.5 54t27 19.5q6 0 11 -5t5 -11
q0 -9 -9 -16l-48 -41l-86 -73.5l-114 -98l-132.5 -114l-141 -120.5l-139 -118l-127.5 -107l-105.5 -87.5l-73 -59t-31.5 -21.5zM170 379q0 -6 -4.5 -8t-9.5 -2q-11 0 -11 10v455q0 12 13 12q12 0 12 -12v-455z" />
    <glyph glyph-name="threequarters" unicode="&#xbe;" horiz-adv-x="1446" 
d="M934 104h326v279q0 6 4.5 9t9.5 3q6 0 8 -4.5t2 -9.5v-277h131q12 0 12 -10t-12 -10h-131v-156q-2 -4 -5.5 -7t-8.5 -3q-10 0 -10 10v156h-338q-5 0 -10 1.5t-7 6.5l2.5 10t3.5 9l219 358q1 1 5 3.5t6 2.5q8 0 12 -8q-6 -14 -21.5 -42t-36.5 -62.5l-45 -73l-46.5 -74
l-41 -65zM186 -14q-6 0 -11 6t-5 12q0 2 4.5 6.5l5.5 5.5l47 40l86 74l114 98l132.5 113l141 120l139 118.5l127.5 108l105.5 88l73.5 59.5t32 23q4 -2 10 -6.5t6 -9.5q0 -4 -4 -9.5t-7 -7.5l-980 -833q-8 -6 -17 -6zM344 823h-260q-12 0 -12 11q0 7 3 8.5t9 1.5h278
q5 0 10 -2.5t7 -7.5q-2 -6 -13 -18.5t-27 -28.5l-34.5 -34l-36 -34.5l-31.5 -29.5t-20 -19q14 -1 28.5 1.5t28.5 2.5q32 0 64.5 -8t58.5 -24.5t42 -43t16 -63.5q0 -45 -20.5 -77.5t-53.5 -54t-73 -31.5t-79 -10q-20 0 -49.5 5t-59 15.5t-53.5 26t-32 35.5q1 5 4.5 7t7.5 4
l14 -6q3 -16 25 -28t49.5 -20.5t54 -13t39.5 -4.5q34 0 69.5 9t65 27.5t48 47t18.5 68.5q0 33 -15 55.5t-39 36.5t-53 20t-57 6q-20 0 -40 -4t-40 -4q-2 0 -5.5 0.5t-4.5 3.5q1 7 11.5 21t27 31.5t36 36l38 35l33.5 30t22 20.5z" />
    <glyph glyph-name="questiondown" unicode="&#xbf;" horiz-adv-x="1143" 
d="M672 1329q-20 0 -35.5 14.5t-15.5 34.5t15.5 36t35.5 16q19 0 34 -17t15 -35t-15.5 -33.5t-33.5 -15.5zM672 1141q11 0 14.5 -6t3.5 -15v-190q0 -29 -2.5 -58.5t-13.5 -56.5q-14 -35 -44 -65t-67.5 -61l-77.5 -64.5t-73 -75.5t-54.5 -94t-21.5 -119q0 -69 22.5 -126.5
t64 -99t98.5 -64.5t126 -23q44 0 86 9.5t79 32.5q14 9 29.5 24.5t30.5 33.5t28.5 36.5l24.5 33.5l18.5 24.5t10.5 9.5q6 0 10.5 -4t4.5 -10q0 -8 -2.5 -15t-5.5 -14q-46 -94 -126.5 -146t-185.5 -52q-78 0 -142.5 25.5t-111 71.5t-72.5 110.5t-26 142.5q0 67 22 121.5t56 99
t75 80.5l78.5 67.5t67.5 60t41 56.5q12 29 15.5 70.5t3.5 85.5q0 41 -1.5 79t-1.5 64q0 8 5 14.5t14 6.5z" />
    <glyph glyph-name="Agrave" unicode="&#xc0;" horiz-adv-x="1976" 
d="M381 360h1214l-604 1201zM362 324l-284 -560q-2 -2 -7 -6t-8 -4q-8 0 -14 5.5t-6 13.5q0 2 11 25l29.5 59.5l42 83l48.5 95.5l50 97l45.5 87.5l34.5 67.5l18 36h-187q-20 0 -20 20q0 10 5.5 13t14.5 3h205l631 1235q2 5 6.5 13t11.5 8q10 0 16.5 -6.5t10.5 -14.5
q9 -19 41 -81l79 -155.5l106 -210.5l124 -245.5l132 -262l130 -258.5l118.5 -235l97 -192.5l65.5 -130.5t24 -49q0 -8 -5.5 -15.5t-14.5 -7.5q-5 2 -19.5 25.5t-35 60.5l-45 84l-49.5 97.5l-49.5 100l-45 91l-35 72t-20.5 41.5h-1252zM1057 1712q0 -6 -4.5 -10.5t-10.5 -4.5
q-3 0 -7.5 3.5t-6.5 5.5l-25.5 25l-45.5 44.5l-54 54.5l-52 54t-39.5 43.5t-15.5 23.5q0 6 5 9.5t10 3.5q10 0 16 -6l26.5 -26.5l45 -44.5l53.5 -53.5l51.5 -53.5t38.5 -43.5t15 -24.5z" />
    <glyph glyph-name="Aacute" unicode="&#xc1;" horiz-adv-x="1976" 
d="M381 360h1214l-604 1201zM362 324l-284 -560q-2 -2 -7 -6t-8 -4q-8 0 -14 5.5t-6 13.5q0 2 11 25l29.5 59.5l42 83l48.5 95.5l50 97l45.5 87.5l34.5 67.5l18 36h-187q-20 0 -20 20q0 10 5.5 13t14.5 3h205l631 1235q2 5 6.5 13t11.5 8q10 0 16.5 -6.5t10.5 -14.5
q9 -19 41 -81l79 -155.5l106 -210.5l124 -245.5l132 -262l130 -258.5l118.5 -235l97 -192.5l65.5 -130.5t24 -49q0 -8 -5.5 -15.5t-14.5 -7.5q-5 2 -19.5 25.5t-35 60.5l-45 84l-49.5 97.5l-49.5 100l-45 91l-35 72t-20.5 41.5h-1252zM1167 1964q5 0 10 -3.5t5 -9.5
q0 -5 -15.5 -23.5t-39.5 -44l-52 -54l-54 -54.5l-45.5 -45l-25.5 -25q-2 -2 -7 -5t-7 -3q-6 0 -10.5 4.5t-4.5 10.5t15 25t38.5 44l51 53l53 53l45.5 44.5l27 26.5q6 6 16 6z" />
    <glyph glyph-name="Acircumflex" unicode="&#xc2;" horiz-adv-x="1976" 
d="M381 360h1214l-604 1201zM362 324l-284 -560q-2 -2 -7 -6t-8 -4q-8 0 -14 5.5t-6 13.5q0 2 11 25l29.5 59.5l42 83l48.5 95.5l50 97l45.5 87.5l34.5 67.5l18 36h-187q-20 0 -20 20q0 10 5.5 13t14.5 3h205l631 1235q2 5 6.5 13t11.5 8q10 0 16.5 -6.5t10.5 -14.5
q9 -19 41 -81l79 -155.5l106 -210.5l124 -245.5l132 -262l130 -258.5l118.5 -235l97 -192.5l65.5 -130.5t24 -49q0 -8 -5.5 -15.5t-14.5 -7.5q-5 2 -19.5 25.5t-35 60.5l-45 84l-49.5 97.5l-49.5 100l-45 91l-35 72t-20.5 41.5h-1252zM1208 1714q0 -5 -5.5 -10t-10.5 -5
t-20 14.5l-36 36t-44.5 48l-44.5 50l-37 42l-21 24.5l-21 -24l-37 -42l-44.5 -50l-44 -48t-36 -36.5t-20.5 -14.5q-6 0 -11 4.5t-5 10.5q0 7 12.5 24t32 39l43 46.5l45.5 47l39 39.5t24 25q4 5 10.5 8.5t12.5 3.5t13.5 -3.5t11.5 -8.5q7 -8 24 -25l38.5 -39.5l44.5 -47
l42.5 -46.5t32 -39t12.5 -24z" />
    <glyph glyph-name="Atilde" unicode="&#xc3;" horiz-adv-x="1976" 
d="M381 360h1214l-604 1201zM362 324l-284 -560q-2 -2 -7 -6t-8 -4q-8 0 -14 5.5t-6 13.5q0 2 11 25l29.5 59.5l42 83l48.5 95.5l50 97l45.5 87.5l34.5 67.5l18 36h-187q-20 0 -20 20q0 10 5.5 13t14.5 3h205l631 1235q2 5 6.5 13t11.5 8q10 0 16.5 -6.5t10.5 -14.5
q9 -19 41 -81l79 -155.5l106 -210.5l124 -245.5l132 -262l130 -258.5l118.5 -235l97 -192.5l65.5 -130.5t24 -49q0 -8 -5.5 -15.5t-14.5 -7.5q-5 2 -19.5 25.5t-35 60.5l-45 84l-49.5 97.5l-49.5 100l-45 91l-35 72t-20.5 41.5h-1252zM868 1857q-31 0 -45.5 -10t-22.5 -25.5
t-14 -35t-18 -37.5q-19 0 -19 20q0 24 9 46t24.5 38.5t37 26.5t46.5 10q29 0 57.5 -13.5t57 -29.5t57 -29.5t57.5 -13.5q18 0 35 5.5t31 16t22.5 25.5t8.5 35q0 9 2.5 16.5t13.5 7.5q9 0 13 -7t4 -15q0 -26 -10.5 -47t-28.5 -37t-41 -24.5t-47 -8.5q-32 0 -60.5 13.5
t-56 29.5t-55.5 29.5t-58 13.5z" />
    <glyph glyph-name="Adieresis" unicode="&#xc4;" horiz-adv-x="1976" 
d="M381 360h1214l-604 1201zM362 324l-284 -560q-2 -2 -7 -6t-8 -4q-8 0 -14 5.5t-6 13.5q0 2 11 25l29.5 59.5l42 83l48.5 95.5l50 97l45.5 87.5l34.5 67.5l18 36h-187q-20 0 -20 20q0 10 5.5 13t14.5 3h205l631 1235q2 5 6.5 13t11.5 8q10 0 16.5 -6.5t10.5 -14.5
q9 -19 41 -81l79 -155.5l106 -210.5l124 -245.5l132 -262l130 -258.5l118.5 -235l97 -192.5l65.5 -130.5t24 -49q0 -8 -5.5 -15.5t-14.5 -7.5q-5 2 -19.5 25.5t-35 60.5l-45 84l-49.5 97.5l-49.5 100l-45 91l-35 72t-20.5 41.5h-1252zM1151 1863q20 0 34.5 -14.5t14.5 -34.5
t-14.5 -34.5t-34.5 -14.5q-19 0 -35 15t-16 34t16 34t35 15zM829 1863q20 0 34.5 -14.5t14.5 -34.5t-14.5 -34.5t-34.5 -14.5q-18 0 -34.5 15.5t-16.5 33.5t16.5 33.5t34.5 15.5z" />
    <glyph glyph-name="Aring" unicode="&#xc5;" horiz-adv-x="1976" 
d="M991 1860q-32 0 -58.5 -11.5t-46 -31t-30 -47t-10.5 -58.5q0 -32 11 -58.5t30 -45.5t45.5 -30t58.5 -11q30 0 57 11.5t46.5 31t31 46t11.5 56.5q0 31 -11 58t-30.5 47t-46.5 31.5t-58 11.5zM381 360h1214l-596 1172h-18zM362 324l-284 -560q-1 -2 -6.5 -6t-8.5 -4
q-8 0 -14 5.5t-6 13.5q0 2 11 25l29.5 59.5l42 83l48.5 95.5l50 97l45.5 87.5l34.5 67.5l18 36h-187q-20 0 -20 20q0 11 5.5 13.5t14.5 2.5h205l602 1182q-30 6 -54.5 22t-41.5 39t-26 51t-9 58q0 37 13.5 70t37.5 57.5t56.5 38.5t70.5 14q37 0 70 -14t57.5 -38.5
t38.5 -57.5t14 -70q0 -29 -9.5 -57t-27 -51t-41.5 -39.5t-53 -22.5l40 -78.5l76.5 -151l103.5 -204.5l121.5 -239l129 -254l127 -250.5l115.5 -228.5l94.5 -187l64 -126.5t23.5 -47.5q0 -8 -5.5 -15.5t-14.5 -7.5q-4 1 -18 24.5t-34 60.5l-44.5 84.5l-50.5 98.5l-50.5 100.5
l-45.5 91.5l-36 71.5t-20 40.5h-1252z" />
    <glyph glyph-name="AE" unicode="&#xc6;" horiz-adv-x="2763" 
d="M541 360h917v1176zM66 -248q-6 0 -13.5 6t-7.5 13q0 3 16.5 26.5t44.5 60l63.5 83l73.5 95.5l75.5 97l68.5 88l53 68l29 37h-186q-8 0 -14.5 4.5t-6.5 13.5q0 11 6 13.5t15 2.5h211l950 1217q11 14 23 22.5t32 8.5h1098q8 0 14 -6.5t6 -14.5q0 -10 -5.5 -13t-14.5 -3
h-1100v-1211h1133q7 0 13.5 -4t6.5 -12q0 -11 -4.5 -14.5t-15.5 -3.5h-1133v-523h1100q7 0 13.5 -4t6.5 -12q0 -11 -4.5 -14.5t-15.5 -3.5h-1098q-23 0 -32 4.5t-9 29.5v523h-944l-30.5 -40.5l-54 -71.5l-69.5 -92l-77 -100.5l-76 -98.5l-67 -85.5l-50 -60.5t-24 -25z" />
    <glyph glyph-name="Ccedilla" unicode="&#xc7;" horiz-adv-x="1741" 
d="M989 -227h30v-113q11 0 21.5 1t21.5 1q34 0 65 -8t55 -25t38 -44t14 -64q0 -42 -16.5 -71t-43.5 -47t-62 -26t-72 -8q-7 0 -25 0.5t-41 2.5t-47.5 5t-45 8t-33.5 11.5t-13 15.5q0 5 4.5 9t9.5 4t11 -2t11 -3q88 -20 175 -20q30 0 58 5.5t50.5 19.5t36 36.5t13.5 57.5
q0 39 -14 61.5t-36.5 33.5t-51 14t-57.5 3h-44q-9 0 -10.5 4.5t-1.5 12.5v125zM1661 1368q0 -5 -4 -10.5t-10 -5.5q-5 0 -10.5 3.5l-10.5 6.5l-74.5 53.5t-76.5 50.5t-79.5 44.5t-83.5 35.5q-68 23 -137 34t-141 11q-124 0 -239 -32t-214.5 -90.5t-181.5 -140.5t-140 -182
t-90 -215t-32 -239q0 -122 32.5 -235.5t91.5 -213.5t141.5 -182.5t182.5 -141.5t213.5 -91.5t235.5 -32.5q166 0 308 51t268 158q4 4 15.5 12.5t16.5 8.5q8 0 11.5 -5t3.5 -12q0 -8 -3.5 -12.5t-8.5 -9.5q-51 -55 -125 -97.5t-157.5 -71.5t-169.5 -44t-159 -15
q-127 0 -245 34t-222 95.5t-190 147.5t-147.5 190t-95.5 222t-34 245q0 129 33.5 248t94.5 223t146 189t189 146t223 94.5t248 33.5q170 0 325 -57.5t281 -171.5q14 -13 21 -29z" />
    <glyph glyph-name="Egrave" unicode="&#xc8;" horiz-adv-x="1612" 
d="M213 324h-193q-20 0 -20 20q0 10 5.5 13t14.5 3h193v1225q0 15 15 19t26 4h1190q8 0 14 -6.5t6 -14.5q0 -9 -6 -12.5t-14 -3.5h-1192v-1211h1227q8 0 14 -6t6 -14q0 -9 -6 -12.5t-14 -3.5h-1227v-521h1192q7 0 13.5 -4t6.5 -12q0 -20 -20 -20h-1190q-24 0 -32.5 6.5
t-8.5 31.5v519zM889 1712q0 -6 -4.5 -10.5t-10.5 -4.5q-3 0 -7.5 3.5t-6.5 5.5l-25.5 25l-45.5 44.5l-54 54.5l-52 54t-39.5 43.5t-15.5 23.5q0 6 5 9.5t10 3.5q10 0 16 -6l26.5 -26.5l45 -44.5l53.5 -53.5l51.5 -53.5t38.5 -43.5t15 -24.5z" />
    <glyph glyph-name="Eacute" unicode="&#xc9;" horiz-adv-x="1612" 
d="M213 324h-193q-20 0 -20 20q0 10 5.5 13t14.5 3h193v1225q0 15 15 19t26 4h1190q8 0 14 -6.5t6 -14.5q0 -9 -6 -12.5t-14 -3.5h-1192v-1211h1227q8 0 14 -6t6 -14q0 -9 -6 -12.5t-14 -3.5h-1227v-521h1192q7 0 13.5 -4t6.5 -12q0 -20 -20 -20h-1190q-24 0 -32.5 6.5
t-8.5 31.5v519zM999 1964q5 0 10 -3.5t5 -9.5q0 -5 -15.5 -23.5t-39.5 -44l-52 -54l-54 -54.5l-45.5 -45l-25.5 -25q-2 -2 -7 -5t-7 -3q-6 0 -10.5 4.5t-4.5 10.5t15 25t38.5 44l51 53l53 53l45.5 44.5l27 26.5q6 6 16 6z" />
    <glyph glyph-name="Ecircumflex" unicode="&#xca;" horiz-adv-x="1612" 
d="M213 324h-193q-20 0 -20 20q0 10 5.5 13t14.5 3h193v1225q0 15 15 19t26 4h1190q8 0 14 -6.5t6 -14.5q0 -9 -6 -12.5t-14 -3.5h-1192v-1211h1227q8 0 14 -6t6 -14q0 -9 -6 -12.5t-14 -3.5h-1227v-521h1192q7 0 13.5 -4t6.5 -12q0 -20 -20 -20h-1190q-24 0 -32.5 6.5
t-8.5 31.5v519zM1040 1714q0 -5 -5.5 -10t-10.5 -5t-20 14.5l-36 36t-44.5 48l-44.5 50l-37 42l-21 24.5l-21 -24l-37 -42l-44.5 -50l-44 -48t-36 -36.5t-20.5 -14.5q-6 0 -11 4.5t-5 10.5q0 7 12.5 24t32 39l43 46.5l45.5 47l39 39.5t24 25q4 5 10.5 8.5t12.5 3.5
t13.5 -3.5t11.5 -8.5q7 -8 24 -25l38.5 -39.5l44.5 -47l42.5 -46.5t32 -39t12.5 -24z" />
    <glyph glyph-name="Edieresis" unicode="&#xcb;" horiz-adv-x="1612" 
d="M213 324h-193q-20 0 -20 20q0 10 5.5 13t14.5 3h193v1225q0 15 15 19t26 4h1190q8 0 14 -6.5t6 -14.5q0 -9 -6 -12.5t-14 -3.5h-1192v-1211h1227q8 0 14 -6t6 -14q0 -9 -6 -12.5t-14 -3.5h-1227v-521h1192q7 0 13.5 -4t6.5 -12q0 -20 -20 -20h-1190q-24 0 -32.5 6.5
t-8.5 31.5v519zM983 1863q20 0 34.5 -14.5t14.5 -34.5t-14.5 -34.5t-34.5 -14.5q-19 0 -35 15t-16 34t16 34t35 15zM661 1863q20 0 34.5 -14.5t14.5 -34.5t-14.5 -34.5t-34.5 -14.5q-18 0 -34.5 15.5t-16.5 33.5t16.5 33.5t34.5 15.5z" />
    <glyph glyph-name="Igrave" unicode="&#xcc;" horiz-adv-x="512" 
d="M238 1595q0 9 5.5 15t14.5 6q11 0 13.5 -6t2.5 -15v-1816q0 -9 -5.5 -15t-14.5 -6q-11 0 -13.5 6t-2.5 15v1816zM324 1712q0 -6 -4.5 -10.5t-10.5 -4.5q-3 0 -7.5 3.5t-6.5 5.5l-25.5 25l-45.5 44.5l-54 54.5l-52 54t-39.5 43.5t-15.5 23.5q0 6 5 9.5t10 3.5q10 0 16 -6
l26.5 -26.5l45 -44.5l53.5 -53.5l51.5 -53.5t38.5 -43.5t15 -24.5z" />
    <glyph glyph-name="Iacute" unicode="&#xcd;" horiz-adv-x="512" 
d="M238 1595q0 9 5.5 15t14.5 6q11 0 13.5 -6t2.5 -15v-1816q0 -9 -5.5 -15t-14.5 -6q-11 0 -13.5 6t-2.5 15v1816zM434 1964q5 0 10 -3.5t5 -9.5q0 -5 -15.5 -23.5t-39.5 -44l-52 -54l-54 -54.5l-45.5 -45l-25.5 -25q-2 -2 -7 -5t-7 -3q-6 0 -10.5 4.5t-4.5 10.5t15 25
t38.5 44l51 53l53 53l45.5 44.5l27 26.5q6 6 16 6z" />
    <glyph glyph-name="Icircumflex" unicode="&#xce;" horiz-adv-x="512" 
d="M238 1595q0 9 5.5 15t14.5 6q11 0 13.5 -6t2.5 -15v-1816q0 -9 -5.5 -15t-14.5 -6q-11 0 -13.5 6t-2.5 15v1816zM475 1714q0 -5 -5.5 -10t-10.5 -5t-20 14.5l-36 36t-44.5 48l-44.5 50l-37 42l-21 24.5l-21 -24l-37 -42l-44.5 -50l-44 -48t-36 -36.5t-20.5 -14.5
q-6 0 -11 4.5t-5 10.5q0 7 12.5 24t32 39l43 46.5l45.5 47l39 39.5t24 25q4 5 10.5 8.5t12.5 3.5t13.5 -3.5t11.5 -8.5q7 -8 24 -25l38.5 -39.5l44.5 -47l42.5 -46.5t32 -39t12.5 -24z" />
    <glyph glyph-name="Idieresis" unicode="&#xcf;" horiz-adv-x="512" 
d="M238 1595q0 9 5.5 15t14.5 6q11 0 13.5 -6t2.5 -15v-1816q0 -9 -5.5 -15t-14.5 -6q-11 0 -13.5 6t-2.5 15v1816zM418 1863q20 0 34.5 -14.5t14.5 -34.5t-14.5 -34.5t-34.5 -14.5q-19 0 -35 15t-16 34t16 34t35 15zM96 1863q20 0 34.5 -14.5t14.5 -34.5t-14.5 -34.5
t-34.5 -14.5q-18 0 -34.5 15.5t-16.5 33.5t16.5 33.5t34.5 15.5z" />
    <glyph glyph-name="Eth" unicode="&#xd0;" horiz-adv-x="1858" 
d="M270 -197h467q86 0 171 7t169 28q147 37 265.5 119.5t202 196t128.5 251.5t45 287q0 163 -51.5 305.5t-145.5 254.5t-226 188t-292 105q-91 17 -182.5 21.5t-183.5 4.5h-367v-1213h621q7 0 13.5 -4t6.5 -12q0 -11 -6.5 -13.5t-15.5 -2.5h-619v-523zM272 1608h394
q68 0 141 -3.5t146.5 -13.5t144 -27.5t133.5 -45.5q124 -55 221 -140.5t164.5 -193t103 -233t35.5 -259.5q0 -148 -44.5 -287.5t-126.5 -256.5t-198.5 -204t-261.5 -130q-50 -15 -103.5 -24t-108.5 -14t-110 -7t-106 -2h-424q-17 0 -29 4t-12 24v531q-14 0 -48 -2t-70 -2
q-38 0 -66.5 4t-28.5 16t28.5 16t66.5 4q36 0 70 -2t48 -2v1227q0 7 4.5 12t11 7t13.5 3t12 1z" />
    <glyph glyph-name="Ntilde" unicode="&#xd1;" horiz-adv-x="1911" 
d="M252 1546v-1767q0 -9 -6 -15t-15 -6q-10 0 -13 6.5t-3 14.5v1814q0 9 2.5 17t13.5 8q10 0 15 -4l1415 -1784v1765q0 7 4 15t12 8q21 0 21 -23v-1812q0 -9 -3 -17t-14 -8q-10 0 -16.5 7t-11.5 14zM846 1857q-31 0 -45.5 -10t-22.5 -25.5t-14 -35t-18 -37.5q-19 0 -19 20
q0 24 9 46t24.5 38.5t37 26.5t46.5 10q29 0 57.5 -13.5t57 -29.5t57 -29.5t57.5 -13.5q18 0 35 5.5t31 16t22.5 25.5t8.5 35q0 9 2.5 16.5t13.5 7.5q9 0 13 -7t4 -15q0 -26 -10.5 -47t-28.5 -37t-41 -24.5t-47 -8.5q-32 0 -60.5 13.5t-56 29.5t-55.5 29.5t-58 13.5z" />
    <glyph glyph-name="Ograve" unicode="&#xd2;" horiz-adv-x="2066" 
d="M137 692q0 -123 32.5 -237t91 -213.5t141 -181.5t182 -141t213.5 -91.5t237 -32.5q124 0 238.5 32t214 90.5t181 140.5t139.5 181.5t90 214t32 238.5q0 125 -31.5 240.5t-88.5 215.5t-138.5 181.5t-180.5 140t-214.5 90t-241.5 31.5q-124 0 -238.5 -32.5t-214 -91
t-181.5 -140.5t-140.5 -182t-90.5 -215t-32 -238zM100 692q0 130 33 249.5t94 223.5t146 189t188.5 145.5t223.5 93.5t249 33q131 0 251 -33t223.5 -93t188.5 -145t145 -189t93 -224t33 -250q0 -129 -33.5 -248.5t-94 -223t-146 -189t-189 -146t-223 -94t-248.5 -33.5
q-128 0 -246.5 33.5t-222.5 95t-189.5 147t-147 189.5t-95 222.5t-33.5 246.5zM1102 1712q0 -6 -4.5 -10.5t-10.5 -4.5q-3 0 -7.5 3.5t-6.5 5.5l-25.5 25l-45.5 44.5l-54 54.5l-52 54t-39.5 43.5t-15.5 23.5q0 6 5 9.5t10 3.5q10 0 16 -6l26.5 -26.5l45 -44.5l53.5 -53.5
l51.5 -53.5t38.5 -43.5t15 -24.5z" />
    <glyph glyph-name="Oacute" unicode="&#xd3;" horiz-adv-x="2066" 
d="M137 692q0 -123 32.5 -237t91 -213.5t141 -181.5t182 -141t213.5 -91.5t237 -32.5q124 0 238.5 32t214 90.5t181 140.5t139.5 181.5t90 214t32 238.5q0 125 -31.5 240.5t-88.5 215.5t-138.5 181.5t-180.5 140t-214.5 90t-241.5 31.5q-124 0 -238.5 -32.5t-214 -91
t-181.5 -140.5t-140.5 -182t-90.5 -215t-32 -238zM100 692q0 130 33 249.5t94 223.5t146 189t188.5 145.5t223.5 93.5t249 33q131 0 251 -33t223.5 -93t188.5 -145t145 -189t93 -224t33 -250q0 -129 -33.5 -248.5t-94 -223t-146 -189t-189 -146t-223 -94t-248.5 -33.5
q-128 0 -246.5 33.5t-222.5 95t-189.5 147t-147 189.5t-95 222.5t-33.5 246.5zM1212 1964q5 0 10 -3.5t5 -9.5q0 -5 -15.5 -23.5t-39.5 -44l-52 -54l-54 -54.5l-45.5 -45l-25.5 -25q-2 -2 -7 -5t-7 -3q-6 0 -10.5 4.5t-4.5 10.5t15 25t38.5 44l51 53l53 53l45.5 44.5
l27 26.5q6 6 16 6z" />
    <glyph glyph-name="Ocircumflex" unicode="&#xd4;" horiz-adv-x="2066" 
d="M137 692q0 -123 32.5 -237t91 -213.5t141 -181.5t182 -141t213.5 -91.5t237 -32.5q124 0 238.5 32t214 90.5t181 140.5t139.5 181.5t90 214t32 238.5q0 125 -31.5 240.5t-88.5 215.5t-138.5 181.5t-180.5 140t-214.5 90t-241.5 31.5q-124 0 -238.5 -32.5t-214 -91
t-181.5 -140.5t-140.5 -182t-90.5 -215t-32 -238zM100 692q0 130 33 249.5t94 223.5t146 189t188.5 145.5t223.5 93.5t249 33q131 0 251 -33t223.5 -93t188.5 -145t145 -189t93 -224t33 -250q0 -129 -33.5 -248.5t-94 -223t-146 -189t-189 -146t-223 -94t-248.5 -33.5
q-128 0 -246.5 33.5t-222.5 95t-189.5 147t-147 189.5t-95 222.5t-33.5 246.5zM1253 1714q0 -5 -5.5 -10t-10.5 -5t-20 14.5l-36 36t-44.5 48l-44.5 50l-37 42l-21 24.5l-21 -24l-37 -42l-44.5 -50l-44 -48t-36 -36.5t-20.5 -14.5q-6 0 -11 4.5t-5 10.5q0 7 12.5 24t32 39
l43 46.5l45.5 47l39 39.5t24 25q4 5 10.5 8.5t12.5 3.5t13.5 -3.5t11.5 -8.5q7 -8 24 -25l38.5 -39.5l44.5 -47l42.5 -46.5t32 -39t12.5 -24z" />
    <glyph glyph-name="Otilde" unicode="&#xd5;" horiz-adv-x="2066" 
d="M137 692q0 -123 32.5 -237t91 -213.5t141 -181.5t182 -141t213.5 -91.5t237 -32.5q124 0 238.5 32t214 90.5t181 140.5t139.5 181.5t90 214t32 238.5q0 125 -31.5 240.5t-88.5 215.5t-138.5 181.5t-180.5 140t-214.5 90t-241.5 31.5q-124 0 -238.5 -32.5t-214 -91
t-181.5 -140.5t-140.5 -182t-90.5 -215t-32 -238zM100 692q0 130 33 249.5t94 223.5t146 189t188.5 145.5t223.5 93.5t249 33q131 0 251 -33t223.5 -93t188.5 -145t145 -189t93 -224t33 -250q0 -129 -33.5 -248.5t-94 -223t-146 -189t-189 -146t-223 -94t-248.5 -33.5
q-128 0 -246.5 33.5t-222.5 95t-189.5 147t-147 189.5t-95 222.5t-33.5 246.5zM913 1857q-31 0 -45.5 -10t-22.5 -25.5t-14 -35t-18 -37.5q-19 0 -19 20q0 24 9 46t24.5 38.5t37 26.5t46.5 10q29 0 57.5 -13.5t57 -29.5t57 -29.5t57.5 -13.5q18 0 35 5.5t31 16t22.5 25.5
t8.5 35q0 9 2.5 16.5t13.5 7.5q9 0 13 -7t4 -15q0 -26 -10.5 -47t-28.5 -37t-41 -24.5t-47 -8.5q-32 0 -60.5 13.5t-56 29.5t-55.5 29.5t-58 13.5z" />
    <glyph glyph-name="Odieresis" unicode="&#xd6;" horiz-adv-x="2066" 
d="M137 692q0 -123 32.5 -237t91 -213.5t141 -181.5t182 -141t213.5 -91.5t237 -32.5q124 0 238.5 32t214 90.5t181 140.5t139.5 181.5t90 214t32 238.5q0 125 -31.5 240.5t-88.5 215.5t-138.5 181.5t-180.5 140t-214.5 90t-241.5 31.5q-124 0 -238.5 -32.5t-214 -91
t-181.5 -140.5t-140.5 -182t-90.5 -215t-32 -238zM100 692q0 130 33 249.5t94 223.5t146 189t188.5 145.5t223.5 93.5t249 33q131 0 251 -33t223.5 -93t188.5 -145t145 -189t93 -224t33 -250q0 -129 -33.5 -248.5t-94 -223t-146 -189t-189 -146t-223 -94t-248.5 -33.5
q-128 0 -246.5 33.5t-222.5 95t-189.5 147t-147 189.5t-95 222.5t-33.5 246.5zM1196 1863q20 0 34.5 -14.5t14.5 -34.5t-14.5 -34.5t-34.5 -14.5q-19 0 -35 15t-16 34t16 34t35 15zM874 1863q20 0 34.5 -14.5t14.5 -34.5t-14.5 -34.5t-34.5 -14.5q-18 0 -34.5 15.5
t-16.5 33.5t16.5 33.5t34.5 15.5z" />
    <glyph glyph-name="multiply" unicode="&#xd7;" horiz-adv-x="1706" 
d="M359 1136l500 -501l499 500l29 -29l-500 -500l499 -498l-29 -29l-499 499l-499 -499l-28 30l499 497l-500 500z" />
    <glyph glyph-name="Oslash" unicode="&#xd8;" horiz-adv-x="2066" 
d="M494 -20q124 -87 256 -136t284 -49q124 0 238.5 32t214 90.5t181 140.5t139.5 181.5t90 214t32 238.5q0 229 -97 419t-284 323zM467 -2l1053 1454q-114 69 -233 104t-253 35q-124 0 -238.5 -32t-214 -91t-181.5 -141t-140.5 -182t-90.5 -214.5t-32 -238.5
q0 -99 22.5 -196.5t65 -187t103.5 -168.5t139 -142zM467 -51q-7 -9 -23.5 -32.5l-37.5 -53.5l-44.5 -62.5l-44.5 -60.5t-37 -47.5t-22 -22.5q-16 0 -16 15q0 3 13.5 23.5l34 49.5l44.5 63l46 65l38.5 53.5l21.5 29.5q-80 67 -143.5 149t-107 175t-66.5 194t-23 205
q0 129 33 249t93.5 223.5t145.5 188.5t189 146t223.5 94t249.5 33q139 0 263 -36.5t243 -108.5q5 6 19.5 27l34 48l41.5 56.5l41 54.5t33 41t17 16q17 0 17 -16q0 -3 -11.5 -20.5t-29.5 -42.5l-39.5 -54l-40.5 -55l-34 -46t-19 -26q94 -71 168.5 -155.5t125.5 -182
t78 -206.5t27 -228q0 -129 -33.5 -248t-94.5 -223t-146 -189t-189 -146t-223 -94.5t-248 -33.5q-159 0 -297.5 51t-269.5 140z" />
    <glyph glyph-name="Ugrave" unicode="&#xd9;" horiz-adv-x="1878" 
d="M1692 510q0 -73 -7.5 -146.5t-30.5 -143.5q-36 -111 -110.5 -197.5t-172 -146.5t-210 -91t-223.5 -31q-112 0 -224 31t-209 91t-171 146.5t-111 197.5q-23 70 -31 143.5t-8 146.5v1085q0 9 6 15t15 6q11 0 14.5 -6t3.5 -15v-1079q0 -72 7 -145.5t30 -142.5
q34 -105 105 -187t163 -138t198 -85t212 -29q105 0 211.5 29t198.5 85t163 137t106 186q23 69 30.5 143.5t7.5 146.5v1079q0 9 5.5 15t14.5 6q11 0 14 -5.5t3 -15.5v-1085zM1008 1712q0 -6 -4.5 -10.5t-10.5 -4.5q-3 0 -7.5 3.5t-6.5 5.5l-25.5 25l-45.5 44.5l-54 54.5
l-52 54t-39.5 43.5t-15.5 23.5q0 6 5 9.5t10 3.5q10 0 16 -6l26.5 -26.5l45 -44.5l53.5 -53.5l51.5 -53.5t38.5 -43.5t15 -24.5z" />
    <glyph glyph-name="Uacute" unicode="&#xda;" horiz-adv-x="1878" 
d="M1692 510q0 -73 -7.5 -146.5t-30.5 -143.5q-36 -111 -110.5 -197.5t-172 -146.5t-210 -91t-223.5 -31q-112 0 -224 31t-209 91t-171 146.5t-111 197.5q-23 70 -31 143.5t-8 146.5v1085q0 9 6 15t15 6q11 0 14.5 -6t3.5 -15v-1079q0 -72 7 -145.5t30 -142.5
q34 -105 105 -187t163 -138t198 -85t212 -29q105 0 211.5 29t198.5 85t163 137t106 186q23 69 30.5 143.5t7.5 146.5v1079q0 9 5.5 15t14.5 6q11 0 14 -5.5t3 -15.5v-1085zM1118 1964q5 0 10 -3.5t5 -9.5q0 -5 -15.5 -23.5t-39.5 -44l-52 -54l-54 -54.5l-45.5 -45l-25.5 -25
q-2 -2 -7 -5t-7 -3q-6 0 -10.5 4.5t-4.5 10.5t15 25t38.5 44l51 53l53 53l45.5 44.5l27 26.5q6 6 16 6z" />
    <glyph glyph-name="Ucircumflex" unicode="&#xdb;" horiz-adv-x="1878" 
d="M1692 510q0 -73 -7.5 -146.5t-30.5 -143.5q-36 -111 -110.5 -197.5t-172 -146.5t-210 -91t-223.5 -31q-112 0 -224 31t-209 91t-171 146.5t-111 197.5q-23 70 -31 143.5t-8 146.5v1085q0 9 6 15t15 6q11 0 14.5 -6t3.5 -15v-1079q0 -72 7 -145.5t30 -142.5
q34 -105 105 -187t163 -138t198 -85t212 -29q105 0 211.5 29t198.5 85t163 137t106 186q23 69 30.5 143.5t7.5 146.5v1079q0 9 5.5 15t14.5 6q11 0 14 -5.5t3 -15.5v-1085zM1159 1714q0 -5 -5.5 -10t-10.5 -5t-20 14.5l-36 36t-44.5 48l-44.5 50l-36.5 42t-21.5 24.5
l-21 -24l-37 -42l-44.5 -50l-44 -48t-36 -36.5t-20.5 -14.5q-6 0 -11 4.5t-5 10.5q0 7 12.5 24t32 39l43 46.5l45.5 47l39 39.5t24 25q4 5 10.5 8.5t12.5 3.5t13.5 -3.5t11.5 -8.5q7 -8 24 -25l38.5 -39.5l44.5 -47l42.5 -46.5t32 -39t12.5 -24z" />
    <glyph glyph-name="Udieresis" unicode="&#xdc;" horiz-adv-x="1878" 
d="M1692 510q0 -73 -7.5 -146.5t-30.5 -143.5q-36 -111 -110.5 -197.5t-172 -146.5t-210 -91t-223.5 -31q-112 0 -224 31t-209 91t-171 146.5t-111 197.5q-23 70 -31 143.5t-8 146.5v1085q0 9 6 15t15 6q11 0 14.5 -6t3.5 -15v-1079q0 -72 7 -145.5t30 -142.5
q34 -105 105 -187t163 -138t198 -85t212 -29q105 0 211.5 29t198.5 85t163 137t106 186q23 69 30.5 143.5t7.5 146.5v1079q0 9 5.5 15t14.5 6q11 0 14 -5.5t3 -15.5v-1085zM1102 1863q20 0 34.5 -14.5t14.5 -34.5t-14.5 -34.5t-34.5 -14.5q-19 0 -35 15t-16 34t16 34t35 15z
M780 1863q20 0 34.5 -14.5t14.5 -34.5t-14.5 -34.5t-34.5 -14.5q-18 0 -34.5 15.5t-16.5 33.5t16.5 33.5t34.5 15.5z" />
    <glyph glyph-name="Yacute" unicode="&#xdd;" horiz-adv-x="1593" 
d="M795 -242q-11 0 -14 6t-3 15v907l-65 81.5l-98.5 122l-119 147l-126.5 156.5l-120.5 150.5l-102 128.5l-71 90.5t-26.5 36.5q0 7 6.5 12t12.5 5l14 -6l715 -889l712 889q2 2 8 4t9 2q7 0 12.5 -5t5.5 -12q0 -2 -26.5 -36.5l-70.5 -90.5l-102 -128.5l-121 -150.5
l-126 -156.5l-118.5 -147l-99 -122l-65.5 -81.5v-907q0 -9 -5.5 -15t-14.5 -6zM975 1964q5 0 10 -3.5t5 -9.5q0 -5 -15.5 -23.5t-39.5 -44l-52 -54l-54 -54.5l-45.5 -45l-25.5 -25q-2 -2 -7 -5t-7 -3q-6 0 -10.5 4.5t-4.5 10.5t15 25t38.5 44l51 53l53 53l45.5 44.5l27 26.5
q6 6 16 6z" />
    <glyph glyph-name="Thorn" unicode="&#xde;" horiz-adv-x="1597" 
d="M252 142l62.5 -2t62.5 -1h151h93q72 0 146 2t146.5 11t142 26.5t132.5 48t117.5 76.5t98.5 112q85 127 85 281q0 114 -34.5 199.5t-94 147t-139.5 102t-170.5 64t-187 33t-189.5 9.5h-422v-1109zM231 -242q-9 0 -13.5 6.5t-4.5 14.5v1812q0 8 5.5 14.5t14.5 6.5t14 -6
t5 -15v-305h375q105 0 216 -6t215.5 -32t197.5 -78t163 -144q55 -72 81 -155.5t26 -174.5q0 -75 -20.5 -147t-59.5 -136q-48 -78 -110 -131.5t-134.5 -88t-152.5 -52.5t-163.5 -26.5t-167.5 -9.5t-165 -1h-301v-325q0 -9 -6 -15t-15 -6z" />
    <glyph glyph-name="germandbls" unicode="&#xdf;" horiz-adv-x="811" 
d="M160 -389q-11 0 -14 5t-3 15v1667q0 60 10.5 117t37.5 100.5t72.5 70t115.5 26.5q57 0 101 -18.5t73 -51.5t44 -79t15 -101q0 -72 -25 -137t-62 -122t-81 -105.5l-81 -88.5t-62 -70.5t-25 -50.5q0 -24 34.5 -45.5t86 -46t112 -56.5t112 -76.5t86 -105.5t34.5 -145
q0 -68 -23 -127.5t-64 -103.5t-99 -70t-127 -26q-37 0 -70 10t-59 10q-4 3 -8 8.5t-4 10.5q0 11 9 14.5t17 3.5q25 0 55.5 -10t61.5 -10q60 0 110.5 23t87 62t57 91.5t20.5 111.5q0 80 -34.5 137.5t-87 99t-113 71l-113 54.5t-87 49t-34.5 54q0 29 25 64t63 76.5l81.5 89.5
t81.5 103.5t63 117.5t25 131q0 46 -12 86t-36 69.5t-60.5 46.5t-85.5 17q-63 0 -102 -23t-61 -61t-30 -87.5t-8 -102.5v-1672q0 -20 -20 -20z" />
    <glyph glyph-name="agrave" unicode="&#xe0;" horiz-adv-x="870" 
d="M686 551h-31q-53 0 -114.5 -11.5t-123.5 -34.5t-119 -56.5t-101 -77t-70.5 -97t-26.5 -116.5q0 -66 40.5 -102t103.5 -36q61 0 115 25t99.5 67t83.5 96.5t66.5 113.5t48 118.5t29.5 110.5zM723 16q0 -9 -3 -14.5t-13 -5.5q-9 0 -15 5.5t-6 14.5v412q-15 -46 -38 -97
t-54 -100t-69 -93.5t-82 -78t-94 -53.5t-105 -20q-82 0 -131.5 43.5t-49.5 128.5q0 66 27.5 123.5t73.5 105.5t105.5 86t124.5 64t130.5 39.5t122.5 13.5q9 0 22 0.5t25 -1.5t20.5 -8.5t8.5 -19.5v-545zM625 672q0 -6 -4.5 -10.5t-10.5 -4.5q-3 0 -7.5 3.5t-6.5 5.5
l-25.5 25l-45.5 44.5l-54 54.5l-52 54t-39.5 43.5t-15.5 23.5q0 6 5 9.5t10 3.5q10 0 16 -6l26.5 -26.5l45 -44.5l53.5 -53.5l51.5 -53.5t38.5 -43.5t15 -24.5z" />
    <glyph glyph-name="aacute" unicode="&#xe1;" horiz-adv-x="870" 
d="M686 551h-31q-53 0 -114.5 -11.5t-123.5 -34.5t-119 -56.5t-101 -77t-70.5 -97t-26.5 -116.5q0 -66 40.5 -102t103.5 -36q61 0 115 25t99.5 67t83.5 96.5t66.5 113.5t48 118.5t29.5 110.5zM723 16q0 -9 -3 -14.5t-13 -5.5q-9 0 -15 5.5t-6 14.5v412q-15 -46 -38 -97
t-54 -100t-69 -93.5t-82 -78t-94 -53.5t-105 -20q-82 0 -131.5 43.5t-49.5 128.5q0 66 27.5 123.5t73.5 105.5t105.5 86t124.5 64t130.5 39.5t122.5 13.5q9 0 22 0.5t25 -1.5t20.5 -8.5t8.5 -19.5v-545zM735 924q5 0 10 -3.5t5 -9.5q0 -5 -15.5 -23.5t-39.5 -44l-52 -54
l-54 -54.5l-45.5 -45l-25.5 -25q-2 -2 -7 -5t-7 -3q-6 0 -10.5 4.5t-4.5 10.5t15 25t38.5 44l51 53l53 53l45.5 44.5l27 26.5q6 6 16 6z" />
    <glyph glyph-name="acircumflex" unicode="&#xe2;" horiz-adv-x="870" 
d="M686 551h-31q-53 0 -114.5 -11.5t-123.5 -34.5t-119 -56.5t-101 -77t-70.5 -97t-26.5 -116.5q0 -66 40.5 -102t103.5 -36q61 0 115 25t99.5 67t83.5 96.5t66.5 113.5t48 118.5t29.5 110.5zM723 16q0 -9 -3 -14.5t-13 -5.5q-9 0 -15 5.5t-6 14.5v412q-15 -46 -38 -97
t-54 -100t-69 -93.5t-82 -78t-94 -53.5t-105 -20q-82 0 -131.5 43.5t-49.5 128.5q0 66 27.5 123.5t73.5 105.5t105.5 86t124.5 64t130.5 39.5t122.5 13.5q9 0 22 0.5t25 -1.5t20.5 -8.5t8.5 -19.5v-545zM776 674q0 -5 -5.5 -10t-10.5 -5t-20 14.5l-36 36t-44.5 48l-44.5 50
l-37 42l-21 24.5l-21 -24l-37 -42l-44.5 -50l-44 -48t-36 -36.5t-20.5 -14.5q-6 0 -11 4.5t-5 10.5q0 7 12.5 24t32 39l43 46.5l45.5 47l39 39.5t24 25q4 5 10.5 8.5t12.5 3.5t13.5 -3.5t11.5 -8.5q7 -8 24 -25l38.5 -39.5l44.5 -47l42.5 -46.5t32 -39t12.5 -24z" />
    <glyph glyph-name="atilde" unicode="&#xe3;" horiz-adv-x="870" 
d="M686 551h-31q-53 0 -114.5 -11.5t-123.5 -34.5t-119 -56.5t-101 -77t-70.5 -97t-26.5 -116.5q0 -66 40.5 -102t103.5 -36q61 0 115 25t99.5 67t83.5 96.5t66.5 113.5t48 118.5t29.5 110.5zM723 16q0 -9 -3 -14.5t-13 -5.5q-9 0 -15 5.5t-6 14.5v412q-15 -46 -38 -97
t-54 -100t-69 -93.5t-82 -78t-94 -53.5t-105 -20q-82 0 -131.5 43.5t-49.5 128.5q0 66 27.5 123.5t73.5 105.5t105.5 86t124.5 64t130.5 39.5t122.5 13.5q9 0 22 0.5t25 -1.5t20.5 -8.5t8.5 -19.5v-545zM436 817q-31 0 -45.5 -10t-22.5 -25.5t-14 -35t-18 -37.5
q-19 0 -19 20q0 24 9 46t24.5 38.5t37 26.5t46.5 10q29 0 57.5 -13.5t57 -29.5t57 -29.5t57.5 -13.5q18 0 35 5.5t31 16t22.5 25.5t8.5 35q0 9 2.5 16.5t13.5 7.5q9 0 13 -7t4 -15q0 -26 -10.5 -47t-28.5 -37t-41 -24.5t-47 -8.5q-32 0 -60.5 13.5t-56 29.5t-55.5 29.5
t-58 13.5z" />
    <glyph glyph-name="adieresis" unicode="&#xe4;" horiz-adv-x="870" 
d="M686 551h-31q-53 0 -114.5 -11.5t-123.5 -34.5t-119 -56.5t-101 -77t-70.5 -97t-26.5 -116.5q0 -66 40.5 -102t103.5 -36q61 0 115 25t99.5 67t83.5 96.5t66.5 113.5t48 118.5t29.5 110.5zM723 16q0 -9 -3 -14.5t-13 -5.5q-9 0 -15 5.5t-6 14.5v412q-15 -46 -38 -97
t-54 -100t-69 -93.5t-82 -78t-94 -53.5t-105 -20q-82 0 -131.5 43.5t-49.5 128.5q0 66 27.5 123.5t73.5 105.5t105.5 86t124.5 64t130.5 39.5t122.5 13.5q9 0 22 0.5t25 -1.5t20.5 -8.5t8.5 -19.5v-545zM719 823q20 0 34.5 -14.5t14.5 -34.5t-14.5 -34.5t-34.5 -14.5
q-19 0 -35 15t-16 34t16 34t35 15zM397 823q20 0 34.5 -14.5t14.5 -34.5t-14.5 -34.5t-34.5 -14.5q-18 0 -34.5 15.5t-16.5 33.5t16.5 33.5t34.5 15.5z" />
    <glyph glyph-name="aring" unicode="&#xe5;" horiz-adv-x="870" 
d="M526 979q-32 0 -59 -11t-46.5 -31t-30.5 -47t-11 -59q0 -31 11.5 -57.5t31.5 -46t46.5 -30.5t57.5 -11q30 0 56.5 11.5t46.5 31t31.5 46t11.5 56.5q0 31 -11 58t-30.5 47t-46.5 31.5t-58 11.5zM524 1012q37 0 69.5 -14.5t57.5 -39.5t39.5 -57.5t14.5 -69.5t-14.5 -69.5
t-39 -56.5t-57.5 -38t-70 -14t-69.5 14t-56.5 38t-38 56.5t-14 69.5t13.5 70t37.5 57.5t56.5 39t70.5 14.5zM723 16q0 -9 -3 -14.5t-13 -5.5q-9 0 -15 5.5t-6 14.5v412q-15 -46 -38 -97t-54 -100t-69 -93.5t-82 -78t-94 -53.5t-105 -20q-82 0 -131.5 43.5t-49.5 128.5
q0 66 27.5 123.5t73.5 105.5t105.5 86t124.5 64t130.5 39.5t122.5 13.5q9 0 22 0.5t25 -1.5t20.5 -8.5t8.5 -19.5v-545zM686 551h-31q-53 0 -114.5 -11.5t-123.5 -34.5t-119 -56.5t-101 -77t-70.5 -97t-26.5 -116.5q0 -66 40.5 -102t103.5 -36q61 0 115 25t99.5 67
t83.5 96.5t66.5 113.5t48 118.5t29.5 110.5z" />
    <glyph glyph-name="ae" unicode="&#xe6;" horiz-adv-x="1346" 
d="M686 551h-31q-53 0 -114.5 -11.5t-123.5 -34.5t-119 -56.5t-101 -77t-70.5 -97t-26.5 -116.5q0 -66 40.5 -102t103.5 -36q61 0 115 25t99.5 67t83.5 96.5t66.5 113.5t48 118.5t29.5 110.5zM723 320l514 -1q-5 51 -26 94t-55 74t-78.5 48.5t-96.5 17.5q-51 0 -96 -17
t-79.5 -48t-56.5 -74t-26 -94zM688 428q-24 -69 -65.5 -146.5t-98 -143.5t-127 -109t-153.5 -43q-82 0 -131.5 43.5t-49.5 128.5q0 66 27.5 124t73.5 106t106 85.5t125 63.5t131 39.5t123 13.5q47 0 62 -9.5t15 -34.5q0 -18 -3.5 -45.5t-5.5 -68.5q44 76 113 117t157 41
q57 0 109 -22t91.5 -60.5t63 -89.5t23.5 -109q0 -26 -27 -26h-522q0 -62 19 -110t53.5 -81.5t83.5 -51t110 -17.5q58 0 101 17t73 38t48.5 38t27.5 17q16 0 16 -16q0 -13 -12 -23q-29 -29 -58.5 -49t-61 -33.5t-66.5 -19.5t-76 -6q-75 0 -131 24t-92.5 67t-55 103t-18.5 131
q0 29 0.5 58.5t1.5 58.5z" />
    <glyph glyph-name="ccedilla" unicode="&#xe7;" horiz-adv-x="711" 
d="M637 98q7 0 10.5 -6.5t3.5 -11.5q0 -13 -15 -25t-38 -22t-51 -19t-54.5 -15t-48.5 -9.5t-32 -3.5q-68 0 -130 20t-108.5 58.5t-74 95t-27.5 129.5q0 64 26.5 119t70.5 95t102 62.5t120 22.5q10 0 33.5 -2.5t52.5 -8t59.5 -13t56 -17.5t42 -21.5t16.5 -25.5
q0 -6 -3.5 -11.5t-10.5 -5.5q-1 0 -22.5 10.5t-56 23.5t-77 23.5t-84.5 10.5q-57 0 -109 -18.5t-92 -52.5t-63.5 -82.5t-23.5 -108.5q0 -63 25.5 -112t68 -83.5t97 -52.5t112.5 -18q46 0 85.5 11.5t69 26t48 26t22.5 11.5zM361 0h30v-111q37 0 75.5 -4t69.5 -18t50.5 -42.5
t19.5 -76.5q0 -42 -16.5 -71t-43.5 -47t-62 -25.5t-72 -7.5q-7 0 -25 0.5t-41 2.5t-47.5 5t-45 7.5t-33.5 11.5t-13 16q2 4 5.5 8t8.5 4t11 -1.5t11 -2.5q44 -10 87 -15.5t88 -5.5q30 0 58 6t50.5 20.5t36 37.5t13.5 57q0 38 -12.5 60t-33.5 33.5t-47.5 15t-54.5 3.5
q-14 0 -27.5 -0.5t-27.5 -0.5q-8 0 -10 4t-2 12v125z" />
    <glyph glyph-name="egrave" unicode="&#xe8;" horiz-adv-x="731" 
d="M111 320l512 -1q-5 51 -26 94t-55 74t-78.5 48.5t-96.5 17.5q-51 0 -95.5 -17.5t-79 -48t-56 -73.5t-25.5 -94zM111 283q0 -62 19 -110t53.5 -81.5t83.5 -51t110 -17.5q58 0 100.5 17t72.5 38t48.5 38t28.5 17q16 0 16 -16q0 -7 -3.5 -12.5t-8.5 -10.5
q-58 -57 -119 -82.5t-143 -25.5q-69 0 -124 21.5t-93.5 61.5t-59 96t-20.5 124q0 65 22.5 120.5t62.5 95.5t95.5 62.5t120.5 22.5q57 0 109 -22.5t91 -60.5t62.5 -89t23.5 -109q0 -26 -28 -26h-520zM435 672q0 -6 -4.5 -10.5t-10.5 -4.5q-3 0 -7.5 3.5t-6.5 5.5l-25.5 25
l-45.5 44.5l-54 54.5l-52 54t-39.5 43.5t-15.5 23.5q0 6 5 9.5t10 3.5q10 0 16 -6l26.5 -26.5l45 -44.5l53.5 -53.5l51.5 -53.5t38.5 -43.5t15 -24.5z" />
    <glyph glyph-name="eacute" unicode="&#xe9;" horiz-adv-x="731" 
d="M111 320l512 -1q-5 51 -26 94t-55 74t-78.5 48.5t-96.5 17.5q-51 0 -95.5 -17.5t-79 -48t-56 -73.5t-25.5 -94zM111 283q0 -62 19 -110t53.5 -81.5t83.5 -51t110 -17.5q58 0 100.5 17t72.5 38t48.5 38t28.5 17q16 0 16 -16q0 -7 -3.5 -12.5t-8.5 -10.5
q-58 -57 -119 -82.5t-143 -25.5q-69 0 -124 21.5t-93.5 61.5t-59 96t-20.5 124q0 65 22.5 120.5t62.5 95.5t95.5 62.5t120.5 22.5q57 0 109 -22.5t91 -60.5t62.5 -89t23.5 -109q0 -26 -28 -26h-520zM545 924q5 0 10 -3.5t5 -9.5q0 -5 -15.5 -23.5t-39.5 -44l-52 -54
l-54 -54.5l-45.5 -45l-25.5 -25q-2 -2 -7 -5t-7 -3q-6 0 -10.5 4.5t-4.5 10.5t15 25t38.5 44l51 53l53 53l45.5 44.5l27 26.5q6 6 16 6z" />
    <glyph glyph-name="ecircumflex" unicode="&#xea;" horiz-adv-x="731" 
d="M111 320l512 -1q-5 51 -26 94t-55 74t-78.5 48.5t-96.5 17.5q-51 0 -95.5 -17.5t-79 -48t-56 -73.5t-25.5 -94zM111 283q0 -62 19 -110t53.5 -81.5t83.5 -51t110 -17.5q58 0 100.5 17t72.5 38t48.5 38t28.5 17q16 0 16 -16q0 -7 -3.5 -12.5t-8.5 -10.5
q-58 -57 -119 -82.5t-143 -25.5q-69 0 -124 21.5t-93.5 61.5t-59 96t-20.5 124q0 65 22.5 120.5t62.5 95.5t95.5 62.5t120.5 22.5q57 0 109 -22.5t91 -60.5t62.5 -89t23.5 -109q0 -26 -28 -26h-520zM586 674q0 -5 -5.5 -10t-10.5 -5t-20 14.5l-36 36t-44.5 48l-44.5 50
l-37 42l-21 24.5l-21 -24l-37 -42l-44.5 -50l-44 -48t-36 -36.5t-20.5 -14.5q-6 0 -11 4.5t-5 10.5q0 7 12.5 24t32 39l43 46.5l45.5 47l39 39.5t24 25q4 5 10.5 8.5t12.5 3.5t13.5 -3.5t11.5 -8.5q7 -8 24 -25l38.5 -39.5l44.5 -47l42.5 -46.5t32 -39t12.5 -24z" />
    <glyph glyph-name="edieresis" unicode="&#xeb;" horiz-adv-x="731" 
d="M111 320l512 -1q-5 51 -26 94t-55 74t-78.5 48.5t-96.5 17.5q-51 0 -95.5 -17.5t-79 -48t-56 -73.5t-25.5 -94zM111 283q0 -62 19 -110t53.5 -81.5t83.5 -51t110 -17.5q58 0 100.5 17t72.5 38t48.5 38t28.5 17q16 0 16 -16q0 -7 -3.5 -12.5t-8.5 -10.5
q-58 -57 -119 -82.5t-143 -25.5q-69 0 -124 21.5t-93.5 61.5t-59 96t-20.5 124q0 65 22.5 120.5t62.5 95.5t95.5 62.5t120.5 22.5q57 0 109 -22.5t91 -60.5t62.5 -89t23.5 -109q0 -26 -28 -26h-520zM529 823q20 0 34.5 -14.5t14.5 -34.5t-14.5 -34.5t-34.5 -14.5
q-19 0 -35 15t-16 34t16 34t35 15zM207 823q20 0 34.5 -14.5t14.5 -34.5t-14.5 -34.5t-34.5 -14.5q-18 0 -34.5 15.5t-16.5 33.5t16.5 33.5t34.5 15.5z" />
    <glyph glyph-name="igrave" unicode="&#xec;" horiz-adv-x="356" 
d="M197 16q0 -8 -6.5 -14t-14.5 -6q-10 0 -13 5.5t-3 14.5v551q0 8 5.5 14.5t14.5 6.5q10 0 13.5 -8.5t3.5 -16.5v-547zM246 672q0 -6 -4.5 -10.5t-10.5 -4.5q-3 0 -7.5 3.5t-6.5 5.5l-25.5 25l-45.5 44.5l-54 54.5l-52 54t-39.5 43.5t-15.5 23.5q0 6 5 9.5t10 3.5
q10 0 16 -6l26.5 -26.5l45 -44.5l53.5 -53.5l51.5 -53.5t38.5 -43.5t15 -24.5z" />
    <glyph glyph-name="iacute" unicode="&#xed;" horiz-adv-x="356" 
d="M197 16q0 -8 -6.5 -14t-14.5 -6q-10 0 -13 5.5t-3 14.5v551q0 8 5.5 14.5t14.5 6.5q10 0 13.5 -8.5t3.5 -16.5v-547zM356 924q5 0 10 -3.5t5 -9.5q0 -5 -15.5 -23.5t-39.5 -44l-52 -54l-54 -54.5l-45.5 -45l-25.5 -25q-2 -2 -7 -5t-7 -3q-6 0 -10.5 4.5t-4.5 10.5t15 25
t38.5 44l51 53l53 53l45.5 44.5l27 26.5q6 6 16 6z" />
    <glyph glyph-name="icircumflex" unicode="&#xee;" horiz-adv-x="356" 
d="M197 16q0 -8 -6.5 -14t-14.5 -6q-10 0 -13 5.5t-3 14.5v551q0 8 5.5 14.5t14.5 6.5q10 0 13.5 -8.5t3.5 -16.5v-547zM397 674q0 -5 -5.5 -10t-10.5 -5t-20 14.5l-36 36t-44.5 48l-44.5 50l-36.5 42t-21.5 24.5l-21 -24l-37 -42l-44.5 -50l-44 -48t-36 -36.5t-20.5 -14.5
q-6 0 -11 4.5t-5 10.5q0 7 12.5 24t32 39l43 46.5l45.5 47l39 39.5t24 25q4 5 10.5 8.5t12.5 3.5t13.5 -3.5t11.5 -8.5q7 -8 24 -25l38.5 -39.5l44.5 -47l42.5 -46.5t32 -39t12.5 -24z" />
    <glyph glyph-name="idieresis" unicode="&#xef;" horiz-adv-x="356" 
d="M197 16q0 -8 -6.5 -14t-14.5 -6q-10 0 -13 5.5t-3 14.5v551q0 8 5.5 14.5t14.5 6.5q10 0 13.5 -8.5t3.5 -16.5v-547zM340 823q20 0 34.5 -14.5t14.5 -34.5t-14.5 -34.5t-34.5 -14.5q-19 0 -35 15t-16 34t16 34t35 15zM18 823q20 0 34.5 -14.5t14.5 -34.5t-14.5 -34.5
t-34.5 -14.5q-18 0 -34.5 15.5t-16.5 33.5t16.5 33.5t34.5 15.5z" />
    <glyph glyph-name="eth" unicode="&#xf0;" horiz-adv-x="743" 
d="M109 287q0 -54 21 -102t57 -84t84 -57t102 -21q55 0 103 20.5t83 56.5t55.5 84t20.5 103t-20 103.5t-55.5 84t-83.5 56t-103 20.5t-103 -20.5t-84 -56.5t-56.5 -84t-20.5 -103zM518 551l-166 258q-7 -3 -28.5 -11.5l-50 -20l-60 -24.5l-58.5 -23.5l-46.5 -17.5t-22.5 -7
q-16 0 -16 16q0 6 17 15.5t42.5 21t57 24l60.5 23l52 19t33 12.5q-4 5 -14.5 22t-25 38.5l-30.5 46l-29 45.5t-21.5 36t-8.5 18q0 8 5 13.5t13 5.5q5 0 16.5 -14t26.5 -35t31.5 -46.5l31.5 -49l26.5 -42t15.5 -24.5q6 2 28 11l50.5 20.5l60.5 24.5l59.5 23.5l46.5 17.5t21 7
q8 0 13 -3t5 -11q0 -6 -17 -16t-43.5 -22.5t-58.5 -25l-61.5 -24l-53 -20.5t-32.5 -13l213 -327q30 -46 52 -97t22 -108q0 -63 -23.5 -117.5t-64.5 -95.5t-96 -64.5t-117 -23.5t-116.5 24t-95.5 65t-65 95.5t-24 116.5q0 63 23.5 118t64 95.5t95.5 64t118 23.5q38 0 75 -9
t70 -28z" />
    <glyph glyph-name="ntilde" unicode="&#xf1;" horiz-adv-x="797" 
d="M162 -4q-11 0 -14 5t-3 15v551q0 9 6 15t15 6q11 0 15 -22t4 -49q0 -23 -1.5 -44t-1.5 -29q31 28 64.5 54t70 46t76 32t82.5 12q53 0 88 -18t56 -49t29.5 -72.5t8.5 -88.5v-344q0 -20 -20 -20q-19 0 -19 20v353q0 40 -7 73.5t-24 57.5t-46 37.5t-74 13.5q-41 0 -80 -14.5
t-75.5 -37.5t-69 -51t-60.5 -55v-377q0 -20 -20 -20zM285 817q-31 0 -45.5 -10t-22.5 -25.5t-14 -35t-18 -37.5q-19 0 -19 20q0 24 9 46t24.5 38.5t37 26.5t46.5 10q29 0 57.5 -13.5t57 -29.5t57 -29.5t57.5 -13.5q18 0 35 5.5t31 16t22.5 25.5t8.5 35q0 9 2.5 16.5
t13.5 7.5q9 0 13 -7t4 -15q0 -26 -10.5 -47t-28.5 -37t-41 -24.5t-47 -8.5q-32 0 -60.5 13.5t-56 29.5t-55.5 29.5t-58 13.5z" />
    <glyph glyph-name="ograve" unicode="&#xf2;" horiz-adv-x="743" 
d="M373 551q-55 0 -103 -20.5t-84 -56.5t-56.5 -84t-20.5 -103q0 -54 21 -102t57 -84t84 -57t102 -21q55 0 103 20.5t83 56.5t55.5 84t20.5 103q0 56 -20 104t-55 83.5t-83 56t-104 20.5zM373 588q63 0 118 -23t95.5 -63.5t64 -95.5t23.5 -119q0 -62 -23.5 -117t-64.5 -96
t-95.5 -64.5t-117.5 -23.5q-62 0 -116.5 24t-95.5 65t-65 95.5t-24 116.5q0 63 23.5 118t64.5 95.5t95.5 64t117.5 23.5zM441 672q0 -6 -4.5 -10.5t-10.5 -4.5q-3 0 -7.5 3.5t-6.5 5.5l-25.5 25l-45.5 44.5l-54 54.5l-52 54t-39.5 43.5t-15.5 23.5q0 6 5 9.5t10 3.5
q10 0 16 -6l26.5 -26.5l45 -44.5l53.5 -53.5l51.5 -53.5t38.5 -43.5t15 -24.5z" />
    <glyph glyph-name="oacute" unicode="&#xf3;" horiz-adv-x="743" 
d="M373 551q-55 0 -103 -20.5t-84 -56.5t-56.5 -84t-20.5 -103q0 -54 21 -102t57 -84t84 -57t102 -21q55 0 103 20.5t83 56.5t55.5 84t20.5 103q0 56 -20 104t-55 83.5t-83 56t-104 20.5zM373 588q63 0 118 -23t95.5 -63.5t64 -95.5t23.5 -119q0 -62 -23.5 -117t-64.5 -96
t-95.5 -64.5t-117.5 -23.5q-62 0 -116.5 24t-95.5 65t-65 95.5t-24 116.5q0 63 23.5 118t64.5 95.5t95.5 64t117.5 23.5zM551 924q5 0 10 -3.5t5 -9.5q0 -5 -15.5 -23.5t-39.5 -44l-52 -54l-54 -54.5l-45.5 -45l-25.5 -25q-2 -2 -7 -5t-7 -3q-6 0 -10.5 4.5t-4.5 10.5t15 25
t38.5 44l51 53l53 53l45.5 44.5l27 26.5q6 6 16 6z" />
    <glyph glyph-name="ocircumflex" unicode="&#xf4;" horiz-adv-x="743" 
d="M373 551q-55 0 -103 -20.5t-84 -56.5t-56.5 -84t-20.5 -103q0 -54 21 -102t57 -84t84 -57t102 -21q55 0 103 20.5t83 56.5t55.5 84t20.5 103q0 56 -20 104t-55 83.5t-83 56t-104 20.5zM373 588q63 0 118 -23t95.5 -63.5t64 -95.5t23.5 -119q0 -62 -23.5 -117t-64.5 -96
t-95.5 -64.5t-117.5 -23.5q-62 0 -116.5 24t-95.5 65t-65 95.5t-24 116.5q0 63 23.5 118t64.5 95.5t95.5 64t117.5 23.5zM592 674q0 -5 -5.5 -10t-10.5 -5t-20 14.5l-36 36t-44.5 48l-44.5 50l-37 42l-21 24.5l-21 -24l-37 -42l-44.5 -50l-44 -48t-36 -36.5t-20.5 -14.5
q-6 0 -11 4.5t-5 10.5q0 7 12.5 24t32 39l43 46.5l45.5 47l39 39.5t24 25q4 5 10.5 8.5t12.5 3.5t13.5 -3.5t11.5 -8.5q7 -8 24 -25l38.5 -39.5l44.5 -47l42.5 -46.5t32 -39t12.5 -24z" />
    <glyph glyph-name="otilde" unicode="&#xf5;" horiz-adv-x="743" 
d="M373 551q-55 0 -103 -20.5t-84 -56.5t-56.5 -84t-20.5 -103q0 -54 21 -102t57 -84t84 -57t102 -21q55 0 103 20.5t83 56.5t55.5 84t20.5 103q0 56 -20 104t-55 83.5t-83 56t-104 20.5zM373 588q63 0 118 -23t95.5 -63.5t64 -95.5t23.5 -119q0 -62 -23.5 -117t-64.5 -96
t-95.5 -64.5t-117.5 -23.5q-62 0 -116.5 24t-95.5 65t-65 95.5t-24 116.5q0 63 23.5 118t64.5 95.5t95.5 64t117.5 23.5zM252 817q-31 0 -45.5 -10t-22.5 -25.5t-14 -35t-18 -37.5q-19 0 -19 20q0 24 9 46t24.5 38.5t37 26.5t46.5 10q29 0 57.5 -13.5t57 -29.5t57 -29.5
t57.5 -13.5q18 0 35 5.5t31 16t22.5 25.5t8.5 35q0 9 2.5 16.5t13.5 7.5q9 0 13 -7t4 -15q0 -26 -10.5 -47t-28.5 -37t-41 -24.5t-47 -8.5q-32 0 -60.5 13.5t-56 29.5t-55.5 29.5t-58 13.5z" />
    <glyph glyph-name="odieresis" unicode="&#xf6;" horiz-adv-x="743" 
d="M373 551q-55 0 -103 -20.5t-84 -56.5t-56.5 -84t-20.5 -103q0 -54 21 -102t57 -84t84 -57t102 -21q55 0 103 20.5t83 56.5t55.5 84t20.5 103q0 56 -20 104t-55 83.5t-83 56t-104 20.5zM373 588q63 0 118 -23t95.5 -63.5t64 -95.5t23.5 -119q0 -62 -23.5 -117t-64.5 -96
t-95.5 -64.5t-117.5 -23.5q-62 0 -116.5 24t-95.5 65t-65 95.5t-24 116.5q0 63 23.5 118t64.5 95.5t95.5 64t117.5 23.5zM535 823q20 0 34.5 -14.5t14.5 -34.5t-14.5 -34.5t-34.5 -14.5q-19 0 -35 15t-16 34t16 34t35 15zM213 823q20 0 34.5 -14.5t14.5 -34.5t-14.5 -34.5
t-34.5 -14.5q-18 0 -34.5 15.5t-16.5 33.5t16.5 33.5t34.5 15.5z" />
    <glyph glyph-name="divide" unicode="&#xf7;" horiz-adv-x="1706" 
d="M860 343q34 0 57 -22.5t23 -56.5q0 -16 -6.5 -30.5t-17.5 -26t-25.5 -18t-30.5 -6.5t-30.5 6.5t-26 17t-18 25t-6.5 30.5q0 33 24 57t57 24zM264 626h1191v-37h-1191v37zM860 1031q16 0 31 -6.5t25.5 -18t17 -26t6.5 -30.5q0 -34 -23 -56.5t-57 -22.5q-33 0 -57 22.5
t-24 56.5q0 16 6.5 30.5t18 26t26 18t30.5 6.5z" />
    <glyph glyph-name="oslash" unicode="&#xf8;" horiz-adv-x="743" 
d="M504 516q-58 35 -131 35q-55 0 -103 -20.5t-83 -56.5t-55.5 -84t-20.5 -103t24 -105t62 -88zM221 74q34 -24 72 -37.5t80 -13.5q55 0 103 20.5t83 56.5t55.5 84t20.5 103q0 30 -6.5 61t-19.5 58.5t-33 51t-46 40.5zM201 43q-6 -8 -17.5 -26l-25 -37.5t-26 -35.5
t-19.5 -20q-6 0 -13.5 3.5t-7.5 11.5q0 4 11.5 21.5l26 38.5l27.5 39.5l17 24.5q-46 44 -74 102t-28 122q0 62 23.5 117t64.5 96t96 64.5t117 23.5q42 0 79.5 -11.5t73.5 -31.5l16.5 24l22 31t23 29t20.5 16q17 0 17 -16q0 -4 -9.5 -19t-22 -32l-24 -32t-14.5 -20
q57 -43 88 -105t31 -134q0 -63 -23.5 -117.5t-64.5 -95t-96 -63.5t-117 -23q-48 0 -90.5 13t-81.5 42z" />
    <glyph glyph-name="ugrave" unicode="&#xf9;" horiz-adv-x="782" 
d="M135 266v301q0 9 6 15t15 6q11 0 13.5 -8.5t2.5 -16.5v-280q0 -57 11 -104.5t36.5 -82t67.5 -54t104 -19.5t104 19.5t67 54t35.5 82t10.5 104.5v284q0 9 7.5 15t15.5 6q11 0 13.5 -8.5t2.5 -16.5v-297q0 -63 -15.5 -114.5t-47 -88t-79.5 -57t-114 -20.5t-114.5 20.5
t-80 57t-46.5 88t-15 114.5zM459 672q0 -6 -4.5 -10.5t-10.5 -4.5q-3 0 -7.5 3.5t-6.5 5.5l-25.5 25l-45.5 44.5l-54 54.5l-52 54t-39.5 43.5t-15.5 23.5q0 6 5 9.5t10 3.5q10 0 16 -6l26.5 -26.5l45 -44.5l53.5 -53.5l51.5 -53.5t38.5 -43.5t15 -24.5z" />
    <glyph glyph-name="uacute" unicode="&#xfa;" horiz-adv-x="782" 
d="M135 266v301q0 9 6 15t15 6q11 0 13.5 -8.5t2.5 -16.5v-280q0 -57 11 -104.5t36.5 -82t67.5 -54t104 -19.5t104 19.5t67 54t35.5 82t10.5 104.5v284q0 9 7.5 15t15.5 6q11 0 13.5 -8.5t2.5 -16.5v-297q0 -63 -15.5 -114.5t-47 -88t-79.5 -57t-114 -20.5t-114.5 20.5
t-80 57t-46.5 88t-15 114.5zM569 924q5 0 10 -3.5t5 -9.5q0 -5 -15.5 -23.5t-39.5 -44l-52 -54l-54 -54.5l-45.5 -45l-25.5 -25q-2 -2 -7 -5t-7 -3q-6 0 -10.5 4.5t-4.5 10.5t15 25t38.5 44l51 53l53 53l45.5 44.5l27 26.5q6 6 16 6z" />
    <glyph glyph-name="ucircumflex" unicode="&#xfb;" horiz-adv-x="782" 
d="M135 266v301q0 9 6 15t15 6q11 0 13.5 -8.5t2.5 -16.5v-280q0 -57 11 -104.5t36.5 -82t67.5 -54t104 -19.5t104 19.5t67 54t35.5 82t10.5 104.5v284q0 9 7.5 15t15.5 6q11 0 13.5 -8.5t2.5 -16.5v-297q0 -63 -15.5 -114.5t-47 -88t-79.5 -57t-114 -20.5t-114.5 20.5
t-80 57t-46.5 88t-15 114.5zM610 674q0 -5 -5.5 -10t-10.5 -5t-20 14.5l-36 36t-44.5 48l-44.5 50l-37 42l-21 24.5l-21 -24l-37 -42l-44.5 -50l-44 -48t-36 -36.5t-20.5 -14.5q-6 0 -11 4.5t-5 10.5q0 7 12.5 24t32 39l43 46.5l45.5 47l39 39.5t24 25q4 5 10.5 8.5
t12.5 3.5t13.5 -3.5t11.5 -8.5q7 -8 24 -25l38.5 -39.5l44.5 -47l42.5 -46.5t32 -39t12.5 -24z" />
    <glyph glyph-name="udieresis" unicode="&#xfc;" horiz-adv-x="782" 
d="M135 266v301q0 9 6 15t15 6q11 0 13.5 -8.5t2.5 -16.5v-280q0 -57 11 -104.5t36.5 -82t67.5 -54t104 -19.5t104 19.5t67 54t35.5 82t10.5 104.5v284q0 9 7.5 15t15.5 6q11 0 13.5 -8.5t2.5 -16.5v-297q0 -63 -15.5 -114.5t-47 -88t-79.5 -57t-114 -20.5t-114.5 20.5
t-80 57t-46.5 88t-15 114.5zM553 823q20 0 34.5 -14.5t14.5 -34.5t-14.5 -34.5t-34.5 -14.5q-19 0 -35 15t-16 34t16 34t35 15zM231 823q20 0 34.5 -14.5t14.5 -34.5t-14.5 -34.5t-34.5 -14.5q-18 0 -34.5 15.5t-16.5 33.5t16.5 33.5t34.5 15.5z" />
    <glyph glyph-name="yacute" unicode="&#xfd;" horiz-adv-x="748" 
d="M551 68q-49 -32 -103 -57t-114 -25q-63 0 -102 24.5t-60.5 64t-29 90t-7.5 103.5v299q0 9 6 15t15 6q11 0 13.5 -6t2.5 -15v-301q0 -42 6 -85.5t23.5 -79t49 -58.5t83.5 -23q60 0 114 25.5t103 56.5v465q0 8 6 14.5t14 6.5q11 0 14 -5.5t3 -15.5v-442l30.5 22t34.5 15
q4 -2 7.5 -6t3.5 -9q0 -6 -11 -15.5t-24.5 -18.5t-25.5 -16t-15 -9v-324q0 -72 -40.5 -112.5t-111.5 -40.5q-8 0 -13 3t-5 13q0 14 13 14.5t22 0.5q35 0 55 16.5t29.5 41.5t11.5 55t2 57v256zM553 924q5 0 10 -3.5t5 -9.5q0 -5 -15.5 -23.5t-39.5 -44l-52 -54l-54 -54.5
l-45.5 -45l-25.5 -25q-2 -2 -7 -5t-7 -3q-6 0 -10.5 4.5t-4.5 10.5t15 25t38.5 44l51 53l53 53l45.5 44.5l27 26.5q6 6 16 6z" />
    <glyph glyph-name="thorn" unicode="&#xfe;" horiz-adv-x="729" 
d="M180 479v-397q34 -27 72 -42t82 -15q63 0 115.5 24t90.5 65.5t59.5 96t21.5 115.5q0 50 -14 91.5t-41 71t-66.5 46t-91.5 16.5q-62 0 -119 -20t-109 -52zM160 -389q-11 0 -14 5t-3 15v824q-3 -2 -12 -8.5l-19.5 -13.5t-19.5 -12t-12 -5q-14 0 -14 16q0 10 9.5 20t22 19
t25.5 16l20 11v1093q0 9 5 15t14 6q11 0 14.5 -6t3.5 -15v-1071q56 30 112 49t120 19q57 0 103 -19.5t78 -54t49 -81.5t17 -103q0 -69 -23.5 -131t-66 -108.5t-101.5 -73.5t-130 -27q-45 0 -83.5 11t-74.5 38v-408q0 -20 -20 -20z" />
    <glyph glyph-name="ydieresis" unicode="&#xff;" horiz-adv-x="748" 
d="M551 68q-49 -32 -103 -57t-114 -25q-63 0 -102 24.5t-60.5 64t-29 90t-7.5 103.5v299q0 9 6 15t15 6q11 0 13.5 -6t2.5 -15v-301q0 -42 6 -85.5t23.5 -79t49 -58.5t83.5 -23q60 0 114 25.5t103 56.5v465q0 8 6 14.5t14 6.5q11 0 14 -5.5t3 -15.5v-442l30.5 22t34.5 15
q4 -2 7.5 -6t3.5 -9q0 -6 -11 -15.5t-24.5 -18.5t-25.5 -16t-15 -9v-324q0 -72 -40.5 -112.5t-111.5 -40.5q-8 0 -13 3t-5 13q0 14 13 14.5t22 0.5q35 0 55 16.5t29.5 41.5t11.5 55t2 57v256zM537 823q20 0 34.5 -14.5t14.5 -34.5t-14.5 -34.5t-34.5 -14.5q-19 0 -35 15
t-16 34t16 34t35 15zM215 823q20 0 34.5 -14.5t14.5 -34.5t-14.5 -34.5t-34.5 -14.5q-18 0 -34.5 15.5t-16.5 33.5t16.5 33.5t34.5 15.5z" />
    <glyph glyph-name="Amacron" unicode="&#x100;" horiz-adv-x="1976" 
d="M381 360h1214l-604 1201zM362 324l-284 -560q-2 -2 -7 -6t-8 -4q-8 0 -14 5.5t-6 13.5q0 2 11 25l29.5 59.5l42 83l48.5 95.5l50 97l45.5 87.5l34.5 67.5l18 36h-187q-20 0 -20 20q0 10 5.5 13t14.5 3h205l631 1235q2 5 6.5 13t11.5 8q10 0 16.5 -6.5t10.5 -14.5
q9 -19 41 -81l79 -155.5l106 -210.5l124 -245.5l132 -262l130 -258.5l118.5 -235l97 -192.5l65.5 -130.5t24 -49q0 -8 -5.5 -15.5t-14.5 -7.5q-5 2 -19.5 25.5t-35 60.5l-45 84l-49.5 97.5l-49.5 100l-45 91l-35 72t-20.5 41.5h-1252zM1185 1808q7 0 13.5 -4t6.5 -12
q0 -11 -7.5 -14t-16.5 -3h-390q-7 0 -13.5 4.5t-6.5 12.5t6.5 12t13.5 4h394z" />
    <glyph glyph-name="amacron" unicode="&#x101;" horiz-adv-x="870" 
d="M686 551h-31q-53 0 -114.5 -11.5t-123.5 -34.5t-119 -56.5t-101 -77t-70.5 -97t-26.5 -116.5q0 -66 40.5 -102t103.5 -36q61 0 115 25t99.5 67t83.5 96.5t66.5 113.5t48 118.5t29.5 110.5zM723 16q0 -9 -3 -14.5t-13 -5.5q-9 0 -15 5.5t-6 14.5v412q-15 -46 -38 -97
t-54 -100t-69 -93.5t-82 -78t-94 -53.5t-105 -20q-82 0 -131.5 43.5t-49.5 128.5q0 66 27.5 123.5t73.5 105.5t105.5 86t124.5 64t130.5 39.5t122.5 13.5q9 0 22 0.5t25 -1.5t20.5 -8.5t8.5 -19.5v-545zM698 778q7 0 13.5 -4t6.5 -12q0 -11 -7.5 -14t-16.5 -3h-390
q-7 0 -13.5 4.5t-6.5 12.5t6.5 12t13.5 4h394z" />
    <glyph glyph-name="Abreve" unicode="&#x102;" horiz-adv-x="1976" 
d="M381 360h1214l-604 1201zM362 324l-284 -560q-2 -2 -7 -6t-8 -4q-8 0 -14 5.5t-6 13.5q0 2 11 25l29.5 59.5l42 83l48.5 95.5l50 97l45.5 87.5l34.5 67.5l18 36h-187q-20 0 -20 20q0 10 5.5 13t14.5 3h205l631 1235q2 5 6.5 13t11.5 8q10 0 16.5 -6.5t10.5 -14.5
q9 -19 41 -81l79 -155.5l106 -210.5l124 -245.5l132 -262l130 -258.5l118.5 -235l97 -192.5l65.5 -130.5t24 -49q0 -8 -5.5 -15.5t-14.5 -7.5q-5 2 -19.5 25.5t-35 60.5l-45 84l-49.5 97.5l-49.5 100l-45 91l-35 72t-20.5 41.5h-1252zM758 1929q6 0 9 -7.5t4.5 -17.5
t2.5 -20t2 -14q9 -34 31.5 -58t53 -39.5t64.5 -22.5t66 -7q36 0 70.5 9.5t64.5 29.5q25 17 46.5 42.5t27.5 55.5l2.5 13t4 16t6.5 14t10 6q10 0 13 -8.5t3 -16.5q0 -46 -24.5 -82t-61.5 -60.5t-81.5 -37t-84.5 -12.5q-44 0 -88.5 11.5t-80.5 35.5t-58.5 60.5t-22.5 87.5
q0 22 21 22z" />
    <glyph glyph-name="abreve" unicode="&#x103;" horiz-adv-x="870" 
d="M686 551h-31q-53 0 -114.5 -11.5t-123.5 -34.5t-119 -56.5t-101 -77t-70.5 -97t-26.5 -116.5q0 -66 40.5 -102t103.5 -36q61 0 115 25t99.5 67t83.5 96.5t66.5 113.5t48 118.5t29.5 110.5zM723 16q0 -9 -3 -14.5t-13 -5.5q-9 0 -15 5.5t-6 14.5v412q-15 -46 -38 -97
t-54 -100t-69 -93.5t-82 -78t-94 -53.5t-105 -20q-82 0 -131.5 43.5t-49.5 128.5q0 66 27.5 123.5t73.5 105.5t105.5 86t124.5 64t130.5 39.5t122.5 13.5q9 0 22 0.5t25 -1.5t20.5 -8.5t8.5 -19.5v-545zM205 899q6 0 9 -7.5t4.5 -17.5t2.5 -20t2 -14q9 -34 31.5 -58
t53 -39.5t64.5 -22.5t66 -7q36 0 70.5 9.5t64.5 29.5q25 17 46.5 42.5t27.5 55.5l2.5 13t4 16t6.5 14t10 6q10 0 13 -8.5t3 -16.5q0 -46 -24.5 -82t-61.5 -60.5t-81.5 -37t-84.5 -12.5q-44 0 -88.5 11.5t-80.5 35.5t-58.5 60.5t-22.5 87.5q0 22 21 22z" />
    <glyph glyph-name="Aogonek" unicode="&#x104;" horiz-adv-x="1976" 
d="M362 324l-284 -560q-1 -2 -6.5 -6t-8.5 -4q-8 0 -14 5.5t-6 13.5q0 2 11 25l29.5 59.5l42 83l48.5 95.5l50 97l45.5 87.5l34.5 67.5l18 36h-187q-20 0 -20 20q0 11 5.5 13.5t14.5 2.5h205l631 1235q2 5 6.5 13t11.5 8q10 0 16.5 -6.5t10.5 -14.5q9 -19 41 -81l79 -155.5
l106 -210.5l124 -245.5l132 -262l130 -258.5l118.5 -235l97 -192.5l65.5 -130.5t24 -49q0 -9 -6 -16q-26 -14 -56 -40t-56.5 -57.5t-44 -66t-17.5 -65.5q0 -40 16.5 -62.5t43 -33t58.5 -13t63 -2.5q9 0 18.5 -2t9.5 -14t-15 -15.5t-32 -3.5q-13 0 -24.5 1t-16.5 1
q-31 0 -59 10.5t-49 29.5t-33 45.5t-12 58.5q0 37 17 72t42.5 66t55.5 58t57 49l-279 549h-1252zM381 360h1214l-604 1201z" />
    <glyph glyph-name="aogonek" unicode="&#x105;" horiz-adv-x="870" 
d="M723 16q0 -6 -4 -16q-22 -8 -52.5 -34t-58 -60t-46.5 -70.5t-19 -64.5q0 -40 16.5 -62.5t43 -33t58.5 -13t63 -2.5q8 0 18 -2t10 -14q0 -11 -15.5 -15t-33.5 -4q-12 0 -23 1t-16 1q-31 0 -59 10.5t-49 29.5t-33 45.5t-12 58.5q0 38 17 73t43 65.5t57 57t58 47.5v414
q-15 -46 -38 -97t-54 -100t-69 -93.5t-82 -78t-94 -53.5t-105 -20q-82 0 -131.5 43.5t-49.5 128.5q0 66 27.5 123.5t73.5 105.5t106 86t125 64t130 39.5t122 13.5q9 0 22 0.5t25 -1.5t20.5 -8.5t8.5 -19.5v-545zM686 551h-31q-53 0 -114.5 -11.5t-123.5 -34.5t-119 -56.5
t-101 -77t-70.5 -97t-26.5 -116.5q0 -66 40.5 -102t103.5 -36q61 0 115 25t99.5 67t83.5 96.5t66.5 113.5t48 118.5t29.5 110.5z" />
    <glyph glyph-name="Cacute" unicode="&#x106;" horiz-adv-x="1741" 
d="M1661 1368q0 -5 -4 -10.5t-10 -5.5q-5 0 -10.5 3.5l-10.5 6.5l-74.5 53.5t-76.5 50.5t-79.5 44.5t-83.5 35.5q-68 23 -137 34t-141 11q-124 0 -239 -32t-214.5 -90.5t-181.5 -140.5t-140 -182t-90 -215t-32 -239q0 -122 32.5 -235.5t91.5 -213.5t141.5 -182.5
t182.5 -141.5t213.5 -91.5t235.5 -32.5q166 0 308 51t268 158q4 4 15.5 12.5t16.5 8.5q8 0 11.5 -5t3.5 -12q0 -8 -3.5 -12.5t-8.5 -9.5q-51 -55 -125 -97.5t-157.5 -71.5t-169.5 -44t-159 -15q-127 0 -245 34t-222 95.5t-190 147.5t-147.5 190t-95.5 222t-34 245
q0 129 33.5 248t94.5 223t146 189t189 146t223 94.5t248 33.5q170 0 325 -57.5t281 -171.5q14 -13 21 -29zM1251 1978q5 0 10 -3.5t5 -9.5q0 -5 -15.5 -23.5t-39.5 -44l-52 -54l-54 -54.5l-45.5 -45l-25.5 -25q-2 -2 -7 -5t-7 -3q-6 0 -10.5 4.5t-4.5 10.5t15 25t38.5 44
l51 53l53 53l45.5 44.5l27 26.5q6 6 16 6z" />
    <glyph glyph-name="cacute" unicode="&#x107;" horiz-adv-x="711" 
d="M637 98q7 0 10.5 -6.5t3.5 -11.5q0 -13 -15 -25t-38 -22t-51 -19t-54.5 -15t-48.5 -9.5t-32 -3.5q-68 0 -130 20t-108.5 58.5t-74 95t-27.5 129.5q0 64 26.5 119t70.5 95t102 62.5t120 22.5q10 0 33.5 -2.5t52.5 -8t59.5 -13t56 -17.5t42 -21.5t16.5 -25.5
q0 -6 -3.5 -11.5t-10.5 -5.5q-1 0 -22.5 10.5t-56 23.5t-77 23.5t-84.5 10.5q-57 0 -109 -18.5t-92 -52.5t-63.5 -82.5t-23.5 -108.5q0 -63 25.5 -112t68 -83.5t97 -52.5t112.5 -18q46 0 85.5 11.5t69 26t48 26t22.5 11.5zM579 919q5 0 10 -3.5t5 -9.5q0 -5 -15.5 -23.5
t-39.5 -44l-52 -54l-54 -54.5l-45.5 -45l-25.5 -25q-2 -2 -7 -5t-7 -3q-6 0 -10.5 4.5t-4.5 10.5t15 25t38.5 44l51 53l53 53l45.5 44.5l27 26.5q6 6 16 6z" />
    <glyph glyph-name="Ccircumflex" unicode="&#x108;" horiz-adv-x="1741" 
d="M1661 1368q0 -5 -4 -10.5t-10 -5.5q-5 0 -10.5 3.5l-10.5 6.5l-74.5 53.5t-76.5 50.5t-79.5 44.5t-83.5 35.5q-68 23 -137 34t-141 11q-124 0 -239 -32t-214.5 -90.5t-181.5 -140.5t-140 -182t-90 -215t-32 -239q0 -122 32.5 -235.5t91.5 -213.5t141.5 -182.5
t182.5 -141.5t213.5 -91.5t235.5 -32.5q166 0 308 51t268 158q4 4 15.5 12.5t16.5 8.5q8 0 11.5 -5t3.5 -12q0 -8 -3.5 -12.5t-8.5 -9.5q-51 -55 -125 -97.5t-157.5 -71.5t-169.5 -44t-159 -15q-127 0 -245 34t-222 95.5t-190 147.5t-147.5 190t-95.5 222t-34 245
q0 129 33.5 248t94.5 223t146 189t189 146t223 94.5t248 33.5q170 0 325 -57.5t281 -171.5q14 -13 21 -29zM1252 1704q0 -5 -5.5 -10t-10.5 -5t-20 14.5l-36 36t-44.5 48l-44.5 50l-37 42l-21 24.5l-21 -24l-37 -42l-44.5 -50l-44 -48t-36 -36.5t-20.5 -14.5q-6 0 -11 4.5
t-5 10.5q0 7 12.5 24t32 39l43 46.5l45.5 47l39 39.5t24 25q4 5 10.5 8.5t12.5 3.5t13.5 -3.5t11.5 -8.5q7 -8 24 -25l38.5 -39.5l44.5 -47l42.5 -46.5t32 -39t12.5 -24z" />
    <glyph glyph-name="ccircumflex" unicode="&#x109;" horiz-adv-x="711" 
d="M637 98q7 0 10.5 -6.5t3.5 -11.5q0 -13 -15 -25t-38 -22t-51 -19t-54.5 -15t-48.5 -9.5t-32 -3.5q-68 0 -130 20t-108.5 58.5t-74 95t-27.5 129.5q0 64 26.5 119t70.5 95t102 62.5t120 22.5q10 0 33.5 -2.5t52.5 -8t59.5 -13t56 -17.5t42 -21.5t16.5 -25.5
q0 -6 -3.5 -11.5t-10.5 -5.5q-1 0 -22.5 10.5t-56 23.5t-77 23.5t-84.5 10.5q-57 0 -109 -18.5t-92 -52.5t-63.5 -82.5t-23.5 -108.5q0 -63 25.5 -112t68 -83.5t97 -52.5t112.5 -18q46 0 85.5 11.5t69 26t48 26t22.5 11.5zM642 674q0 -5 -5.5 -10t-10.5 -5t-20 14.5l-36 36
t-44.5 48l-44.5 50l-36.5 42t-21.5 24.5l-21 -24l-37 -42l-44.5 -50l-44 -48t-36 -36.5t-20.5 -14.5q-6 0 -11 4.5t-5 10.5q0 7 12.5 24t32 39l43 46.5l45.5 47l39 39.5t24 25q4 5 10.5 8.5t12.5 3.5t13.5 -3.5t11.5 -8.5q7 -8 24 -25l38.5 -39.5l44.5 -47l42.5 -46.5
t32 -39t12.5 -24z" />
    <glyph glyph-name="Cdotaccent" unicode="&#x10a;" horiz-adv-x="1741" 
d="M1661 1368q0 -5 -4 -10.5t-10 -5.5q-5 0 -10.5 3.5l-10.5 6.5l-74.5 53.5t-76.5 50.5t-79.5 44.5t-83.5 35.5q-68 23 -137 34t-141 11q-124 0 -239 -32t-214.5 -90.5t-181.5 -140.5t-140 -182t-90 -215t-32 -239q0 -122 32.5 -235.5t91.5 -213.5t141.5 -182.5
t182.5 -141.5t213.5 -91.5t235.5 -32.5q166 0 308 51t268 158q4 4 15.5 12.5t16.5 8.5q8 0 11.5 -5t3.5 -12q0 -8 -3.5 -12.5t-8.5 -9.5q-51 -55 -125 -97.5t-157.5 -71.5t-169.5 -44t-159 -15q-127 0 -245 34t-222 95.5t-190 147.5t-147.5 190t-95.5 222t-34 245
q0 129 33.5 248t94.5 223t146 189t189 146t223 94.5t248 33.5q170 0 325 -57.5t281 -171.5q14 -13 21 -29zM1037 1864q23 0 40 -16.5t17 -39.5q0 -22 -17.5 -39.5t-39.5 -17.5t-38.5 18t-16.5 39q0 22 16.5 39t38.5 17z" />
    <glyph glyph-name="cdotaccent" unicode="&#x10b;" horiz-adv-x="711" 
d="M637 98q7 0 10.5 -6.5t3.5 -11.5q0 -13 -15 -25t-38 -22t-51 -19t-54.5 -15t-48.5 -9.5t-32 -3.5q-68 0 -130 20t-108.5 58.5t-74 95t-27.5 129.5q0 64 26.5 119t70.5 95t102 62.5t120 22.5q10 0 33.5 -2.5t52.5 -8t59.5 -13t56 -17.5t42 -21.5t16.5 -25.5
q0 -6 -3.5 -11.5t-10.5 -5.5q-1 0 -22.5 10.5t-56 23.5t-77 23.5t-84.5 10.5q-57 0 -109 -18.5t-92 -52.5t-63.5 -82.5t-23.5 -108.5q0 -63 25.5 -112t68 -83.5t97 -52.5t112.5 -18q46 0 85.5 11.5t69 26t48 26t22.5 11.5zM415 834q23 0 40 -16.5t17 -39.5
q0 -22 -17.5 -39.5t-39.5 -17.5t-38.5 18t-16.5 39q0 22 16.5 39t38.5 17z" />
    <glyph glyph-name="Ccaron" unicode="&#x10c;" horiz-adv-x="1741" 
d="M1661 1368q0 -5 -4 -10.5t-10 -5.5q-5 0 -10.5 3.5l-10.5 6.5l-74.5 53.5t-76.5 50.5t-79.5 44.5t-83.5 35.5q-68 23 -137 34t-141 11q-124 0 -239 -32t-214.5 -90.5t-181.5 -140.5t-140 -182t-90 -215t-32 -239q0 -122 32.5 -235.5t91.5 -213.5t141.5 -182.5
t182.5 -141.5t213.5 -91.5t235.5 -32.5q166 0 308 51t268 158q4 4 15.5 12.5t16.5 8.5q8 0 11.5 -5t3.5 -12q0 -8 -3.5 -12.5t-8.5 -9.5q-51 -55 -125 -97.5t-157.5 -71.5t-169.5 -44t-159 -15q-127 0 -245 34t-222 95.5t-190 147.5t-147.5 190t-95.5 222t-34 245
q0 129 33.5 248t94.5 223t146 189t189 146t223 94.5t248 33.5q170 0 325 -57.5t281 -171.5q14 -13 21 -29zM782 1933q0 6 5.5 9t10.5 3q6 0 22 -14t36.5 -35t43 -47l43 -49.5l36.5 -42l22 -25.5l22 25.5l36.5 42l43 49.5t43 47t36.5 35t22 14q5 0 10.5 -3t5.5 -9
q0 -9 -6 -16l-191 -208q-8 -10 -22 -10t-24 10q-7 8 -24 25.5l-39 40l-45 47.5l-42.5 47.5t-32 39.5t-12.5 24z" />
    <glyph glyph-name="ccaron" unicode="&#x10d;" horiz-adv-x="711" 
d="M637 98q7 0 10.5 -6.5t3.5 -11.5q0 -13 -15 -25t-38 -22t-51 -19t-54.5 -15t-48.5 -9.5t-32 -3.5q-68 0 -130 20t-108.5 58.5t-74 95t-27.5 129.5q0 64 26.5 119t70.5 95t102 62.5t120 22.5q10 0 33.5 -2.5t52.5 -8t59.5 -13t56 -17.5t42 -21.5t16.5 -25.5
q0 -6 -3.5 -11.5t-10.5 -5.5q-1 0 -22.5 10.5t-56 23.5t-77 23.5t-84.5 10.5q-57 0 -109 -18.5t-92 -52.5t-63.5 -82.5t-23.5 -108.5q0 -63 25.5 -112t68 -83.5t97 -52.5t112.5 -18q46 0 85.5 11.5t69 26t48 26t22.5 11.5zM168 893q0 6 5.5 9t10.5 3q6 0 22 -14t36.5 -35
t43 -47l43 -49.5l36.5 -42l22 -25.5l22 25.5l36.5 42l43 49.5t43 47t36.5 35t22 14q5 0 10.5 -3t5.5 -9q0 -9 -6 -16l-191 -208q-8 -10 -22 -10t-24 10q-7 8 -24 25.5l-39 40l-45 47.5l-42.5 47.5t-32 39.5t-12.5 24z" />
    <glyph glyph-name="Dcaron" unicode="&#x10e;" horiz-adv-x="1839" 
d="M252 -197h467q85 0 171 7t169 28q147 37 265.5 119.5t202 196t128.5 251.5t45 287q0 162 -52 305t-146 255t-226 188t-291 105q-91 17 -183 21.5t-184 4.5h-366v-1768zM213 -195v1780q0 7 4.5 12t11 7t13.5 3t12 1h393q68 0 141 -3.5t146.5 -13.5t144 -27.5t133.5 -45.5
q124 -56 221.5 -141t165 -192.5t103 -232.5t35.5 -260q0 -99 -20 -194.5t-58 -183.5t-93 -166.5t-125 -143t-154.5 -113t-180.5 -77.5q-49 -15 -103 -24t-109 -14t-110 -7t-106 -2h-424q-24 0 -32.5 6.5t-8.5 31.5zM565 1923q0 6 5.5 9t10.5 3q6 0 22 -14t36.5 -35t43 -47
l43 -49.5l36.5 -42l22 -25.5l22 25.5l36.5 42l43 49.5t43 47t36.5 35t22 14q5 0 10.5 -3t5.5 -9q0 -9 -6 -16l-191 -208q-8 -10 -22 -10t-24 10q-7 8 -24 25.5l-39 40l-45 47.5l-42.5 47.5t-32 39.5t-12.5 24z" />
    <glyph glyph-name="dcaron" unicode="&#x10f;" horiz-adv-x="1033" 
d="M686 551h-31q-53 0 -114.5 -11.5t-123.5 -34.5t-119 -56.5t-101 -77t-70.5 -97t-26.5 -116.5q0 -66 40.5 -102t103.5 -36q61 0 115 25t99.5 67t83.5 96.5t66.5 113.5t48 118.5t29.5 110.5zM705 1612q10 0 14 -7t4 -14v-1575q0 -9 -3 -14.5t-13 -5.5q-9 0 -15 5.5t-6 14.5
v412q-15 -46 -38 -97t-54 -100t-69 -93.5t-82 -78t-94 -53.5t-105 -20q-82 0 -131.5 43.5t-49.5 128.5q0 48 14.5 90.5t39 79t57.5 68.5t70 59q96 70 205 101.5t227 31.5h10v1003q0 9 5 15t14 6zM971 1604q5 0 9 -5t6 -9q-1 -10 -10.5 -32t-23.5 -50t-31 -58.5l-32.5 -59
l-29 -52t-19.5 -35.5q-7 -12 -20 -12t-15 16q6 20 25 58.5l42 81.5l45 83l34 62q7 12 20 12z" />
    <glyph glyph-name="Dcroat" unicode="&#x110;" horiz-adv-x="1839" 
d="M213 -195v530h-117q-7 0 -13.5 4.5t-6.5 12.5t6.5 12t13.5 4h117v1217q0 7 4.5 12t11 7t13.5 3t12 1h393q68 0 141 -3.5t146.5 -13.5t144 -27.5t133.5 -45.5q124 -56 221.5 -141t165 -192.5t103 -232.5t35.5 -260q0 -99 -20 -194.5t-58 -183.5t-93 -166.5t-125 -143
t-154.5 -113t-180.5 -77.5q-49 -15 -103 -24t-109 -14t-110 -7t-106 -2h-424q-24 0 -32.5 6.5t-8.5 31.5zM906 368q7 0 13.5 -4t6.5 -12q0 -11 -7.5 -14t-16.5 -3h-650v-532h467q85 0 171 7t169 28q147 37 265.5 119.5t202 196t128.5 251.5t45 287q0 162 -52 305t-146 255
t-226 188t-291 105q-91 17 -183 21.5t-184 4.5h-366v-1203h654z" />
    <glyph glyph-name="dcroat" unicode="&#x111;" horiz-adv-x="870" 
d="M684 551h-31q-53 0 -114.5 -12t-123 -35t-118.5 -56.5t-100.5 -77.5t-70 -97t-26.5 -115q0 -67 40.5 -102.5t105.5 -35.5q59 0 112 25.5t98.5 68t83 97t66.5 113.5t48.5 118t29.5 109zM707 1612q10 0 13 -9t3 -16v-471q8 0 29 1.5t45 1.5q28 0 50.5 -4t22.5 -15
q0 -12 -22.5 -16t-49.5 -4q-24 0 -45.5 1.5t-29.5 1.5v-1067q0 -9 -3 -14.5t-13 -5.5q-9 0 -15 5.5t-6 14.5v402q-25 -68 -66.5 -143.5t-97.5 -140t-126 -106.5t-152 -42t-131.5 43.5t-49.5 128.5q0 48 14.5 90.5t39 79t57.5 68.5t70 59q97 70 205.5 101.5t226.5 31.5h10
v495h-307q-7 0 -14 4.5t-7 12.5t7 12t14 4h307v475q0 9 6 15t15 6z" />
    <glyph glyph-name="Emacron" unicode="&#x112;" horiz-adv-x="1612" 
d="M213 324h-193q-20 0 -20 20q0 10 5.5 13t14.5 3h193v1225q0 15 15 19t26 4h1190q8 0 14 -6.5t6 -14.5q0 -9 -6 -12.5t-14 -3.5h-1192v-1211h1227q8 0 14 -6t6 -14q0 -9 -6 -12.5t-14 -3.5h-1227v-521h1192q7 0 13.5 -4t6.5 -12q0 -20 -20 -20h-1190q-24 0 -32.5 6.5
t-8.5 31.5v519zM1003 1808q7 0 13.5 -4t6.5 -12q0 -11 -7.5 -14t-16.5 -3h-390q-7 0 -13.5 4.5t-6.5 12.5t6.5 12t13.5 4h394z" />
    <glyph glyph-name="emacron" unicode="&#x113;" horiz-adv-x="731" 
d="M111 320l512 -1q-5 51 -26 94t-55 74t-78.5 48.5t-96.5 17.5q-51 0 -95.5 -17.5t-79 -48t-56 -73.5t-25.5 -94zM111 283q0 -62 19 -110t53.5 -81.5t83.5 -51t110 -17.5q58 0 100.5 17t72.5 38t48.5 38t28.5 17q16 0 16 -16q0 -7 -3.5 -12.5t-8.5 -10.5
q-58 -57 -119 -82.5t-143 -25.5q-69 0 -124 21.5t-93.5 61.5t-59 96t-20.5 124q0 65 22.5 120.5t62.5 95.5t95.5 62.5t120.5 22.5q57 0 109 -22.5t91 -60.5t62.5 -89t23.5 -109q0 -26 -28 -26h-520zM563 778q7 0 13.5 -4t6.5 -12q0 -11 -7.5 -14t-16.5 -3h-390
q-7 0 -13.5 4.5t-6.5 12.5t6.5 12t13.5 4h394z" />
    <glyph glyph-name="Ebreve" unicode="&#x114;" horiz-adv-x="1612" 
d="M213 324h-193q-20 0 -20 20q0 10 5.5 13t14.5 3h193v1225q0 15 15 19t26 4h1190q8 0 14 -6.5t6 -14.5q0 -9 -6 -12.5t-14 -3.5h-1192v-1211h1227q8 0 14 -6t6 -14q0 -9 -6 -12.5t-14 -3.5h-1227v-521h1192q7 0 13.5 -4t6.5 -12q0 -20 -20 -20h-1190q-24 0 -32.5 6.5
t-8.5 31.5v519zM576 1929q6 0 9 -7.5t4.5 -17.5t2.5 -20t2 -14q9 -34 31.5 -58t53 -39.5t64.5 -22.5t66 -7q36 0 70.5 9.5t64.5 29.5q25 17 46.5 42.5t27.5 55.5l2.5 13t4 16t6.5 14t10 6q10 0 13 -8.5t3 -16.5q0 -46 -24.5 -82t-61.5 -60.5t-81.5 -37t-84.5 -12.5
q-44 0 -88.5 11.5t-80.5 35.5t-58.5 60.5t-22.5 87.5q0 22 21 22z" />
    <glyph glyph-name="ebreve" unicode="&#x115;" horiz-adv-x="731" 
d="M111 320l512 -1q-5 51 -26 94t-55 74t-78.5 48.5t-96.5 17.5q-51 0 -95.5 -17.5t-79 -48t-56 -73.5t-25.5 -94zM111 283q0 -62 19 -110t53.5 -81.5t83.5 -51t110 -17.5q58 0 100.5 17t72.5 38t48.5 38t28.5 17q16 0 16 -16q0 -7 -3.5 -12.5t-8.5 -10.5
q-58 -57 -119 -82.5t-143 -25.5q-69 0 -124 21.5t-93.5 61.5t-59 96t-20.5 124q0 65 22.5 120.5t62.5 95.5t95.5 62.5t120.5 22.5q57 0 109 -22.5t91 -60.5t62.5 -89t23.5 -109q0 -26 -28 -26h-520zM136 899q6 0 9 -7.5t4.5 -17.5t2.5 -20t2 -14q9 -34 31.5 -58t53 -39.5
t64.5 -22.5t66 -7q36 0 70.5 9.5t64.5 29.5q25 17 46.5 42.5t27.5 55.5l2.5 13t4 16t6.5 14t10 6q10 0 13 -8.5t3 -16.5q0 -46 -24.5 -82t-61.5 -60.5t-81.5 -37t-84.5 -12.5q-44 0 -88.5 11.5t-80.5 35.5t-58.5 60.5t-22.5 87.5q0 22 21 22z" />
    <glyph glyph-name="Edotaccent" unicode="&#x116;" horiz-adv-x="1612" 
d="M213 324h-193q-20 0 -20 20q0 10 5.5 13t14.5 3h193v1225q0 15 15 19t26 4h1190q8 0 14 -6.5t6 -14.5q0 -9 -6 -12.5t-14 -3.5h-1192v-1211h1227q8 0 14 -6t6 -14q0 -9 -6 -12.5t-14 -3.5h-1227v-521h1192q7 0 13.5 -4t6.5 -12q0 -20 -20 -20h-1190q-24 0 -32.5 6.5
t-8.5 31.5v519zM805 1864q23 0 40 -16.5t17 -39.5q0 -22 -17.5 -39.5t-39.5 -17.5t-38.5 18t-16.5 39q0 22 16.5 39t38.5 17z" />
    <glyph glyph-name="edotaccent" unicode="&#x117;" horiz-adv-x="731" 
d="M111 320l512 -1q-5 51 -26 94t-55 74t-78.5 48.5t-96.5 17.5q-51 0 -95.5 -17.5t-79 -48t-56 -73.5t-25.5 -94zM111 283q0 -62 19 -110t53.5 -81.5t83.5 -51t110 -17.5q58 0 100.5 17t72.5 38t48.5 38t28.5 17q16 0 16 -16q0 -7 -3.5 -12.5t-8.5 -10.5
q-58 -57 -119 -82.5t-143 -25.5q-69 0 -124 21.5t-93.5 61.5t-59 96t-20.5 124q0 65 22.5 120.5t62.5 95.5t95.5 62.5t120.5 22.5q57 0 109 -22.5t91 -60.5t62.5 -89t23.5 -109q0 -26 -28 -26h-520zM365 834q23 0 40 -16.5t17 -39.5q0 -22 -17.5 -39.5t-39.5 -17.5t-38.5 18
t-16.5 39q0 22 16.5 39t38.5 17z" />
    <glyph glyph-name="Eogonek" unicode="&#x118;" horiz-adv-x="1612" 
d="M213 324h-193q-20 0 -20 20q0 11 5.5 13.5t14.5 2.5h193v1225q0 15 15 19t26 4h1190q8 0 14 -6.5t6 -14.5q0 -9 -6 -12.5t-14 -3.5h-1192v-1211h1227q8 0 14 -6t6 -14q0 -9 -6 -12.5t-14 -3.5h-1227v-521h1192q7 0 13.5 -4t6.5 -12q0 -9 -5 -16q-26 -16 -56.5 -42
t-57 -56.5t-44.5 -64.5t-18 -67q0 -40 16.5 -62.5t43 -33t58.5 -13t63 -2.5q9 0 18.5 -2t9.5 -14t-15 -15.5t-32 -3.5q-13 0 -24.5 1t-16.5 1q-31 0 -59 10.5t-49 29.5t-33 45.5t-12 58.5q0 36 14.5 68t37 60.5t50 53t53.5 44.5h-1152q-24 0 -32.5 6.5t-8.5 31.5v519z" />
    <glyph glyph-name="eogonek" unicode="&#x119;" horiz-adv-x="731" 
d="M111 283q0 -62 19 -110t53.5 -81.5t84 -51t109.5 -17.5q57 0 100 17t73 38t48.5 38t28.5 17q16 0 16 -16q0 -12 -17 -27.5t-42 -36l-54.5 -44.5t-54.5 -52.5t-42 -60.5t-17 -67q0 -40 16.5 -62.5t43 -33t58.5 -13t63 -2.5q9 0 18.5 -2t9.5 -14q0 -11 -9 -14t-17 -3h-62
q-31 0 -59 10.5t-49 29.5t-33 45.5t-12 58.5q0 50 26.5 93t61.5 76q-26 -7 -51.5 -9.5t-51.5 -2.5q-69 0 -124 21.5t-93.5 61.5t-59 96t-20.5 124q0 65 22.5 120.5t62.5 95.5t95.5 62.5t120.5 22.5q57 0 109 -22.5t91 -60.5t62.5 -89t23.5 -109q0 -26 -28 -26h-520zM111 320
l512 -1q-5 51 -26 94t-55 74t-78.5 48.5t-96.5 17.5q-51 0 -95.5 -17.5t-79 -48t-56 -73.5t-25.5 -94z" />
    <glyph glyph-name="Ecaron" unicode="&#x11a;" horiz-adv-x="1612" 
d="M213 324h-193q-20 0 -20 20q0 10 5.5 13t14.5 3h193v1225q0 15 15 19t26 4h1190q8 0 14 -6.5t6 -14.5q0 -9 -6 -12.5t-14 -3.5h-1192v-1211h1227q8 0 14 -6t6 -14q0 -9 -6 -12.5t-14 -3.5h-1227v-521h1192q7 0 13.5 -4t6.5 -12q0 -20 -20 -20h-1190q-24 0 -32.5 6.5
t-8.5 31.5v519zM587 1923q0 6 5.5 9t10.5 3q6 0 22 -14t36.5 -35t43 -47l43 -49.5l36.5 -42l22 -25.5l22 25.5l36.5 42l43 49.5t43 47t36.5 35t22 14q5 0 10.5 -3t5.5 -9q0 -9 -6 -16l-191 -208q-8 -10 -22 -10t-24 10q-7 8 -24 25.5l-39 40l-45 47.5l-42.5 47.5t-32 39.5
t-12.5 24z" />
    <glyph glyph-name="ecaron" unicode="&#x11b;" horiz-adv-x="731" 
d="M111 320l512 -1q-5 51 -26 94t-55 74t-78.5 48.5t-96.5 17.5q-51 0 -95.5 -17.5t-79 -48t-56 -73.5t-25.5 -94zM111 283q0 -62 19 -110t53.5 -81.5t83.5 -51t110 -17.5q58 0 100.5 17t72.5 38t48.5 38t28.5 17q16 0 16 -16q0 -7 -3.5 -12.5t-8.5 -10.5
q-58 -57 -119 -82.5t-143 -25.5q-69 0 -124 21.5t-93.5 61.5t-59 96t-20.5 124q0 65 22.5 120.5t62.5 95.5t95.5 62.5t120.5 22.5q57 0 109 -22.5t91 -60.5t62.5 -89t23.5 -109q0 -26 -28 -26h-520zM147 893q0 6 5.5 9t10.5 3q6 0 22 -14t36.5 -35t43 -47l43 -49.5l36.5 -42
l22 -25.5l22 25.5l36.5 42l43 49.5t43 47t36.5 35t22 14q5 0 10.5 -3t5.5 -9q0 -9 -6 -16l-191 -208q-8 -10 -22 -10t-24 10q-7 8 -24 25.5l-39 40l-45 47.5l-42.5 47.5t-32 39.5t-12.5 24z" />
    <glyph glyph-name="Gcircumflex" unicode="&#x11c;" horiz-adv-x="1931" 
d="M1841 332h-1059q-8 0 -14 5t-6 13q0 11 5 14t15 3h1078q10 0 17 -4t7 -15q0 -9 -5 -22.5t-12 -27.5l-14 -27l-11 -21q-62 -113 -147 -204t-188.5 -155t-223 -98.5t-249.5 -34.5q-127 0 -245 34t-222 95.5t-190 147.5t-147.5 190t-95.5 222t-34 245q0 129 33.5 248
t94.5 223t146 189t189 146t223 94.5t248 33.5q71 0 149 -12.5t153 -37t143 -62.5t120 -89q15 -13 21 -30q0 -6 -3.5 -11t-10.5 -6q-6 3 -11 6t-10 7q-69 50 -131 87.5t-126.5 62.5t-135.5 37.5t-158 12.5q-124 0 -239 -32t-214.5 -90.5t-181.5 -140.5t-140 -182t-90 -215
t-32 -239q0 -121 32.5 -235t92 -214t142 -182.5t182 -142t213.5 -92.5t235 -33q138 0 260 38t224.5 108t184 170t138.5 223zM1267 1704q0 -5 -5.5 -10t-10.5 -5t-20 14.5l-36 36t-44.5 48l-44.5 50l-36.5 42t-21.5 24.5l-21 -24l-37 -42l-44.5 -50l-44 -48t-36 -36.5
t-20.5 -14.5q-6 0 -11 4.5t-5 10.5q0 7 12.5 24t32 39l43 46.5l45.5 47l39 39.5t24 25q4 5 10.5 8.5t12.5 3.5t13.5 -3.5t11.5 -8.5q7 -8 24 -25l38.5 -39.5l44.5 -47l42.5 -46.5t32 -39t12.5 -24z" />
    <glyph glyph-name="gcircumflex" unicode="&#x11d;" horiz-adv-x="870" 
d="M686 551h-31q-53 0 -114.5 -11.5t-123.5 -34.5t-119 -56.5t-101 -77t-70.5 -97t-26.5 -116.5q0 -66 40.5 -102t103.5 -36q61 0 115 25t99.5 67t83.5 96.5t66.5 113.5t48 118.5t29.5 110.5zM686 428q-15 -46 -38 -97t-54 -100t-69 -93.5t-82 -78t-94 -53.5t-105 -20
q-82 0 -131.5 43.5t-49.5 128.5q0 66 27.5 123.5t73.5 105.5t105.5 86t124.5 64t130.5 39.5t122.5 13.5q9 0 22 0.5t25 -1.5t20.5 -8.5t8.5 -19.5v-606q0 -73 -19.5 -133t-58.5 -103t-96.5 -66.5t-132.5 -23.5q-88 0 -156 35.5t-113 112.5q-4 5 -4 14q0 7 4.5 14t12.5 7
t17.5 -11t22 -27t31 -35t46 -35t65.5 -27t90 -11q67 0 115 23.5t79 63.5t45.5 94t14.5 116v465zM703 674q0 -5 -5.5 -10t-10.5 -5t-20 14.5l-36 36t-44.5 48l-44.5 50l-37 42l-21 24.5l-21 -24l-37 -42l-44.5 -50l-44 -48t-36 -36.5t-20.5 -14.5q-6 0 -11 4.5t-5 10.5
q0 7 12.5 24t32 39l43 46.5l45.5 47l39 39.5t24 25q4 5 10.5 8.5t12.5 3.5t13.5 -3.5t11.5 -8.5q7 -8 24 -25l38.5 -39.5l44.5 -47l42.5 -46.5t32 -39t12.5 -24z" />
    <glyph glyph-name="Gbreve" unicode="&#x11e;" horiz-adv-x="1931" 
d="M1841 332h-1059q-8 0 -14 5t-6 13q0 11 5 14t15 3h1078q10 0 17 -4t7 -15q0 -9 -5 -22.5t-12 -27.5l-14 -27l-11 -21q-62 -113 -147 -204t-188.5 -155t-223 -98.5t-249.5 -34.5q-127 0 -245 34t-222 95.5t-190 147.5t-147.5 190t-95.5 222t-34 245q0 129 33.5 248
t94.5 223t146 189t189 146t223 94.5t248 33.5q71 0 149 -12.5t153 -37t143 -62.5t120 -89q15 -13 21 -30q0 -6 -3.5 -11t-10.5 -6q-6 3 -11 6t-10 7q-69 50 -131 87.5t-126.5 62.5t-135.5 37.5t-158 12.5q-124 0 -239 -32t-214.5 -90.5t-181.5 -140.5t-140 -182t-90 -215
t-32 -239q0 -121 32.5 -235t92 -214t142 -182.5t182 -142t213.5 -92.5t235 -33q138 0 260 38t224.5 108t184 170t138.5 223zM738 1939q6 0 9 -7.5t4.5 -17.5t2.5 -20t2 -14q9 -34 31.5 -58t53 -39.5t64.5 -22.5t66 -7q36 0 70.5 9.5t64.5 29.5q25 17 46.5 42.5t27.5 55.5
l2.5 13t4 16t6.5 14t10 6q10 0 13 -8.5t3 -16.5q0 -46 -24.5 -82t-61.5 -60.5t-81.5 -37t-84.5 -12.5q-44 0 -88.5 11.5t-80.5 35.5t-58.5 60.5t-22.5 87.5q0 22 21 22z" />
    <glyph glyph-name="gbreve" unicode="&#x11f;" horiz-adv-x="870" 
d="M686 551h-31q-53 0 -114.5 -11.5t-123.5 -34.5t-119 -56.5t-101 -77t-70.5 -97t-26.5 -116.5q0 -66 40.5 -102t103.5 -36q61 0 115 25t99.5 67t83.5 96.5t66.5 113.5t48 118.5t29.5 110.5zM686 428q-15 -46 -38 -97t-54 -100t-69 -93.5t-82 -78t-94 -53.5t-105 -20
q-82 0 -131.5 43.5t-49.5 128.5q0 66 27.5 123.5t73.5 105.5t105.5 86t124.5 64t130.5 39.5t122.5 13.5q9 0 22 0.5t25 -1.5t20.5 -8.5t8.5 -19.5v-606q0 -73 -19.5 -133t-58.5 -103t-96.5 -66.5t-132.5 -23.5q-88 0 -156 35.5t-113 112.5q-4 5 -4 14q0 7 4.5 14t12.5 7
t17.5 -11t22 -27t31 -35t46 -35t65.5 -27t90 -11q67 0 115 23.5t79 63.5t45.5 94t14.5 116v465zM207 899q6 0 9 -7.5t4.5 -17.5t2.5 -20t2 -14q9 -34 31.5 -58t53 -39.5t64.5 -22.5t66 -7q36 0 70.5 9.5t64.5 29.5q25 17 46.5 42.5t27.5 55.5l2.5 13t4 16t6.5 14t10 6
q10 0 13 -8.5t3 -16.5q0 -46 -24.5 -82t-61.5 -60.5t-81.5 -37t-84.5 -12.5q-44 0 -88.5 11.5t-80.5 35.5t-58.5 60.5t-22.5 87.5q0 22 21 22z" />
    <glyph glyph-name="Gdotaccent" unicode="&#x120;" horiz-adv-x="1931" 
d="M1841 332h-1059q-8 0 -14 5t-6 13q0 11 5 14t15 3h1078q10 0 17 -4t7 -15q0 -9 -5 -22.5t-12 -27.5l-14 -27l-11 -21q-62 -113 -147 -204t-188.5 -155t-223 -98.5t-249.5 -34.5q-127 0 -245 34t-222 95.5t-190 147.5t-147.5 190t-95.5 222t-34 245q0 129 33.5 248
t94.5 223t146 189t189 146t223 94.5t248 33.5q71 0 149 -12.5t153 -37t143 -62.5t120 -89q15 -13 21 -30q0 -6 -3.5 -11t-10.5 -6q-6 3 -11 6t-10 7q-69 50 -131 87.5t-126.5 62.5t-135.5 37.5t-158 12.5q-124 0 -239 -32t-214.5 -90.5t-181.5 -140.5t-140 -182t-90 -215
t-32 -239q0 -121 32.5 -235t92 -214t142 -182.5t182 -142t213.5 -92.5t235 -33q138 0 260 38t224.5 108t184 170t138.5 223zM1038 1867q23 0 40 -16.5t17 -39.5q0 -22 -17.5 -39.5t-39.5 -17.5t-38.5 18t-16.5 39q0 22 16.5 39t38.5 17z" />
    <glyph glyph-name="gdotaccent" unicode="&#x121;" horiz-adv-x="870" 
d="M686 551h-31q-53 0 -114.5 -11.5t-123.5 -34.5t-119 -56.5t-101 -77t-70.5 -97t-26.5 -116.5q0 -66 40.5 -102t103.5 -36q61 0 115 25t99.5 67t83.5 96.5t66.5 113.5t48 118.5t29.5 110.5zM686 428q-15 -46 -38 -97t-54 -100t-69 -93.5t-82 -78t-94 -53.5t-105 -20
q-82 0 -131.5 43.5t-49.5 128.5q0 66 27.5 123.5t73.5 105.5t105.5 86t124.5 64t130.5 39.5t122.5 13.5q9 0 22 0.5t25 -1.5t20.5 -8.5t8.5 -19.5v-606q0 -73 -19.5 -133t-58.5 -103t-96.5 -66.5t-132.5 -23.5q-88 0 -156 35.5t-113 112.5q-4 5 -4 14q0 7 4.5 14t12.5 7
t17.5 -11t22 -27t31 -35t46 -35t65.5 -27t90 -11q67 0 115 23.5t79 63.5t45.5 94t14.5 116v465zM434 834q23 0 40 -16.5t17 -39.5q0 -22 -17.5 -39.5t-39.5 -17.5t-38.5 18t-16.5 39q0 22 16.5 39t38.5 17z" />
    <glyph glyph-name="Gcommaaccent" unicode="&#x122;" horiz-adv-x="1931" 
d="M930 -530q0 9 4 12.5t10 4t12.5 -1t12.5 -1.5q20 0 32.5 8.5t19 22.5t8.5 32t2 37q0 16 -0.5 31t-0.5 29q0 20 3.5 33.5t15.5 13.5q11 0 14.5 -5t3.5 -15v-80q0 -31 -3 -56t-13 -43t-27.5 -27.5t-46.5 -9.5q-3 0 -11 0.5t-16 2t-14 4.5t-6 8zM1841 332h-1059q-8 0 -14 5
t-6 13q0 11 5 14t15 3h1078q10 0 17 -4t7 -15q0 -9 -5 -22.5t-12 -27.5l-14 -27l-11 -21q-62 -113 -147 -204t-188.5 -155t-223 -98.5t-249.5 -34.5q-127 0 -245 34t-222 95.5t-190 147.5t-147.5 190t-95.5 222t-34 245q0 129 33.5 248t94.5 223t146 189t189 146t223 94.5
t248 33.5q71 0 149 -12.5t153 -37t143 -62.5t120 -89q15 -13 21 -30q0 -6 -3.5 -11t-10.5 -6q-6 3 -11 6t-10 7q-69 50 -131 87.5t-126.5 62.5t-135.5 37.5t-158 12.5q-124 0 -239 -32t-214.5 -90.5t-181.5 -140.5t-140 -182t-90 -215t-32 -239q0 -121 32.5 -235t92 -214
t142 -182.5t182 -142t213.5 -92.5t235 -33q138 0 260 38t224.5 108t184 170t138.5 223z" />
    <glyph glyph-name="gcommaaccent" unicode="&#x123;" horiz-adv-x="870" 
d="M547 825q0 -9 -4 -12.5t-10 -4t-12.5 1t-12.5 1.5q-20 0 -32.5 -8.5t-19 -22.5t-8.5 -32t-2 -37q0 -16 0.5 -31t0.5 -29q0 -20 -3.5 -33.5t-15.5 -13.5q-11 0 -14.5 5t-3.5 15v80q0 31 3 56t13 43t27.5 27.5t46.5 9.5q3 0 11 -0.5t16 -2t14 -4.5t6 -8zM686 551h-31
q-53 0 -114.5 -11.5t-123.5 -34.5t-119 -56.5t-101 -77t-70.5 -97t-26.5 -116.5q0 -66 40.5 -102t103.5 -36q61 0 115 25t99.5 67t83.5 96.5t66.5 113.5t48 118.5t29.5 110.5zM686 428q-15 -46 -38 -97t-54 -100t-69 -93.5t-82 -78t-94 -53.5t-105 -20q-82 0 -131.5 43.5
t-49.5 128.5q0 66 27.5 123.5t73.5 105.5t105.5 86t124.5 64t130.5 39.5t122.5 13.5q9 0 22 0.5t25 -1.5t20.5 -8.5t8.5 -19.5v-606q0 -73 -19.5 -133t-58.5 -103t-96.5 -66.5t-132.5 -23.5q-88 0 -156 35.5t-113 112.5q-4 5 -4 14q0 7 4.5 14t12.5 7t17.5 -11t22 -27
t31 -35t46 -35t65.5 -27t90 -11q67 0 115 23.5t79 63.5t45.5 94t14.5 116v465z" />
    <glyph glyph-name="Hcircumflex" unicode="&#x124;" horiz-adv-x="1731" 
d="M233 1616q9 0 14 -6t5 -15v-1235h1227v1235q0 9 5.5 15t14.5 6t14 -6t5 -15v-1816q0 -9 -6 -15t-15 -6q-11 0 -14.5 6t-3.5 15v545h-1227v-545q0 -9 -6 -15t-15 -6q-10 0 -14 6t-4 15v545h-135q-9 0 -15 5.5t-6 14.5q0 11 6 13.5t15 2.5h135v1235q0 8 6 14.5t14 6.5z
M1084 1704q0 -5 -5.5 -10t-10.5 -5t-20 14.5l-36 36t-44.5 48l-44.5 50l-37 42l-21 24.5l-21 -24l-37 -42l-44.5 -50l-44 -48t-36 -36.5t-20.5 -14.5q-6 0 -11 4.5t-5 10.5q0 7 12.5 24t32 39l43 46.5l45.5 47l39 39.5t24 25q4 5 10.5 8.5t12.5 3.5t13.5 -3.5t11.5 -8.5
q7 -8 24 -25l38.5 -39.5l44.5 -47l42.5 -46.5t32 -39t12.5 -24z" />
    <glyph glyph-name="hcircumflex" unicode="&#x125;" horiz-adv-x="782" 
d="M162 -4q-17 0 -17 20v428q-3 -2 -11.5 -7l-18.5 -10.5t-19.5 -10t-13.5 -4.5q-12 0 -12 12q0 9 10 18t22.5 17t25 14.5t17.5 9.5v1108q0 9 6 15t15 6q10 0 13 -8.5t3 -16.5v-1083q26 16 54.5 31t59 27t62 19t62.5 7q69 0 112.5 -21.5t68 -60t33.5 -90.5t9 -113v-287
q0 -8 -6 -14t-14 -6q-19 0 -19 20q-1 72 -1.5 143.5t-0.5 143.5q0 48 -6 92.5t-24 79t-52.5 55.5t-91.5 21q-67 0 -128 -25t-118 -59v-451q0 -20 -20 -20zM384 1495q0 -5 -5.5 -10t-10.5 -5t-20 14.5l-36 36t-44.5 48l-44.5 50l-36.5 42t-21.5 24.5l-21 -24l-37 -42
l-44.5 -50l-44 -48t-36 -36.5t-20.5 -14.5q-6 0 -11 4.5t-5 10.5q0 7 12.5 24t32 39l43 46.5l45.5 47l39 39.5t24 25q4 5 10.5 8.5t12.5 3.5t13.5 -3.5t11.5 -8.5q7 -8 24 -25l38.5 -39.5l44.5 -47l42.5 -46.5t32 -39t12.5 -24z" />
    <glyph glyph-name="Hbar" unicode="&#x126;" horiz-adv-x="1731" 
d="M233 1616q9 0 14 -6t5 -15v-977h1227v977q0 9 5.5 15t14.5 6t14 -6t5 -15v-1816q0 -9 -6 -15t-15 -6q-11 0 -14.5 6t-3.5 15v545h-1227v-545q0 -9 -6 -15t-15 -6q-10 0 -14 6t-4 15v545h-135q-9 0 -15 5.5t-6 14.5q0 11 6 13.5t15 2.5h135v225h-144q-7 0 -13.5 4.5
t-6.5 12.5t6.5 12t13.5 4h144v977q0 8 6 14.5t14 6.5zM1479 360v225h-1227v-225h1227z" />
    <glyph glyph-name="hbar" unicode="&#x127;" horiz-adv-x="782" 
d="M471 781q7 0 13.5 -4t6.5 -12q0 -11 -7.5 -14t-16.5 -3h-285v-244q26 16 54.5 31t59 27t62 19t62.5 7q69 0 112.5 -21.5t68 -60t33.5 -90.5t9 -113v-287q0 -8 -6 -14t-14 -6q-19 0 -19 20q-1 72 -1.5 143.5t-0.5 143.5q0 48 -6 92.5t-24 79t-52.5 55.5t-91.5 21
q-67 0 -128 -25t-118 -59v-451q0 -20 -20 -20q-17 0 -17 20v428q-3 -2 -11.5 -7l-18.5 -10.5t-19.5 -10t-13.5 -4.5q-12 0 -12 12q0 9 10 18t22.5 17t25 14.5t17.5 9.5v265h-68q-7 0 -13.5 4.5t-6.5 12.5t6.5 12t13.5 4h68v810q0 9 6 15t15 6q10 0 13 -8.5t3 -16.5v-806h289
z" />
    <glyph glyph-name="Itilde" unicode="&#x128;" horiz-adv-x="512" 
d="M238 1595q0 9 5.5 15t14.5 6q11 0 13.5 -6t2.5 -15v-1816q0 -9 -5.5 -15t-14.5 -6q-11 0 -13.5 6t-2.5 15v1816zM137 1847q-31 0 -45.5 -10t-22.5 -25.5t-14 -35t-18 -37.5q-19 0 -19 20q0 24 9 46t24.5 38.5t37 26.5t46.5 10q29 0 57.5 -13.5t57 -29.5t57 -29.5
t57.5 -13.5q18 0 35 5.5t31 16t22.5 25.5t8.5 35q0 9 2.5 16.5t13.5 7.5q9 0 13 -7t4 -15q0 -26 -10.5 -47t-28.5 -37t-41 -24.5t-47 -8.5q-32 0 -60.5 13.5t-56 29.5t-55.5 29.5t-58 13.5z" />
    <glyph glyph-name="itilde" unicode="&#x129;" horiz-adv-x="356" 
d="M197 16q0 -8 -6.5 -14t-14.5 -6q-10 0 -13 5.5t-3 14.5v551q0 8 5.5 14.5t14.5 6.5q10 0 13.5 -8.5t3.5 -16.5v-547zM59 817q-31 0 -45.5 -10t-22.5 -25.5t-14 -35t-18 -37.5q-19 0 -19 20q0 24 9 46t24.5 38.5t37 26.5t46.5 10q29 0 57.5 -13.5t57 -29.5t57 -29.5
t57.5 -13.5q18 0 35 5.5t31 16t22.5 25.5t8.5 35q0 9 2.5 16.5t13.5 7.5q9 0 13 -7t4 -15q0 -26 -10.5 -47t-28.5 -37t-41 -24.5t-47 -8.5q-32 0 -60.5 13.5t-56 29.5t-55.5 29.5t-58 13.5z" />
    <glyph glyph-name="Imacron" unicode="&#x12a;" horiz-adv-x="512" 
d="M238 1595q0 9 5.5 15t14.5 6q11 0 13.5 -6t2.5 -15v-1816q0 -9 -5.5 -15t-14.5 -6q-11 0 -13.5 6t-2.5 15v1816zM453 1808q7 0 13.5 -4t6.5 -12q0 -11 -7.5 -14t-16.5 -3h-390q-7 0 -13.5 4.5t-6.5 12.5t6.5 12t13.5 4h394z" />
    <glyph glyph-name="imacron" unicode="&#x12b;" horiz-adv-x="356" 
d="M197 16q0 -8 -6.5 -14t-14.5 -6q-10 0 -13 5.5t-3 14.5v551q0 8 5.5 14.5t14.5 6.5q10 0 13.5 -8.5t3.5 -16.5v-547zM375 778q7 0 13.5 -4t6.5 -12q0 -11 -7.5 -14t-16.5 -3h-390q-7 0 -13.5 4.5t-6.5 12.5t6.5 12t13.5 4h394z" />
    <glyph glyph-name="Ibreve" unicode="&#x12c;" horiz-adv-x="512" 
d="M238 1595q0 9 5.5 15t14.5 6q11 0 13.5 -6t2.5 -15v-1816q0 -9 -5.5 -15t-14.5 -6q-11 0 -13.5 6t-2.5 15v1816zM26 1929q6 0 9 -7.5t4.5 -17.5t2.5 -20t2 -14q9 -34 31.5 -58t53 -39.5t64.5 -22.5t66 -7q36 0 70.5 9.5t64.5 29.5q25 17 46.5 42.5t27.5 55.5l2.5 13t4 16
t6.5 14t10 6q10 0 13 -8.5t3 -16.5q0 -46 -24.5 -82t-61.5 -60.5t-81.5 -37t-84.5 -12.5q-44 0 -88.5 11.5t-80.5 35.5t-58.5 60.5t-22.5 87.5q0 22 21 22z" />
    <glyph glyph-name="ibreve" unicode="&#x12d;" horiz-adv-x="356" 
d="M197 16q0 -8 -6.5 -14t-14.5 -6q-10 0 -13 5.5t-3 14.5v551q0 8 5.5 14.5t14.5 6.5q10 0 13.5 -8.5t3.5 -16.5v-547zM-52 899q6 0 9 -7.5t4.5 -17.5t2.5 -20t2 -14q9 -34 31.5 -58t53 -39.5t64.5 -22.5t66 -7q36 0 70.5 9.5t64.5 29.5q25 17 46.5 42.5t27.5 55.5l2.5 13
t4 16t6.5 14t10 6q10 0 13 -8.5t3 -16.5q0 -46 -24.5 -82t-61.5 -60.5t-81.5 -37t-84.5 -12.5q-44 0 -88.5 11.5t-80.5 35.5t-58.5 60.5t-22.5 87.5q0 22 21 22z" />
    <glyph glyph-name="Iogonek" unicode="&#x12e;" horiz-adv-x="512" 
d="M238 1595q0 9 5.5 15t14.5 6q11 0 13.5 -6t2.5 -15v-1816q0 -15 -13 -20q-25 -18 -51 -40t-47.5 -48t-35.5 -56t-14 -64q0 -40 16.5 -62.5t43 -33t58.5 -13t63 -2.5q8 0 18 -2t10 -14q0 -11 -9 -14t-17 -3h-62q-31 0 -59 10.5t-49 29.5t-33 45.5t-12 58.5q0 36 14.5 68.5
t37.5 61.5t50.5 53.5t54.5 44.5v1816z" />
    <glyph glyph-name="iogonek" unicode="&#x12f;" horiz-adv-x="356" 
d="M197 16q0 -14 -13 -18q-25 -18 -52 -41t-49 -49.5t-36 -57t-14 -64.5q0 -40 16.5 -62.5t43 -33t58.5 -13t63 -2.5q8 0 18 -2t10 -14q0 -11 -9 -14t-17 -3h-62q-31 0 -59 10.5t-49 29.5t-33 45.5t-12 58.5q0 36 15 69.5t38 63t51 55t55 45.5v548q0 8 5.5 14.5t14.5 6.5
q10 0 13.5 -8.5t3.5 -16.5v-547zM178 1038q20 0 33.5 -13.5t13.5 -33.5q0 -19 -14 -33t-33 -14q-18 0 -32.5 14.5t-14.5 32.5q0 19 14 33t33 14z" />
    <glyph glyph-name="Idotaccent" unicode="&#x130;" horiz-adv-x="512" 
d="M238 1595q0 9 5.5 15t14.5 6q11 0 13.5 -6t2.5 -15v-1816q0 -9 -5.5 -15t-14.5 -6q-11 0 -13.5 6t-2.5 15v1816zM255 1864q23 0 40 -16.5t17 -39.5q0 -22 -17.5 -39.5t-39.5 -17.5t-38.5 18t-16.5 39q0 22 16.5 39t38.5 17z" />
    <glyph glyph-name="dotlessi" unicode="&#x131;" horiz-adv-x="356" 
d="M197 16q0 -8 -6.5 -14t-14.5 -6q-10 0 -13 5.5t-3 14.5v551q0 8 5.5 14.5t14.5 6.5q10 0 13.5 -8.5t3.5 -16.5v-547z" />
    <glyph glyph-name="IJ" unicode="&#x132;" horiz-adv-x="1645" 
d="M389 1595q0 9 5.5 15t14.5 6q11 0 13.5 -6t2.5 -15v-1338q0 -9 -5.5 -15t-14.5 -6q-11 0 -13.5 6t-2.5 15v1338zM1510 639q0 -64 -3.5 -137t-14 -146.5t-30.5 -142.5t-54 -125q-51 -84 -119.5 -147t-149.5 -104.5t-172.5 -62t-187.5 -20.5q-118 0 -230 37t-206 104.5
t-162 162.5t-98 212q-1 2 -2.5 8.5t-1.5 8.5q0 16 16 16q10 0 15.5 -8t7.5 -16q31 -113 93.5 -203.5t150.5 -153.5t198.5 -97t239.5 -34q155 0 297 67q88 42 150.5 95t104.5 116t66 133.5t36 148.5t15.5 161t3.5 170v915q0 9 6 15t15 6q11 0 13.5 -6t2.5 -15v-958z" />
    <glyph glyph-name="ij" unicode="&#x133;" horiz-adv-x="702" 
d="M178 1038q20 0 33.5 -13.5t13.5 -33.5q0 -19 -14 -33t-33 -14q-18 0 -32.5 14.5t-14.5 32.5q0 19 14 33t33 14zM197 16q0 -8 -6.5 -14t-14.5 -6q-10 0 -13 5.5t-3 14.5v551q0 8 5.5 14.5t14.5 6.5q10 0 13.5 -8.5t3.5 -16.5v-547zM524 1038q19 0 33 -14t14 -33t-14 -33
t-33 -14q-18 0 -32.5 14.5t-14.5 32.5q0 19 14 33t33 14zM542 -45q0 -63 -14.5 -121.5t-46 -104t-81 -73t-120.5 -27.5q-10 0 -22.5 3.5t-12.5 15.5q0 15 10 17.5t21 2.5q67 0 111 25.5t70.5 67.5t37.5 96t11 112v598q0 9 5.5 15t14.5 6q11 0 13.5 -8.5t2.5 -16.5v-608z" />
    <glyph glyph-name="Jcircumflex" unicode="&#x134;" horiz-adv-x="1788" 
d="M1501 639q0 -64 -3.5 -137t-14 -146.5t-30.5 -142.5t-54 -125q-51 -84 -119.5 -147t-149.5 -104.5t-172.5 -62t-187.5 -20.5q-118 0 -230 37t-206 104.5t-162 162.5t-98 212q-1 2 -2.5 8.5t-1.5 8.5q0 16 16 16q10 0 15.5 -8t7.5 -16q31 -113 93.5 -203.5t150.5 -153.5
t198.5 -97t239.5 -34q155 0 297 67q88 42 150.5 95t104.5 116t66 133.5t36 148.5t15.5 161t3.5 170v915q0 9 6 15t15 6q11 0 13.5 -6t2.5 -15v-958zM1113 1704q0 -5 -5.5 -10t-10.5 -5t-20 14.5l-36 36t-44.5 48l-44.5 50l-37 42l-21 24.5l-21 -24l-37 -42l-44.5 -50
l-44 -48t-36 -36.5t-20.5 -14.5q-6 0 -11 4.5t-5 10.5q0 7 12.5 24t32 39l43 46.5l45.5 47l39 39.5t24 25q4 5 10.5 8.5t12.5 3.5t13.5 -3.5t11.5 -8.5q7 -8 24 -25l38.5 -39.5l44.5 -47l42.5 -46.5t32 -39t12.5 -24z" />
    <glyph glyph-name="jcircumflex" unicode="&#x135;" horiz-adv-x="346" 
d="M186 -45q0 -63 -14.5 -121.5t-46 -104t-81 -73t-120.5 -27.5q-10 0 -22.5 3.5t-12.5 15.5q0 15 10 17.5t21 2.5q67 0 111 25.5t70.5 67.5t37.5 96t11 112v598q0 9 5.5 15t14.5 6q11 0 13.5 -8.5t2.5 -16.5v-608zM392 674q0 -5 -5.5 -10t-10.5 -5t-20 14.5l-36 36
t-44.5 48l-44.5 50l-36.5 42t-21.5 24.5l-21 -24l-37 -42l-44.5 -50l-44 -48t-36 -36.5t-20.5 -14.5q-6 0 -11 4.5t-5 10.5q0 7 12.5 24t32 39l43 46.5l45.5 47l39 39.5t24 25q4 5 10.5 8.5t12.5 3.5t13.5 -3.5t11.5 -8.5q7 -8 24 -25l38.5 -39.5l44.5 -47l42.5 -46.5
t32 -39t12.5 -24z" />
    <glyph glyph-name="Kcommaaccent" unicode="&#x136;" horiz-adv-x="1714" 
d="M252 502v-723q0 -9 -6 -15t-15 -6q-10 0 -14 6t-4 15v1816q0 8 6 14.5t14 6.5q9 0 14 -6t5 -15v-1034l64 49l119 91l160.5 122.5l187 143l198.5 151.5l196 149l179 136l147.5 111.5l101 75t40.5 28.5q8 0 13 -7.5t5 -15.5q-2 -4 -38.5 -33.5l-99.5 -78.5l-146 -113
l-177.5 -136l-195.5 -148.5l-198.5 -150.5l-186.5 -141.5l-161 -121.5l-120.5 -90.5l-65.5 -49.5l1395 -737q3 -2 5.5 -7l4.5 -9q0 -7 -4 -13t-12 -6q-3 0 -41 19.5l-102 52.5l-149 77.5l-181 95.5l-198.5 105l-201.5 106.5l-189.5 100.5l-162.5 86.5l-121 64.5zM788 -415
q0 9 4 12.5t10 4t12.5 -1t12.5 -1.5q20 0 32.5 8.5t19 22.5t8.5 32t2 37q0 16 -0.5 31t-0.5 29q0 20 3.5 33.5t15.5 13.5q11 0 14.5 -5t3.5 -15v-80q0 -31 -3 -56t-13 -43t-27.5 -27.5t-46.5 -9.5q-3 0 -11 0.5t-16 2t-14 4.5t-6 8z" />
    <glyph glyph-name="kcommaaccent" unicode="&#x137;" horiz-adv-x="764" 
d="M145 1591q0 9 6 15t15 6q10 0 13 -8.5t3 -16.5v-1319l454 313l11 7q8 -1 14.5 -5.5t6.5 -13.5q0 -4 -27.5 -25.5t-70 -51.5l-93 -65l-96 -66l-80.5 -54.5l-45 -30.5q34 3 68.5 4t68.5 1q66 0 105.5 -8.5t61 -26.5t28.5 -45.5t7 -65.5q0 -33 -2.5 -73.5t-2.5 -90.5
q0 -42 21 -68t65 -26q22 0 36.5 10.5t25 23l18.5 22.5t16 10q5 -3 8.5 -8t3.5 -11q0 -15 -12.5 -30t-30 -26.5t-37 -18.5t-32.5 -7q-38 0 -62 13t-37 34.5t-17.5 50t-4.5 58.5q0 34 3 67t3 60q0 42 -9 66.5t-27.5 36.5t-46.5 15t-66 3q-57 0 -113 -3l-113 -6v-221
q0 -20 -20 -20q-17 0 -17 20v1575zM313 -270q0 9 4 12.5t10 4t12.5 -1t12.5 -1.5q20 0 32.5 8.5t19 22.5t8.5 32t2 37q0 16 -0.5 31t-0.5 29q0 20 3.5 33.5t15.5 13.5q11 0 14.5 -5t3.5 -15v-80q0 -31 -3 -56t-13 -43t-27.5 -27.5t-46.5 -9.5q-3 0 -11 0.5t-16 2t-14 4.5
t-6 8z" />
    <glyph glyph-name="kgreenlandic" unicode="&#x138;" horiz-adv-x="764" 
d="M145 568q0 9 6 15t15 6q10 0 13 -8.5t3 -16.5v-296l454 313l11 7q8 -1 14.5 -5.5t6.5 -13.5q0 -4 -27.5 -25.5t-70 -51.5l-93 -65l-96 -66l-80.5 -54.5l-45 -30.5q34 3 68.5 4t68.5 1q66 0 105.5 -8.5t61 -26.5t28.5 -45.5t7 -65.5q0 -33 -2.5 -73.5t-2.5 -90.5
q0 -42 21 -68t65 -26q22 0 36.5 10.5t25 23l18.5 22.5t16 10q5 -3 8.5 -8t3.5 -11q0 -15 -12.5 -30t-30 -26.5t-37 -18.5t-32.5 -7q-38 0 -62 13t-37 34.5t-17.5 50t-4.5 58.5q0 34 3 67t3 60q0 42 -9 66.5t-27.5 36.5t-46.5 15t-66 3q-57 0 -113 -3l-113 -6v-221
q0 -20 -20 -20q-17 0 -17 20v552z" />
    <glyph glyph-name="Lacute" unicode="&#x139;" horiz-adv-x="1554" 
d="M252 -197h1192q7 0 13.5 -4t6.5 -12q0 -20 -20 -20h-1190q-24 0 -32.5 6.5t-8.5 31.5v1790q0 8 6 14.5t14 6.5q9 0 14 -6t5 -15v-1792zM892 1954q5 0 10 -3.5t5 -9.5q0 -5 -15.5 -23.5t-39.5 -44l-52 -54l-54 -54.5l-45.5 -45l-25.5 -25q-2 -2 -7 -5t-7 -3
q-6 0 -10.5 4.5t-4.5 10.5t15 25t38.5 44l51 53l53 53l45.5 44.5l27 26.5q6 6 16 6z" />
    <glyph glyph-name="lacute" unicode="&#x13a;" horiz-adv-x="356" 
d="M160 1591q0 8 5.5 14.5t14.5 6.5q10 0 13.5 -8.5t3.5 -16.5v-1571q0 -8 -6.5 -14t-14.5 -6q-10 0 -13 5.5t-3 14.5v1575zM294 1975q5 0 10 -3.5t5 -9.5q0 -5 -15.5 -23.5t-39.5 -44l-52 -54l-54 -54.5l-45.5 -45l-25.5 -25q-2 -2 -7 -5t-7 -3q-6 0 -10.5 4.5t-4.5 10.5
t15 25t38.5 44l51 53l53 53l45.5 44.5l27 26.5q6 6 16 6z" />
    <glyph glyph-name="Lcommaaccent" unicode="&#x13b;" horiz-adv-x="1554" 
d="M252 -197h1192q7 0 13.5 -4t6.5 -12q0 -20 -20 -20h-1190q-24 0 -32.5 6.5t-8.5 31.5v1790q0 8 6 14.5t14 6.5q9 0 14 -6t5 -15v-1792zM736 -520q0 9 4 12.5t10 4t12.5 -1t12.5 -1.5q20 0 32.5 8.5t19 22.5t8.5 32t2 37q0 16 -0.5 31t-0.5 29q0 20 3.5 33.5t15.5 13.5
q11 0 14.5 -5t3.5 -15v-80q0 -31 -3 -56t-13 -43t-27.5 -27.5t-46.5 -9.5q-3 0 -11 0.5t-16 2t-14 4.5t-6 8z" />
    <glyph glyph-name="lcommaaccent" unicode="&#x13c;" horiz-adv-x="356" 
d="M160 1591q0 8 5.5 14.5t14.5 6.5q10 0 13.5 -8.5t3.5 -16.5v-1571q0 -8 -6.5 -14t-14.5 -6q-10 0 -13 5.5t-3 14.5v1575zM51 -270q0 9 4 12.5t10 4t12.5 -1t12.5 -1.5q20 0 32.5 8.5t19 22.5t8.5 32t2 37q0 16 -0.5 31t-0.5 29q0 20 3.5 33.5t15.5 13.5q11 0 14.5 -5
t3.5 -15v-80q0 -31 -3 -56t-13 -43t-27.5 -27.5t-46.5 -9.5q-3 0 -11 0.5t-16 2t-14 4.5t-6 8z" />
    <glyph glyph-name="Lcaron" unicode="&#x13d;" horiz-adv-x="1554" 
d="M252 -197h1192q7 0 13.5 -4t6.5 -12q0 -20 -20 -20h-1190q-24 0 -32.5 6.5t-8.5 31.5v1790q0 8 6 14.5t14 6.5q9 0 14 -6t5 -15v-1792zM680 1608q5 0 9 -5t6 -9q-1 -10 -10.5 -32t-23.5 -50t-31 -58.5l-32.5 -59l-29 -52t-19.5 -35.5q-7 -12 -20 -12t-15 16q6 20 25 58.5
l42 81.5l45 83l34 62q7 12 20 12z" />
    <glyph glyph-name="lcaron" unicode="&#x13e;" horiz-adv-x="365" 
d="M160 1591q0 8 5.5 14.5t14.5 6.5q10 0 13.5 -8.5t3.5 -16.5v-1571q0 -8 -6.5 -14t-14.5 -6q-10 0 -13 5.5t-3 14.5v1575zM448 1622q5 0 9 -5t6 -9q-1 -10 -10.5 -32t-23.5 -50t-31 -58.5l-32.5 -59l-29 -52t-19.5 -35.5q-7 -12 -20 -12t-15 16q6 20 25 58.5l42 81.5
l45 83l34 62q7 12 20 12z" />
    <glyph glyph-name="Ldot" unicode="&#x13f;" horiz-adv-x="1554" 
d="M252 -197h1192q7 0 13.5 -4t6.5 -12q0 -20 -20 -20h-1190q-24 0 -32.5 6.5t-8.5 31.5v1790q0 8 6 14.5t14 6.5q9 0 14 -6t5 -15v-1792zM593 606q20 0 34.5 -14.5t14.5 -34.5t-14.5 -34.5t-34.5 -14.5q-18 0 -33.5 15.5t-15.5 33.5q0 19 15 34t34 15z" />
    <glyph glyph-name="ldot" unicode="&#x140;" horiz-adv-x="444" 
d="M160 1591q0 8 5.5 14.5t14.5 6.5q10 0 13.5 -8.5t3.5 -16.5v-1571q0 -8 -6.5 -14t-14.5 -6q-10 0 -13 5.5t-3 14.5v1575zM324 485q20 0 34.5 -14.5t14.5 -34.5t-14.5 -34.5t-34.5 -14.5q-18 0 -33.5 15.5t-15.5 33.5q0 19 15 34t34 15z" />
    <glyph glyph-name="Lslash" unicode="&#x141;" horiz-adv-x="1575" 
d="M231 594q-6 -5 -23.5 -18l-40 -30.5l-48 -36.5l-47.5 -34.5l-38 -26t-20 -10.5q-7 0 -10.5 5.5t-3.5 11.5q0 5 15 19t38.5 32l51.5 38l54 37.5l45.5 31l26.5 18.5v964q0 9 6 15t15 6q18 0 18 -21v-936q9 6 36.5 26.5l66.5 49l86.5 63.5l96 70l94.5 68l82 58.5l59 41
t26 15.5q6 0 11.5 -4t5.5 -11q0 -4 -22 -22.5t-58.5 -46l-84 -62l-98 -71l-100 -71.5l-91 -64.5l-71 -50l-39.5 -27.5v-818h1194q7 0 14 -4t7 -12q0 -12 -5 -16t-16 -4h-1192q-22 0 -31.5 6.5t-9.5 29.5v791z" />
    <glyph glyph-name="lslash" unicode="&#x142;" horiz-adv-x="383" 
d="M172 768q-12 -9 -33.5 -27l-45 -36.5t-45.5 -33.5t-34 -18q-6 1 -10 6t-4 11q0 4 11.5 14.5t29 24l38.5 28.5l40 28.5l33.5 23.5t19.5 14v788q0 9 6 15t15 6q11 0 13.5 -8.5t2.5 -16.5v-756l31.5 24l50 37.5t49 34.5t29.5 15q6 0 11 -3.5t5 -10.5q0 -5 -12 -16t-30 -24.5
l-39.5 -29l-41 -28.5l-34.5 -22.5t-19 -12.5v-779q0 -20 -21 -20q-9 0 -12.5 6t-3.5 14v752z" />
    <glyph glyph-name="Nacute" unicode="&#x143;" horiz-adv-x="1911" 
d="M252 1546v-1767q0 -9 -6 -15t-15 -6q-10 0 -13 6.5t-3 14.5v1814q0 9 2.5 17t13.5 8q10 0 15 -4q2 -5 5.5 -9t6.5 -8l1403 -1767v1765q0 7 4 15t12 8q21 0 21 -23v-1812q0 -9 -3 -17t-14 -8q-10 0 -16.5 7t-11.5 14zM1161 1909q5 0 10 -3.5t5 -9.5q0 -5 -15.5 -23.5
t-39.5 -44l-52 -54l-54 -54.5l-45.5 -45l-25.5 -25q-2 -2 -7 -5t-7 -3q-6 0 -10.5 4.5t-4.5 10.5t15 25t38.5 44l51 53l53 53l45.5 44.5l27 26.5q6 6 16 6z" />
    <glyph glyph-name="nacute" unicode="&#x144;" horiz-adv-x="797" 
d="M162 -4q-11 0 -14 5t-3 15v551q0 9 6 15t15 6q11 0 15 -22t4 -49q0 -23 -1.5 -44t-1.5 -29q31 28 64.5 54t70 46t76 32t82.5 12q53 0 88 -18t56 -49t29.5 -72.5t8.5 -88.5v-344q0 -20 -20 -20q-19 0 -19 20v353q0 40 -7 73.5t-24 57.5t-46 37.5t-74 13.5q-41 0 -80 -14.5
t-75.5 -37.5t-69 -51t-60.5 -55v-377q0 -20 -20 -20zM562 916q5 0 10 -3.5t5 -9.5q0 -5 -15.5 -23.5t-39.5 -44l-52 -54l-54 -54.5l-45.5 -45l-25.5 -25q-2 -2 -7 -5t-7 -3q-6 0 -10.5 4.5t-4.5 10.5t15 25t38.5 44l51 53l53 53l45.5 44.5l27 26.5q6 6 16 6z" />
    <glyph glyph-name="Ncommaaccent" unicode="&#x145;" horiz-adv-x="1911" 
d="M252 1546v-1767q0 -9 -6 -15t-15 -6q-10 0 -13 6.5t-3 14.5v1814q0 9 2.5 17t13.5 8q10 0 15 -4q2 -5 5.5 -9t6.5 -8l1403 -1767v1765q0 7 4 15t12 8q21 0 21 -23v-1812q0 -9 -3 -17t-14 -8q-10 0 -16.5 7t-11.5 14zM884 -403q0 9 4 12.5t10 4t12.5 -1t12.5 -1.5
q20 0 32.5 8.5t19 22.5t8.5 32t2 37q0 16 -0.5 31t-0.5 29q0 20 3.5 33.5t15.5 13.5q11 0 14.5 -5t3.5 -15v-80q0 -31 -3 -56t-13 -43t-27.5 -27.5t-46.5 -9.5q-3 0 -11 0.5t-16 2t-14 4.5t-6 8z" />
    <glyph glyph-name="ncommaaccent" unicode="&#x146;" horiz-adv-x="797" 
d="M162 -4q-11 0 -14 5t-3 15v551q0 9 6 15t15 6q11 0 15 -22t4 -49q0 -23 -1.5 -44t-1.5 -29q31 28 64.5 54t70 46t76 32t82.5 12q53 0 88 -18t56 -49t29.5 -72.5t8.5 -88.5v-344q0 -20 -20 -20q-19 0 -19 20v353q0 40 -7 73.5t-24 57.5t-46 37.5t-74 13.5q-41 0 -80 -14.5
t-75.5 -37.5t-69 -51t-60.5 -55v-377q0 -20 -20 -20zM330 -270q0 9 4 12.5t10 4t12.5 -1t12.5 -1.5q20 0 32.5 8.5t19 22.5t8.5 32t2 37q0 16 -0.5 31t-0.5 29q0 20 3.5 33.5t15.5 13.5q11 0 14.5 -5t3.5 -15v-80q0 -31 -3 -56t-13 -43t-27.5 -27.5t-46.5 -9.5q-3 0 -11 0.5
t-16 2t-14 4.5t-6 8z" />
    <glyph glyph-name="Ncaron" unicode="&#x147;" horiz-adv-x="1911" 
d="M252 1546v-1767q0 -9 -6 -15t-15 -6q-10 0 -13 6.5t-3 14.5v1814q0 9 2.5 17t13.5 8q10 0 15 -4q2 -5 5.5 -9t6.5 -8l1403 -1767v1765q0 7 4 15t12 8q21 0 21 -23v-1812q0 -9 -3 -17t-14 -8q-10 0 -16.5 7t-11.5 14zM736 1923q0 6 5.5 9t10.5 3q6 0 22 -14t36.5 -35
t43 -47l43 -49.5l36.5 -42l22 -25.5l22 25.5l36.5 42l43 49.5t43 47t36.5 35t22 14q5 0 10.5 -3t5.5 -9q0 -9 -6 -16l-191 -208q-8 -10 -22 -10t-24 10q-7 8 -24 25.5l-39 40l-45 47.5l-42.5 47.5t-32 39.5t-12.5 24z" />
    <glyph glyph-name="ncaron" unicode="&#x148;" horiz-adv-x="797" 
d="M162 -4q-11 0 -14 5t-3 15v551q0 9 6 15t15 6q11 0 15 -22t4 -49q0 -23 -1.5 -44t-1.5 -29q31 28 64.5 54t70 46t76 32t82.5 12q53 0 88 -18t56 -49t29.5 -72.5t8.5 -88.5v-344q0 -20 -20 -20q-19 0 -19 20v353q0 40 -7 73.5t-24 57.5t-46 37.5t-74 13.5q-41 0 -80 -14.5
t-75.5 -37.5t-69 -51t-60.5 -55v-377q0 -20 -20 -20zM180 893q0 6 5.5 9t10.5 3q6 0 22 -14t36.5 -35t43 -47l43 -49.5l36.5 -42l22 -25.5l22 25.5l36.5 42l43 49.5t43 47t36.5 35t22 14q5 0 10.5 -3t5.5 -9q0 -9 -6 -16l-191 -208q-8 -10 -22 -10t-24 10q-7 8 -24 25.5
l-39 40l-45 47.5l-42.5 47.5t-32 39.5t-12.5 24z" />
    <glyph glyph-name="napostrophe" unicode="&#x149;" horiz-adv-x="797" 
d="M162 -4q-11 0 -14 5t-3 15v551q0 9 6 15t15 6q11 0 15 -22t4 -49q0 -23 -1.5 -44t-1.5 -29q31 28 64.5 54t70 46t76 32t82.5 12q53 0 88 -18t56 -49t29.5 -72.5t8.5 -88.5v-344q0 -20 -20 -20q-19 0 -19 20v353q0 40 -7 73.5t-24 57.5t-46 37.5t-74 13.5q-41 0 -80 -14.5
t-75.5 -37.5t-69 -51t-60.5 -55v-377q0 -20 -20 -20zM51 715q0 9 4 12.5t10 4t12.5 -1t12.5 -1.5q20 0 32.5 8.5t19 22.5t8.5 32t2 37q0 16 -0.5 31t-0.5 29q0 20 3.5 33.5t15.5 13.5q11 0 14.5 -5t3.5 -15v-80q0 -31 -3 -56t-13 -43t-27.5 -27.5t-46.5 -9.5q-3 0 -11 0.5
t-16 2t-14 4.5t-6 8z" />
    <glyph glyph-name="Eng" unicode="&#x14a;" horiz-adv-x="1911" 
d="M252 1546v-1767q0 -9 -6 -15t-15 -6q-10 0 -13 6.5t-3 14.5v1814q0 9 2.5 17t13.5 8q10 0 15 -4q2 -5 5.5 -9t6.5 -8l1403 -1767v1765q0 7 4 15t12 8q21 0 21 -23v-1812q0 -8 -1 -12v-92q0 -63 -14.5 -121.5t-46 -104t-81 -73t-120.5 -27.5q-10 0 -22.5 3.5t-12.5 15.5
q0 15 10 17.5t21 2.5q67 0 111 25.5t70.5 67.5t37.5 96t11 112v76l-8 10z" />
    <glyph glyph-name="eng" unicode="&#x14b;" horiz-adv-x="797" 
d="M654 -45q0 -63 -14.5 -121.5t-46 -104t-81 -73t-120.5 -27.5q-10 0 -22.5 3.5t-12.5 15.5q0 15 10 17.5t21 2.5q67 0 111 25.5t70.5 67.5t37.5 96t11 112v43v4v353q0 40 -7 73.5t-24 57.5t-46 37.5t-74 13.5q-41 0 -80 -14.5t-75.5 -37.5t-69 -51t-60.5 -55v-377
q0 -20 -20 -20q-11 0 -14 5t-3 15v551q0 9 6 15t15 6q11 0 15 -22t4 -49q0 -23 -1.5 -44t-1.5 -29q31 28 64.5 54t70 46t76 32t82.5 12q53 0 88 -18t56 -49t29.5 -72.5t8.5 -88.5v-344q0 -7 -3 -11v-50z" />
    <glyph glyph-name="Omacron" unicode="&#x14c;" horiz-adv-x="2066" 
d="M137 692q0 -123 32.5 -237t91 -213.5t141 -181.5t182 -141t213.5 -91.5t237 -32.5q124 0 238.5 32t214 90.5t181 140.5t139.5 181.5t90 214t32 238.5q0 125 -31.5 240.5t-88.5 215.5t-138.5 181.5t-180.5 140t-214.5 90t-241.5 31.5q-124 0 -238.5 -32.5t-214 -91
t-181.5 -140.5t-140.5 -182t-90.5 -215t-32 -238zM100 692q0 130 33 249.5t94 223.5t146 189t188.5 145.5t223.5 93.5t249 33q131 0 251 -33t223.5 -93t188.5 -145t145 -189t93 -224t33 -250q0 -129 -33.5 -248.5t-94 -223t-146 -189t-189 -146t-223 -94t-248.5 -33.5
q-128 0 -246.5 33.5t-222.5 95t-189.5 147t-147 189.5t-95 222.5t-33.5 246.5zM1230 1808q7 0 13.5 -4t6.5 -12q0 -11 -7.5 -14t-16.5 -3h-390q-7 0 -13.5 4.5t-6.5 12.5t6.5 12t13.5 4h394z" />
    <glyph glyph-name="omacron" unicode="&#x14d;" horiz-adv-x="743" 
d="M373 551q-55 0 -103 -20.5t-84 -56.5t-56.5 -84t-20.5 -103q0 -54 21 -102t57 -84t84 -57t102 -21q55 0 103 20.5t83 56.5t55.5 84t20.5 103q0 56 -20 104t-55 83.5t-83 56t-104 20.5zM373 588q63 0 118 -23t95.5 -63.5t64 -95.5t23.5 -119q0 -62 -23.5 -117t-64.5 -96
t-95.5 -64.5t-117.5 -23.5q-62 0 -116.5 24t-95.5 65t-65 95.5t-24 116.5q0 63 23.5 118t64.5 95.5t95.5 64t117.5 23.5zM569 778q7 0 13.5 -4t6.5 -12q0 -11 -7.5 -14t-16.5 -3h-390q-7 0 -13.5 4.5t-6.5 12.5t6.5 12t13.5 4h394z" />
    <glyph glyph-name="Obreve" unicode="&#x14e;" horiz-adv-x="2066" 
d="M137 692q0 -123 32.5 -237t91 -213.5t141 -181.5t182 -141t213.5 -91.5t237 -32.5q124 0 238.5 32t214 90.5t181 140.5t139.5 181.5t90 214t32 238.5q0 125 -31.5 240.5t-88.5 215.5t-138.5 181.5t-180.5 140t-214.5 90t-241.5 31.5q-124 0 -238.5 -32.5t-214 -91
t-181.5 -140.5t-140.5 -182t-90.5 -215t-32 -238zM100 692q0 130 33 249.5t94 223.5t146 189t188.5 145.5t223.5 93.5t249 33q131 0 251 -33t223.5 -93t188.5 -145t145 -189t93 -224t33 -250q0 -129 -33.5 -248.5t-94 -223t-146 -189t-189 -146t-223 -94t-248.5 -33.5
q-128 0 -246.5 33.5t-222.5 95t-189.5 147t-147 189.5t-95 222.5t-33.5 246.5zM803 1929q6 0 9 -7.5t4.5 -17.5t2.5 -20t2 -14q9 -34 31.5 -58t53 -39.5t64.5 -22.5t66 -7q36 0 70.5 9.5t64.5 29.5q25 17 46.5 42.5t27.5 55.5l2.5 13t4 16t6.5 14t10 6q10 0 13 -8.5t3 -16.5
q0 -46 -24.5 -82t-61.5 -60.5t-81.5 -37t-84.5 -12.5q-44 0 -88.5 11.5t-80.5 35.5t-58.5 60.5t-22.5 87.5q0 22 21 22z" />
    <glyph glyph-name="obreve" unicode="&#x14f;" horiz-adv-x="743" 
d="M373 551q-55 0 -103 -20.5t-84 -56.5t-56.5 -84t-20.5 -103q0 -54 21 -102t57 -84t84 -57t102 -21q55 0 103 20.5t83 56.5t55.5 84t20.5 103q0 56 -20 104t-55 83.5t-83 56t-104 20.5zM373 588q63 0 118 -23t95.5 -63.5t64 -95.5t23.5 -119q0 -62 -23.5 -117t-64.5 -96
t-95.5 -64.5t-117.5 -23.5q-62 0 -116.5 24t-95.5 65t-65 95.5t-24 116.5q0 63 23.5 118t64.5 95.5t95.5 64t117.5 23.5zM142 899q6 0 9 -7.5t4.5 -17.5t2.5 -20t2 -14q9 -34 31.5 -58t53 -39.5t64.5 -22.5t66 -7q36 0 70.5 9.5t64.5 29.5q25 17 46.5 42.5t27.5 55.5l2.5 13
t4 16t6.5 14t10 6q10 0 13 -8.5t3 -16.5q0 -46 -24.5 -82t-61.5 -60.5t-81.5 -37t-84.5 -12.5q-44 0 -88.5 11.5t-80.5 35.5t-58.5 60.5t-22.5 87.5q0 22 21 22z" />
    <glyph glyph-name="Ohungarumlaut" unicode="&#x150;" horiz-adv-x="2066" 
d="M137 692q0 -123 32.5 -237t91 -213.5t141 -181.5t182 -141t213.5 -91.5t237 -32.5q124 0 238.5 32t214 90.5t181 140.5t139.5 181.5t90 214t32 238.5q0 125 -31.5 240.5t-88.5 215.5t-138.5 181.5t-180.5 140t-214.5 90t-241.5 31.5q-124 0 -238.5 -32.5t-214 -91
t-181.5 -140.5t-140.5 -182t-90.5 -215t-32 -238zM100 692q0 130 33 249.5t94 223.5t146 189t188.5 145.5t223.5 93.5t249 33q131 0 251 -33t223.5 -93t188.5 -145t145 -189t93 -224t33 -250q0 -129 -33.5 -248.5t-94 -223t-146 -189t-189 -146t-223 -94t-248.5 -33.5
q-128 0 -246.5 33.5t-222.5 95t-189.5 147t-147 189.5t-95 222.5t-33.5 246.5zM1296 1959q6 0 10.5 -5t4.5 -11q0 -4 -11 -22.5t-28.5 -44l-38 -55l-39 -56l-32.5 -46l-19 -26.5q-5 -8 -15 -8q-5 0 -11.5 3.5t-6.5 10.5q0 1 12 20.5l31 48.5l41 62.5t43 62t37 47.5t22 19z
M1073 1959q6 0 11 -5t5 -11q0 -4 -11 -22.5t-28 -44l-37.5 -55l-39.5 -56l-33 -46.5l-19 -27q-4 -7 -14 -7q-5 0 -11.5 3.5t-6.5 10.5q0 5 12.5 26t32 50l42.5 61.5l43.5 59.5l35 45t18.5 18z" />
    <glyph glyph-name="ohungarumlaut" unicode="&#x151;" horiz-adv-x="743" 
d="M373 551q-55 0 -103 -20.5t-84 -56.5t-56.5 -84t-20.5 -103q0 -54 21 -102t57 -84t84 -57t102 -21q55 0 103 20.5t83 56.5t55.5 84t20.5 103q0 56 -20 104t-55 83.5t-83 56t-104 20.5zM373 588q63 0 118 -23t95.5 -63.5t64 -95.5t23.5 -119q0 -62 -23.5 -117t-64.5 -96
t-95.5 -64.5t-117.5 -23.5q-62 0 -116.5 24t-95.5 65t-65 95.5t-24 116.5q0 63 23.5 118t64.5 95.5t95.5 64t117.5 23.5zM629 936q6 0 10.5 -5t4.5 -11q0 -4 -11 -22.5t-28.5 -44l-38 -55l-39 -56l-33 -46.5t-18.5 -26q-5 -8 -15 -8q-5 0 -11.5 3.5t-6.5 10.5q0 1 12 20.5
l31 48.5l41 62.5t43 62t37 47.5t22 19zM406 936q6 0 11 -5t5 -11q0 -4 -11 -22.5t-28 -44l-37.5 -55l-39.5 -56l-33 -46.5l-19 -27q-4 -7 -14 -7q-5 0 -11.5 3.5t-6.5 10.5q0 5 12.5 26t32 50l42.5 61.5l43.5 59.5l35 45t18.5 18z" />
    <glyph glyph-name="OE" unicode="&#x152;" horiz-adv-x="2830" 
d="M1575 -25v349h-193q-20 0 -20 20q0 12 28 16t65 4t71.5 -2t48.5 -2v1051q-125 88 -256 134t-285 46q-124 0 -238.5 -32t-214 -91t-181.5 -141t-140.5 -182t-90.5 -214.5t-32 -238.5q0 -123 32.5 -237t91 -213.5t141 -181.5t182 -141t213.5 -91.5t237 -32.5q152 0 284 48
t257 132zM1575 -68q-125 -82 -257.5 -128t-283.5 -46q-128 0 -247 33.5t-222.5 94.5t-189.5 147t-147 189.5t-94.5 222.5t-33.5 247q0 129 33 248.5t93.5 223t145.5 189t189 146t223.5 94t249.5 33.5q151 0 283.5 -43.5t257.5 -126.5v129q0 15 14 19t25 4h1050
q8 0 14.5 -6.5t6.5 -14.5q0 -10 -6.5 -13t-14.5 -3h-1052v-1211h1085q8 0 14.5 -5.5t6.5 -14.5t-6.5 -12.5t-14.5 -3.5h-1085v-521h1052q7 0 14 -4t7 -12q0 -12 -5 -16t-16 -4h-1050q-23 0 -31 6t-8 30v129z" />
    <glyph glyph-name="oe" unicode="&#x153;" horiz-adv-x="1294" 
d="M670 320l516 -1q-6 56 -28 99.5t-57 73.5t-81.5 45.5t-101.5 15.5q-49 0 -92.5 -18.5t-77 -50t-54 -74t-24.5 -90.5zM109 287q0 -54 21 -102t57 -84t84 -57t102 -21q55 0 103 20.5t83 56.5t55.5 84t20.5 103t-20 103.5t-55.5 84t-83.5 56t-103 20.5t-103 -20.5t-84 -56.5
t-56.5 -84t-20.5 -103zM670 283q0 -62 19 -110t54.5 -81.5t85 -51t109.5 -17.5q58 0 99.5 15t69 33.5t43.5 34.5t24 17q2 2 7 6t9 4q16 0 16 -16q0 -6 -3 -12t-7 -11q-50 -57 -120.5 -82.5t-143.5 -25.5q-48 0 -92.5 12t-81 35.5t-63.5 59t-42 83.5q-19 -43 -47.5 -78
t-64.5 -60t-78.5 -38.5t-89.5 -13.5q-62 0 -116.5 24t-95.5 65t-65 95.5t-24 116.5t23.5 117t64.5 96t95.5 64.5t117.5 23.5q97 0 171 -52.5t109 -142.5q16 46 44.5 82.5t65.5 62t81 39t92 13.5q57 0 109.5 -22t92.5 -60.5t63.5 -89.5t23.5 -109q0 -15 -7.5 -20.5
t-21.5 -5.5h-526z" />
    <glyph glyph-name="Racute" unicode="&#x154;" horiz-adv-x="1694" 
d="M674 473l49.5 -33.5l90 -59.5l119.5 -79l137.5 -92l146 -98l144 -96.5l131 -88.5l107.5 -74.5l73.5 -52.5t29.5 -24q0 -8 -5.5 -13.5t-13.5 -5.5q-3 0 -47 29l-115.5 76.5l-162.5 108l-187.5 125.5l-190.5 128l-171.5 115.5l-131.5 88.5l-69 46q-7 5 -13.5 9t-6.5 14
q0 11 20 14t46 3q16 0 32 -1t30 -1.5t24.5 -1.5t13.5 -1q70 0 141 2.5t140 13.5q106 18 188 60.5t138 107.5t85 152.5t29 195.5q0 93 -26 176t-75.5 149.5t-122 114t-164.5 68.5q-63 14 -127.5 17.5t-128.5 3.5h-579v-1790q0 -9 -6 -15t-15 -6t-13.5 6.5t-4.5 14.5v1806
q0 7 4.5 12t11 7t13.5 3t12 1h604q138 0 257.5 -32.5t207.5 -101.5t138 -176.5t50 -257.5q0 -107 -26.5 -191t-73.5 -148t-112 -108.5t-142.5 -72.5t-164.5 -41t-177 -13q-35 0 -70.5 1.5t-70.5 5.5zM962 1954q5 0 10 -3.5t5 -9.5q0 -5 -15.5 -23.5t-39.5 -44l-52 -54
l-54 -54.5l-45.5 -45l-25.5 -25q-2 -2 -7 -5t-7 -3q-6 0 -10.5 4.5t-4.5 10.5t15 25t38.5 44l51 53l53 53l45.5 44.5l27 26.5q6 6 16 6z" />
    <glyph glyph-name="racute" unicode="&#x155;" horiz-adv-x="741" 
d="M176 551q-25 0 -50.5 -12.5t-48 -27.5t-39.5 -27.5t-24 -12.5q-5 0 -9.5 4t-6.5 8q0 16 22.5 34t53.5 34t61.5 26.5t46.5 10.5q40 0 61 -18.5t30 -47t9.5 -61.5t0.5 -62l61.5 58.5t73 61.5t79.5 49t81 20q65 0 103 -40t38 -104q0 -22 -8.5 -49.5t-24 -52t-37 -41
t-47.5 -16.5q-6 0 -9 4.5t-3 9.5q0 7 14.5 15.5t32.5 22.5t32.5 37t14.5 60q0 54 -28.5 85.5t-84.5 31.5q-34 0 -75 -22.5t-81 -54t-75 -65l-57 -55.5v-338q0 -9 -6.5 -14.5t-14.5 -5.5q-11 0 -13.5 5.5t-2.5 14.5v412q0 20 -1 41.5t-7.5 39.5t-21 30t-40.5 12zM486 924
q5 0 10 -3.5t5 -9.5q0 -5 -15.5 -23.5t-39.5 -44l-52 -54l-54 -54.5l-45.5 -45l-25.5 -25q-2 -2 -7 -5t-7 -3q-6 0 -10.5 4.5t-4.5 10.5t15 25t38.5 44l51 53l53 53l45.5 44.5l27 26.5q6 6 16 6z" />
    <glyph glyph-name="Rcommaaccent" unicode="&#x156;" horiz-adv-x="1694" 
d="M674 473l49.5 -33.5l90 -59.5l119.5 -79l137.5 -92l146 -98l144 -96.5l131 -88.5l107.5 -74.5l73.5 -52.5t29.5 -24q0 -8 -5.5 -13.5t-13.5 -5.5q-3 0 -47 29l-115.5 76.5l-162.5 108l-187.5 125.5l-190.5 128l-171.5 115.5l-131.5 88.5l-69 46q-7 5 -13.5 9t-6.5 14
q0 11 20 14t46 3q16 0 32 -1t30 -1.5t24.5 -1.5t13.5 -1q70 0 141 2.5t140 13.5q106 18 188 60.5t138 107.5t85 152.5t29 195.5q0 93 -26 176t-75.5 149.5t-122 114t-164.5 68.5q-63 14 -127.5 17.5t-128.5 3.5h-579v-1790q0 -9 -6 -15t-15 -6t-13.5 6.5t-4.5 14.5v1806
q0 7 4.5 12t11 7t13.5 3t12 1h604q138 0 257.5 -32.5t207.5 -101.5t138 -176.5t50 -257.5q0 -107 -26.5 -191t-73.5 -148t-112 -108.5t-142.5 -72.5t-164.5 -41t-177 -13q-35 0 -70.5 1.5t-70.5 5.5zM778 -408q0 9 4 12.5t10 4t12.5 -1t12.5 -1.5q20 0 32.5 8.5t19 22.5
t8.5 32t2 37q0 16 -0.5 31t-0.5 29q0 20 3.5 33.5t15.5 13.5q11 0 14.5 -5t3.5 -15v-80q0 -31 -3 -56t-13 -43t-27.5 -27.5t-46.5 -9.5q-3 0 -11 0.5t-16 2t-14 4.5t-6 8z" />
    <glyph glyph-name="rcommaaccent" unicode="&#x157;" horiz-adv-x="741" 
d="M176 551q-25 0 -50.5 -12.5t-48 -27.5t-39.5 -27.5t-24 -12.5q-5 0 -9.5 4t-6.5 8q0 16 22.5 34t53.5 34t61.5 26.5t46.5 10.5q40 0 61 -18.5t30 -47t9.5 -61.5t0.5 -62l61.5 58.5t73 61.5t79.5 49t81 20q65 0 103 -40t38 -104q0 -22 -8.5 -49.5t-24 -52t-37 -41
t-47.5 -16.5q-6 0 -9 4.5t-3 9.5q0 7 14.5 15.5t32.5 22.5t32.5 37t14.5 60q0 54 -28.5 85.5t-84.5 31.5q-34 0 -75 -22.5t-81 -54t-75 -65l-57 -55.5v-338q0 -9 -6.5 -14.5t-14.5 -5.5q-11 0 -13.5 5.5t-2.5 14.5v412q0 20 -1 41.5t-7.5 39.5t-21 30t-40.5 12zM145 -270
q0 9 4 12.5t10 4t12.5 -1t12.5 -1.5q20 0 32.5 8.5t19 22.5t8.5 32t2 37q0 16 -0.5 31t-0.5 29q0 20 3.5 33.5t15.5 13.5q11 0 14.5 -5t3.5 -15v-80q0 -31 -3 -56t-13 -43t-27.5 -27.5t-46.5 -9.5q-3 0 -11 0.5t-16 2t-14 4.5t-6 8z" />
    <glyph glyph-name="Rcaron" unicode="&#x158;" horiz-adv-x="1694" 
d="M674 473l49.5 -33.5l90 -59.5l119.5 -79l137.5 -92l146 -98l144 -96.5l131 -88.5l107.5 -74.5l73.5 -52.5t29.5 -24q0 -8 -5.5 -13.5t-13.5 -5.5q-3 0 -47 29l-115.5 76.5l-162.5 108l-187.5 125.5l-190.5 128l-171.5 115.5l-131.5 88.5l-69 46q-7 5 -13.5 9t-6.5 14
q0 11 20 14t46 3q16 0 32 -1t30 -1.5t24.5 -1.5t13.5 -1q70 0 141 2.5t140 13.5q106 18 188 60.5t138 107.5t85 152.5t29 195.5q0 93 -26 176t-75.5 149.5t-122 114t-164.5 68.5q-63 14 -127.5 17.5t-128.5 3.5h-579v-1790q0 -9 -6 -15t-15 -6t-13.5 6.5t-4.5 14.5v1806
q0 7 4.5 12t11 7t13.5 3t12 1h604q138 0 257.5 -32.5t207.5 -101.5t138 -176.5t50 -257.5q0 -107 -26.5 -191t-73.5 -148t-112 -108.5t-142.5 -72.5t-164.5 -41t-177 -13q-35 0 -70.5 1.5t-70.5 5.5zM628 1923q0 6 5.5 9t10.5 3q6 0 22 -14t36.5 -35t43 -47l43 -49.5
l36.5 -42l22 -25.5l22 25.5l36.5 42l43 49.5t43 47t36.5 35t22 14q5 0 10.5 -3t5.5 -9q0 -9 -6 -16l-191 -208q-8 -10 -22 -10t-24 10q-7 8 -24 25.5l-39 40l-45 47.5l-42.5 47.5t-32 39.5t-12.5 24z" />
    <glyph glyph-name="rcaron" unicode="&#x159;" horiz-adv-x="741" 
d="M176 551q-25 0 -50.5 -12.5t-48 -27.5t-39.5 -27.5t-24 -12.5q-5 0 -9.5 4t-6.5 8q0 16 22.5 34t53.5 34t61.5 26.5t46.5 10.5q40 0 61 -18.5t30 -47t9.5 -61.5t0.5 -62l61.5 58.5t73 61.5t79.5 49t81 20q65 0 103 -40t38 -104q0 -22 -8.5 -49.5t-24 -52t-37 -41
t-47.5 -16.5q-6 0 -9 4.5t-3 9.5q0 7 14.5 15.5t32.5 22.5t32.5 37t14.5 60q0 54 -28.5 85.5t-84.5 31.5q-34 0 -75 -22.5t-81 -54t-75 -65l-57 -55.5v-338q0 -9 -6.5 -14.5t-14.5 -5.5q-11 0 -13.5 5.5t-2.5 14.5v412q0 20 -1 41.5t-7.5 39.5t-21 30t-40.5 12zM152 893
q0 6 5.5 9t10.5 3q6 0 22 -14t36.5 -35t43 -47l43 -49.5l36.5 -42l22 -25.5l22 25.5l36.5 42l43 49.5t43 47t36.5 35t22 14q5 0 10.5 -3t5.5 -9q0 -9 -6 -16l-191 -208q-8 -10 -22 -10t-24 10q-7 8 -24 25.5l-39 40l-45 47.5l-42.5 47.5t-32 39.5t-12.5 24z" />
    <glyph glyph-name="Sacute" unicode="&#x15a;" horiz-adv-x="1679" 
d="M1581 1294q0 -8 -6 -14t-14 -6q-8 3 -12 7.5l-9 10.5q-60 78 -143.5 134t-179 91t-196.5 51.5t-196 16.5q-72 0 -149.5 -11t-151.5 -34.5t-140.5 -60.5t-116.5 -89.5t-79.5 -121.5t-29.5 -156q0 -111 47.5 -185.5t123 -122.5t168.5 -74.5t185 -41.5q55 -9 118.5 -16
t130 -16t133.5 -22t128 -33.5t114 -51t91.5 -74.5t61 -103.5t22.5 -138.5q0 -84 -26 -151.5t-71 -121t-105.5 -92.5t-129.5 -64t-143 -37.5t-146 -12.5q-150 0 -283.5 39t-254.5 129q-3 2 -15.5 11t-26 20.5t-24 23.5t-10.5 21q0 8 5.5 12t12.5 4q9 0 15 -4t12 -10
q56 -55 123 -94.5t139.5 -65.5t150 -38.5t154.5 -12.5q66 0 135.5 11.5t134.5 34.5t122.5 59t100.5 85t68 112t25 140q0 96 -36.5 161.5t-97 109t-138.5 68t-161 39t-164.5 22.5t-148.5 18q-68 10 -137.5 25t-133.5 39t-120 58t-97 82t-65 111.5t-24 145.5q0 97 31.5 173
t85.5 133t126 96.5t153 63.5t166 35t165 11q87 0 173.5 -13t169 -40.5t158.5 -70t142 -100.5q26 -23 51 -47.5t39 -56.5zM955 1954q5 0 10 -3.5t5 -9.5q0 -5 -15.5 -23.5t-39.5 -44l-52 -54l-54 -54.5l-45.5 -45l-25.5 -25q-2 -2 -7 -5t-7 -3q-6 0 -10.5 4.5t-4.5 10.5
t15 25t38.5 44l51 53l53 53l45.5 44.5l27 26.5q6 6 16 6z" />
    <glyph glyph-name="sacute" unicode="&#x15b;" horiz-adv-x="569" 
d="M170 49l4 -4q47 -22 102 -22q23 0 44.5 5t38.5 16t27.5 29t10.5 44q0 34 -21 55t-52 35.5t-68 26.5t-68 29.5t-52 44.5t-21 71q0 51 20.5 90.5t55 65.5t78.5 39.5t91 13.5q9 0 32 -3t47 -9.5t42.5 -16.5t18.5 -24q0 -17 -17 -17q-5 0 -18.5 5.5t-32 12t-40 12t-42.5 5.5
q-38 0 -74 -11t-64 -32.5t-45 -53.5t-17 -73q0 -38 21 -61t53 -38.5t69 -27.5t69 -28t53 -40.5t21 -64.5q0 -34 -13.5 -59.5t-36 -43t-52 -26t-60.5 -8.5q-9 0 -31 2t-44.5 7.5t-40 14t-17.5 21.5q0 14 9.5 16t19.5 2zM496 918q5 0 10 -3.5t5 -9.5q0 -5 -15.5 -23.5
t-39.5 -44l-52 -54l-54 -54.5l-45.5 -45l-25.5 -25q-2 -2 -7 -5t-7 -3q-6 0 -10.5 4.5t-4.5 10.5t15 25t38.5 44l51 53l53 53l45.5 44.5l27 26.5q6 6 16 6z" />
    <glyph glyph-name="Scircumflex" unicode="&#x15c;" horiz-adv-x="1679" 
d="M1581 1294q0 -8 -6 -14t-14 -6q-8 3 -12 7.5l-9 10.5q-60 78 -143.5 134t-179 91t-196.5 51.5t-196 16.5q-72 0 -149.5 -11t-151.5 -34.5t-140.5 -60.5t-116.5 -89.5t-79.5 -121.5t-29.5 -156q0 -111 47.5 -185.5t123 -122.5t168.5 -74.5t185 -41.5q55 -9 118.5 -16
t130 -16t133.5 -22t128 -33.5t114 -51t91.5 -74.5t61 -103.5t22.5 -138.5q0 -84 -26 -151.5t-71 -121t-105.5 -92.5t-129.5 -64t-143 -37.5t-146 -12.5q-150 0 -283.5 39t-254.5 129q-3 2 -15.5 11t-26 20.5t-24 23.5t-10.5 21q0 8 5.5 12t12.5 4q9 0 15 -4t12 -10
q56 -55 123 -94.5t139.5 -65.5t150 -38.5t154.5 -12.5q66 0 135.5 11.5t134.5 34.5t122.5 59t100.5 85t68 112t25 140q0 96 -36.5 161.5t-97 109t-138.5 68t-161 39t-164.5 22.5t-148.5 18q-68 10 -137.5 25t-133.5 39t-120 58t-97 82t-65 111.5t-24 145.5q0 97 31.5 173
t85.5 133t126 96.5t153 63.5t166 35t165 11q87 0 173.5 -13t169 -40.5t158.5 -70t142 -100.5q26 -23 51 -47.5t39 -56.5zM1058 1704q0 -5 -5.5 -10t-10.5 -5t-20 14.5l-36 36t-44.5 48l-44.5 50l-37 42l-21 24.5l-21 -24l-37 -42l-44.5 -50l-44 -48t-36 -36.5t-20.5 -14.5
q-6 0 -11 4.5t-5 10.5q0 7 12.5 24t32 39l43 46.5l45.5 47l39 39.5t24 25q4 5 10.5 8.5t12.5 3.5t13.5 -3.5t11.5 -8.5q7 -8 24 -25l38.5 -39.5l44.5 -47l42.5 -46.5t32 -39t12.5 -24z" />
    <glyph glyph-name="scircumflex" unicode="&#x15d;" horiz-adv-x="569" 
d="M170 49l4 -4q47 -22 102 -22q23 0 44.5 5t38.5 16t27.5 29t10.5 44q0 34 -21 55t-52 35.5t-68 26.5t-68 29.5t-52 44.5t-21 71q0 51 20.5 90.5t55 65.5t78.5 39.5t91 13.5q9 0 32 -3t47 -9.5t42.5 -16.5t18.5 -24q0 -17 -17 -17q-5 0 -18.5 5.5t-32 12t-40 12t-42.5 5.5
q-38 0 -74 -11t-64 -32.5t-45 -53.5t-17 -73q0 -38 21 -61t53 -38.5t69 -27.5t69 -28t53 -40.5t21 -64.5q0 -34 -13.5 -59.5t-36 -43t-52 -26t-60.5 -8.5q-9 0 -31 2t-44.5 7.5t-40 14t-17.5 21.5q0 14 9.5 16t19.5 2zM504 653q0 -5 -5.5 -10t-10.5 -5t-20 14.5l-36 36
t-44.5 48l-44.5 50l-37 42l-21 24.5l-21 -24l-37 -42l-44.5 -50l-44 -48t-36 -36.5t-20.5 -14.5q-6 0 -11 4.5t-5 10.5q0 7 12.5 24t32 39l43 46.5l45.5 47l39 39.5t24 25q4 5 10.5 8.5t12.5 3.5t13.5 -3.5t11.5 -8.5q7 -8 24 -25l38.5 -39.5l44.5 -47l42.5 -46.5t32 -39
t12.5 -24z" />
    <glyph glyph-name="Scedilla" unicode="&#x15e;" horiz-adv-x="1679" 
d="M1581 1294q0 -8 -6 -14t-14 -6q-8 3 -12 7.5l-9 10.5q-59 78 -143 134t-179.5 91t-197 51.5t-195.5 16.5q-72 0 -149.5 -11t-151.5 -34.5t-140.5 -60.5t-116.5 -89.5t-79.5 -121.5t-29.5 -156q0 -111 47.5 -185.5t123 -122.5t168.5 -74.5t185 -41.5q55 -9 118.5 -16
t130 -16t133.5 -22t128 -33.5t114 -51t91.5 -74.5t61 -103.5t22.5 -138.5q0 -84 -26 -152t-71 -121t-105.5 -92t-130 -64.5t-144 -37.5t-146.5 -12v-94q11 0 21.5 1t21.5 1q34 0 65 -8t55 -25t38 -44t14 -64q0 -42 -16.5 -71t-43.5 -47t-62 -26t-72 -8q-11 0 -44 1.5t-69 6
t-64 13t-28 22.5q0 5 4.5 9t9.5 4t11 -2t11 -3q88 -20 175 -20q30 0 58 5.5t50.5 19.5t36 36.5t13.5 57.5q0 39 -14 61.5t-36.5 33.5t-51 14t-57.5 3h-44q-9 0 -12 17t-3 39q0 21 1.5 40t1.5 27q-140 5 -266 44t-240 124l-16 12l-25.5 20t-24 23t-10.5 21q0 8 5.5 12t12.5 4
q9 0 15 -4t12 -10q56 -55 122.5 -94.5t140 -65.5t150.5 -38.5t154 -12.5q66 0 135.5 11.5t134.5 34.5t122.5 59t100.5 85t68 112t25 140q0 96 -36.5 162t-97 109t-138.5 67.5t-161 39t-164.5 22.5t-148.5 18q-68 10 -137.5 25.5t-133.5 39t-120 57.5t-97 82t-65 111.5
t-24 145.5q0 97 31.5 173t85.5 133t126 96.5t152.5 63.5t166 35t165.5 11q87 0 173.5 -13t169 -40.5t158.5 -70t142 -100.5q26 -23 51 -47.5t39 -56.5z" />
    <glyph glyph-name="scedilla" unicode="&#x15f;" horiz-adv-x="569" 
d="M170 49l4 -4q47 -22 102 -22q23 0 44.5 5t38.5 16t27.5 29t10.5 44q0 34 -21 55t-52 35.5t-68 26.5t-68 29.5t-52 44.5t-21 71q0 51 20.5 90.5t55 65.5t78.5 39.5t91 13.5q9 0 32 -3t47 -9.5t42.5 -16.5t18.5 -24q0 -17 -17 -17q-5 0 -18.5 5.5t-32 12t-40 12t-42.5 5.5
q-38 0 -74 -11t-64 -32.5t-45 -53t-17 -73.5q0 -38 21 -61t53 -38.5t69 -27t69 -28t53 -41t21 -64.5q0 -33 -12 -57.5t-32.5 -41.5t-47.5 -26.5t-57 -11.5v-46q25 0 50.5 -2.5t46 -12t33.5 -28.5t13 -51q0 -29 -11.5 -48t-30.5 -30.5t-42.5 -16.5t-48.5 -5q-8 0 -30.5 1
t-46.5 4.5t-43 9.5t-19 16q2 4 5 8t8 4q32 0 64.5 -8.5t66.5 -8.5q18 0 36 3.5t32 12.5t23 23t9 35q0 23 -8 36.5t-21.5 20.5t-30.5 9t-35 2h-35q-8 0 -11 10t-3 24q0 11 1 22t1 16q-9 0 -28.5 3t-39.5 8t-35.5 13.5t-15.5 20.5q0 14 9.5 16t19.5 2z" />
    <glyph glyph-name="Scaron" unicode="&#x160;" horiz-adv-x="1679" 
d="M1581 1294q0 -8 -6 -14t-14 -6q-8 3 -12 7.5l-9 10.5q-60 78 -143.5 134t-179 91t-196.5 51.5t-196 16.5q-72 0 -149.5 -11t-151.5 -34.5t-140.5 -60.5t-116.5 -89.5t-79.5 -121.5t-29.5 -156q0 -111 47.5 -185.5t123 -122.5t168.5 -74.5t185 -41.5q55 -9 118.5 -16
t130 -16t133.5 -22t128 -33.5t114 -51t91.5 -74.5t61 -103.5t22.5 -138.5q0 -84 -26 -151.5t-71 -121t-105.5 -92.5t-129.5 -64t-143 -37.5t-146 -12.5q-150 0 -283.5 39t-254.5 129q-3 2 -15.5 11t-26 20.5t-24 23.5t-10.5 21q0 8 5.5 12t12.5 4q9 0 15 -4t12 -10
q56 -55 123 -94.5t139.5 -65.5t150 -38.5t154.5 -12.5q66 0 135.5 11.5t134.5 34.5t122.5 59t100.5 85t68 112t25 140q0 96 -36.5 161.5t-97 109t-138.5 68t-161 39t-164.5 22.5t-148.5 18q-68 10 -137.5 25t-133.5 39t-120 58t-97 82t-65 111.5t-24 145.5q0 97 31.5 173
t85.5 133t126 96.5t153 63.5t166 35t165 11q87 0 173.5 -13t169 -40.5t158.5 -70t142 -100.5q26 -23 51 -47.5t39 -56.5zM621 1933q0 6 5.5 9t10.5 3q6 0 22 -14t36.5 -35t43 -47l43 -49.5l36.5 -42l22 -25.5l22 25.5l36.5 42l43 49.5t43 47t36.5 35t22 14q5 0 10.5 -3
t5.5 -9q0 -9 -6 -16l-191 -208q-8 -10 -22 -10t-24 10q-7 8 -24 25.5l-39 40l-45 47.5l-42.5 47.5t-32 39.5t-12.5 24z" />
    <glyph glyph-name="scaron" unicode="&#x161;" horiz-adv-x="569" 
d="M170 49l4 -4q47 -22 102 -22q23 0 44.5 5t38.5 16t27.5 29t10.5 44q0 34 -21 55t-52 35.5t-68 26.5t-68 29.5t-52 44.5t-21 71q0 51 20.5 90.5t55 65.5t78.5 39.5t91 13.5q9 0 32 -3t47 -9.5t42.5 -16.5t18.5 -24q0 -17 -17 -17q-5 0 -18.5 5.5t-32 12t-40 12t-42.5 5.5
q-38 0 -74 -11t-64 -32.5t-45 -53.5t-17 -73q0 -38 21 -61t53 -38.5t69 -27.5t69 -28t53 -40.5t21 -64.5q0 -34 -13.5 -59.5t-36 -43t-52 -26t-60.5 -8.5q-9 0 -31 2t-44.5 7.5t-40 14t-17.5 21.5q0 14 9.5 16t19.5 2zM66 893q0 6 5.5 9t10.5 3q6 0 22 -14t36.5 -35t43 -47
l43 -49.5l36.5 -42l22 -25.5l22 25.5l36.5 42l43 49.5t43 47t36.5 35t22 14q5 0 10.5 -3t5.5 -9q0 -9 -6 -16l-191 -208q-8 -10 -22 -10t-24 10q-7 8 -24 25.5l-39 40l-45 47.5l-42.5 47.5t-32 39.5t-12.5 24z" />
    <glyph glyph-name="Tcommaaccent" unicode="&#x162;" horiz-adv-x="1421" 
d="M709 -242q-11 0 -14 6t-3 15v1792h-614q-9 0 -15 5.5t-6 14.5q0 11 6 14t15 3h1268q20 0 20 -21q0 -8 -6.5 -12t-13.5 -4h-617v-1792q0 -9 -5.5 -15t-14.5 -6zM588 -542q0 9 4 12.5t10 4t12.5 -1t12.5 -1.5q20 0 32.5 8.5t19 22.5t8.5 32t2 37q0 16 -0.5 31t-0.5 29
q0 20 3.5 33.5t15.5 13.5q11 0 14.5 -5t3.5 -15v-80q0 -31 -3 -56t-13 -43t-27.5 -27.5t-46.5 -9.5q-3 0 -11 0.5t-16 2t-14 4.5t-6 8z" />
    <glyph glyph-name="tcommaaccent" unicode="&#x163;" horiz-adv-x="692" 
d="M254 219q0 -44 5.5 -80.5t22 -62.5t46.5 -41t80 -15q49 0 82.5 17.5t56 38t36 38t21.5 17.5q7 0 13 -4t6 -12q0 -5 -4.5 -10t-6.5 -9q-34 -51 -87.5 -80.5t-116.5 -29.5q-59 0 -96.5 16.5t-59 46.5t-29 73t-6.5 97l6 318h-186q-9 0 -15 5.5t-6 14.5q0 11 6 13.5t15 2.5
h186l15 467q0 8 5 14.5t13 6.5q10 0 14 -6t4 -15l-12 -467h275q8 0 14 -6t6 -14q0 -9 -6 -12.5t-14 -3.5h-277l-4 -159t-2 -159zM277 -270q0 9 4 12.5t10 4t12.5 -1t12.5 -1.5q20 0 32.5 8.5t19 22.5t8.5 32t2 37q0 16 -0.5 31t-0.5 29q0 20 3.5 33.5t15.5 13.5
q11 0 14.5 -5t3.5 -15v-80q0 -31 -3 -56t-13 -43t-27.5 -27.5t-46.5 -9.5q-3 0 -11 0.5t-16 2t-14 4.5t-6 8z" />
    <glyph glyph-name="Tcaron" unicode="&#x164;" horiz-adv-x="1421" 
d="M709 -242q-11 0 -14 6t-3 15v1792h-614q-9 0 -15 5.5t-6 14.5q0 11 6 14t15 3h1268q20 0 20 -21q0 -8 -6.5 -12t-13.5 -4h-617v-1792q0 -9 -5.5 -15t-14.5 -6zM491 1923q0 6 5.5 9t10.5 3q6 0 22 -14t36.5 -35t43 -47l43 -49.5l36.5 -42l22 -25.5l22 25.5l36.5 42
l43 49.5t43 47t36.5 35t22 14q5 0 10.5 -3t5.5 -9q0 -9 -6 -16l-191 -208q-8 -10 -22 -10t-24 10q-7 8 -24 25.5l-39 40l-45 47.5l-42.5 47.5t-32 39.5t-12.5 24z" />
    <glyph glyph-name="tcaron" unicode="&#x165;" horiz-adv-x="707" 
d="M254 219q0 -44 5.5 -80.5t22 -62.5t46.5 -41t80 -15q49 0 82.5 17.5t56 38t36 38t21.5 17.5q7 0 13 -4t6 -12q0 -5 -4.5 -10t-6.5 -9q-34 -51 -87.5 -80.5t-116.5 -29.5q-59 0 -96.5 16.5t-59 46.5t-29 73t-6.5 97l6 318h-186q-9 0 -15 5.5t-6 14.5q0 11 6 13.5t15 2.5
h186l15 467q0 8 5 14.5t13 6.5q10 0 14 -6t4 -15l-12 -467h275q8 0 14 -6t6 -14q0 -9 -6 -12.5t-14 -3.5h-277l-4 -159t-2 -159zM569 1042q5 0 9 -5t6 -9q-1 -10 -10.5 -32t-23.5 -50t-31 -58.5l-32.5 -59l-28.5 -52l-20 -35.5t-20 -12t-15 16q6 20 25 58.5l42 81.5l45 83
l34 62q7 12 20 12z" />
    <glyph glyph-name="Tbar" unicode="&#x166;" horiz-adv-x="1421" 
d="M709 -242q-11 0 -14 6t-3 15v1403h-208q-8 0 -15.5 6t-7.5 15q0 10 7.5 14t15.5 4h208v350h-614q-9 0 -15 5.5t-6 14.5q0 11 6 14t15 3h1268q20 0 20 -21q0 -8 -6.5 -12t-13.5 -4h-617v-350h211q8 0 15.5 -5t7.5 -13q0 -14 -8.5 -17.5t-19.5 -3.5h-206v-1403
q0 -9 -5.5 -15t-14.5 -6z" />
    <glyph glyph-name="tbar" unicode="&#x167;" horiz-adv-x="692" 
d="M469 778q7 0 13.5 -4t6.5 -12q0 -11 -7.5 -14t-16.5 -3h-199l-4 -172h275q8 0 14 -6t6 -14q0 -9 -6 -12.5t-14 -3.5h-277l-4 -159t-2 -159q0 -44 5.5 -80.5t22 -62.5t46.5 -41t80 -15q49 0 82.5 17.5t56 38t36 38t21.5 17.5q7 0 13 -4t6 -12q0 -5 -4.5 -10t-6.5 -9
q-34 -51 -87.5 -80.5t-116.5 -29.5q-59 0 -96.5 16.5t-59 46.5t-29 73t-6.5 97l6 318h-186q-9 0 -15 5.5t-6 14.5q0 11 6 13.5t15 2.5h186l5 172h-153q-7 0 -13.5 4.5t-6.5 12.5t6.5 12t13.5 4h154l9 262q0 8 5 14.5t13 6.5q10 0 14 -6t4 -15l-7 -262h202z" />
    <glyph glyph-name="Utilde" unicode="&#x168;" horiz-adv-x="1878" 
d="M1692 510q0 -73 -7.5 -146.5t-30.5 -143.5q-36 -111 -110.5 -197.5t-172 -146.5t-210 -91t-223.5 -31q-112 0 -224 31t-209 91t-171 146.5t-111 197.5q-23 70 -31 143.5t-8 146.5v1085q0 9 6 15t15 6q11 0 14.5 -6t3.5 -15v-1079q0 -72 7 -145.5t30 -142.5
q34 -105 105 -187t163 -138t198 -85t212 -29q105 0 211.5 29t198.5 85t163 137t106 186q23 69 30.5 143.5t7.5 146.5v1079q0 9 5.5 15t14.5 6q11 0 14 -5.5t3 -15.5v-1085zM820 1847q-31 0 -45.5 -10t-22.5 -25.5t-14 -35t-18 -37.5q-19 0 -19 20q0 24 9 46t24.5 38.5
t37 26.5t46.5 10q29 0 57.5 -13.5t57 -29.5t57 -29.5t57.5 -13.5q18 0 35 5.5t31 16t22.5 25.5t8.5 35q0 9 2.5 16.5t13.5 7.5q9 0 13 -7t4 -15q0 -26 -10.5 -47t-28.5 -37t-41 -24.5t-47 -8.5q-32 0 -60.5 13.5t-56 29.5t-55.5 29.5t-58 13.5z" />
    <glyph glyph-name="utilde" unicode="&#x169;" horiz-adv-x="782" 
d="M135 266v301q0 9 6 15t15 6q11 0 13.5 -8.5t2.5 -16.5v-280q0 -57 11 -104.5t36.5 -82t67.5 -54t104 -19.5t104 19.5t67 54t35.5 82t10.5 104.5v284q0 9 7.5 15t15.5 6q11 0 13.5 -8.5t2.5 -16.5v-297q0 -63 -15.5 -114.5t-47 -88t-79.5 -57t-114 -20.5t-114.5 20.5
t-80 57t-46.5 88t-15 114.5zM272 817q-31 0 -45.5 -10t-22.5 -25.5t-14 -35t-18 -37.5q-19 0 -19 20q0 24 9 46t24.5 38.5t37 26.5t46.5 10q29 0 57.5 -13.5t57 -29.5t57 -29.5t57.5 -13.5q18 0 35 5.5t31 16t22.5 25.5t8.5 35q0 9 2.5 16.5t13.5 7.5q9 0 13 -7t4 -15
q0 -26 -10.5 -47t-28.5 -37t-41 -24.5t-47 -8.5q-32 0 -60.5 13.5t-56 29.5t-55.5 29.5t-58 13.5z" />
    <glyph glyph-name="Umacron" unicode="&#x16a;" horiz-adv-x="1878" 
d="M1692 510q0 -73 -7.5 -146.5t-30.5 -143.5q-36 -111 -110.5 -197.5t-172 -146.5t-210 -91t-223.5 -31q-112 0 -224 31t-209 91t-171 146.5t-111 197.5q-23 70 -31 143.5t-8 146.5v1085q0 9 6 15t15 6q11 0 14.5 -6t3.5 -15v-1079q0 -72 7 -145.5t30 -142.5
q34 -105 105 -187t163 -138t198 -85t212 -29q105 0 211.5 29t198.5 85t163 137t106 186q23 69 30.5 143.5t7.5 146.5v1079q0 9 5.5 15t14.5 6q11 0 14 -5.5t3 -15.5v-1085zM1136 1808q7 0 13.5 -4t6.5 -12q0 -11 -7.5 -14t-16.5 -3h-390q-7 0 -13.5 4.5t-6.5 12.5t6.5 12
t13.5 4h394z" />
    <glyph glyph-name="umacron" unicode="&#x16b;" horiz-adv-x="782" 
d="M135 266v301q0 9 6 15t15 6q11 0 13.5 -8.5t2.5 -16.5v-280q0 -57 11 -104.5t36.5 -82t67.5 -54t104 -19.5t104 19.5t67 54t35.5 82t10.5 104.5v284q0 9 7.5 15t15.5 6q11 0 13.5 -8.5t2.5 -16.5v-297q0 -63 -15.5 -114.5t-47 -88t-79.5 -57t-114 -20.5t-114.5 20.5
t-80 57t-46.5 88t-15 114.5zM588 778q7 0 13.5 -4t6.5 -12q0 -11 -7.5 -14t-16.5 -3h-390q-7 0 -13.5 4.5t-6.5 12.5t6.5 12t13.5 4h394z" />
    <glyph glyph-name="Ubreve" unicode="&#x16c;" horiz-adv-x="1878" 
d="M1692 510q0 -73 -7.5 -146.5t-30.5 -143.5q-36 -111 -110.5 -197.5t-172 -146.5t-210 -91t-223.5 -31q-112 0 -224 31t-209 91t-171 146.5t-111 197.5q-23 70 -31 143.5t-8 146.5v1085q0 9 6 15t15 6q11 0 14.5 -6t3.5 -15v-1079q0 -72 7 -145.5t30 -142.5
q34 -105 105 -187t163 -138t198 -85t212 -29q105 0 211.5 29t198.5 85t163 137t106 186q23 69 30.5 143.5t7.5 146.5v1079q0 9 5.5 15t14.5 6q11 0 14 -5.5t3 -15.5v-1085zM709 1929q6 0 9 -7.5t4.5 -17.5t2.5 -20t2 -14q9 -34 31.5 -58t53 -39.5t64.5 -22.5t66 -7
q36 0 70.5 9.5t64.5 29.5q25 17 46.5 42.5t27.5 55.5l2.5 13t4 16t6.5 14t10 6q10 0 13 -8.5t3 -16.5q0 -46 -24.5 -82t-61.5 -60.5t-81.5 -37t-84.5 -12.5q-44 0 -88.5 11.5t-80.5 35.5t-58.5 60.5t-22.5 87.5q0 22 21 22z" />
    <glyph glyph-name="ubreve" unicode="&#x16d;" horiz-adv-x="782" 
d="M135 266v301q0 9 6 15t15 6q11 0 13.5 -8.5t2.5 -16.5v-280q0 -57 11 -104.5t36.5 -82t67.5 -54t104 -19.5t104 19.5t67 54t35.5 82t10.5 104.5v284q0 9 7.5 15t15.5 6q11 0 13.5 -8.5t2.5 -16.5v-297q0 -63 -15.5 -114.5t-47 -88t-79.5 -57t-114 -20.5t-114.5 20.5
t-80 57t-46.5 88t-15 114.5zM161 899q6 0 9 -7.5t4.5 -17.5t2.5 -20t2 -14q9 -34 31.5 -58t53 -39.5t64.5 -22.5t66 -7q36 0 70.5 9.5t64.5 29.5q25 17 46.5 42.5t27.5 55.5l2.5 13t4 16t6.5 14t10 6q10 0 13 -8.5t3 -16.5q0 -46 -24.5 -82t-61.5 -60.5t-81.5 -37
t-84.5 -12.5q-44 0 -88.5 11.5t-80.5 35.5t-58.5 60.5t-22.5 87.5q0 22 21 22z" />
    <glyph glyph-name="Uring" unicode="&#x16e;" horiz-adv-x="1878" 
d="M1692 510q0 -73 -7.5 -146.5t-30.5 -143.5q-36 -111 -110.5 -197.5t-172 -146.5t-210 -91t-223.5 -31q-112 0 -224 31t-209 91t-171 146.5t-111 197.5q-23 70 -31 143.5t-8 146.5v1085q0 9 6 15t15 6q11 0 14.5 -6t3.5 -15v-1079q0 -72 7 -145.5t30 -142.5
q34 -105 105 -187t163 -138t198 -85t212 -29q105 0 211.5 29t198.5 85t163 137t106 186q23 69 30.5 143.5t7.5 146.5v1079q0 9 5.5 15t14.5 6q11 0 14 -5.5t3 -15.5v-1085zM939 2009q-32 0 -58.5 -11t-46 -31t-30 -47t-10.5 -59q0 -31 11 -57.5t30.5 -45.5t46 -29.5
t57.5 -10.5q30 0 56.5 11t47 30t32 45.5t11.5 56.5q0 31 -11.5 58t-31 47t-46.5 31.5t-58 11.5zM939 2042q37 0 69.5 -14.5t56.5 -39.5t38 -57.5t14 -69.5t-14 -69.5t-38 -56.5t-56.5 -38t-69.5 -14t-69.5 14t-56.5 38t-38 56.5t-14 69.5t13.5 70t37.5 57.5t56.5 39
t70.5 14.5z" />
    <glyph glyph-name="uring" unicode="&#x16f;" horiz-adv-x="782" 
d="M135 266v301q0 9 6 15t15 6q11 0 13.5 -8.5t2.5 -16.5v-280q0 -57 11 -104.5t36.5 -82t67.5 -54t104 -19.5t104 19.5t67 54t35.5 82t10.5 104.5v284q0 9 7.5 15t15.5 6q11 0 13.5 -8.5t2.5 -16.5v-297q0 -63 -15.5 -114.5t-47 -88t-79.5 -57t-114 -20.5t-114.5 20.5
t-80 57t-46.5 88t-15 114.5zM391 979q-32 0 -58.5 -11t-46 -31t-30 -47t-10.5 -59q0 -31 11 -57.5t30.5 -45.5t46 -29.5t57.5 -10.5q30 0 56.5 11t47 30t32 45.5t11.5 56.5q0 31 -11.5 58t-31 47t-46.5 31.5t-58 11.5zM391 1012q37 0 69.5 -14.5t56.5 -39.5t38 -57.5
t14 -69.5t-14 -69.5t-38 -56.5t-56.5 -38t-69.5 -14t-69.5 14t-56.5 38t-38 56.5t-14 69.5t13.5 70t37.5 57.5t56.5 39t70.5 14.5z" />
    <glyph glyph-name="Uhungarumlaut" unicode="&#x170;" horiz-adv-x="1878" 
d="M1692 510q0 -73 -7.5 -146.5t-30.5 -143.5q-36 -111 -110.5 -197.5t-172 -146.5t-210 -91t-223.5 -31q-112 0 -224 31t-209 91t-171 146.5t-111 197.5q-23 70 -31 143.5t-8 146.5v1085q0 9 6 15t15 6q11 0 14.5 -6t3.5 -15v-1079q0 -72 7 -145.5t30 -142.5
q34 -105 105 -187t163 -138t198 -85t212 -29q105 0 211.5 29t198.5 85t163 137t106 186q23 69 30.5 143.5t7.5 146.5v1079q0 9 5.5 15t14.5 6q11 0 14 -5.5t3 -15.5v-1085zM1135 1966q6 0 10.5 -5t4.5 -11q0 -4 -11 -22.5t-28.5 -44l-38 -55l-39 -56l-33 -46.5t-18.5 -26
q-5 -8 -15 -8q-5 0 -11.5 3.5t-6.5 10.5q0 1 12 20.5l31 48.5l41 62.5t43 62t37 47.5t22 19zM912 1966q6 0 11 -5t5 -11q0 -4 -11 -22.5t-28 -44l-37.5 -55l-39.5 -56l-33 -46.5l-19 -27q-4 -7 -14 -7q-5 0 -11.5 3.5t-6.5 10.5q0 5 12.5 26t32 50l42.5 61.5l43.5 59.5
l35 45t18.5 18z" />
    <glyph glyph-name="uhungarumlaut" unicode="&#x171;" horiz-adv-x="782" 
d="M135 266v301q0 9 6 15t15 6q11 0 13.5 -8.5t2.5 -16.5v-280q0 -57 11 -104.5t36.5 -82t67.5 -54t104 -19.5t104 19.5t67 54t35.5 82t10.5 104.5v284q0 9 7.5 15t15.5 6q11 0 13.5 -8.5t2.5 -16.5v-297q0 -63 -15.5 -114.5t-47 -88t-79.5 -57t-114 -20.5t-114.5 20.5
t-80 57t-46.5 88t-15 114.5zM687 936q6 0 10.5 -5t4.5 -11q0 -4 -11 -22.5t-28.5 -44l-38 -55l-39 -56l-33 -46.5t-18.5 -26q-5 -8 -15 -8q-5 0 -11.5 3.5t-6.5 10.5q0 1 12 20.5l31 48.5l41 62.5t43 62t37 47.5t22 19zM464 936q6 0 11 -5t5 -11q0 -4 -11 -22.5t-28 -44
l-37.5 -55l-39.5 -56l-33 -46.5l-19 -27q-4 -7 -14 -7q-5 0 -11.5 3.5t-6.5 10.5q0 5 12.5 26t32 50l42.5 61.5l43.5 59.5t35.5 45t18 18z" />
    <glyph glyph-name="Uogonek" unicode="&#x172;" horiz-adv-x="1878" 
d="M1692 510q0 -73 -7.5 -146.5t-30.5 -143.5q-35 -106 -104 -189.5t-161 -143.5q-35 -34 -61.5 -74t-26.5 -84q0 -40 16.5 -62.5t43 -33t58.5 -13t63 -2.5q8 0 18 -2t10 -14q0 -11 -9 -14t-17 -3h-62q-31 0 -59 10.5t-49 29.5t-33 45.5t-12 58.5q0 30 10.5 58t27.5 54
q-87 -43 -181 -65t-188 -22q-112 0 -224 31t-209 91t-171 146.5t-111 197.5q-23 70 -31 143.5t-8 146.5v1085q0 9 6 15t15 6q11 0 14.5 -6t3.5 -15v-1079q0 -72 7 -145.5t30 -142.5q34 -105 105 -187t163 -138t198 -85t212 -29q105 0 211.5 29t198.5 85t163 137t106 186
q23 69 30.5 143.5t7.5 146.5v1079q0 9 5.5 15t14.5 6q11 0 14 -5.5t3 -15.5v-1085z" />
    <glyph glyph-name="uogonek" unicode="&#x173;" horiz-adv-x="782" 
d="M135 266v301q0 9 6 15t15 6q11 0 13.5 -8.5t2.5 -16.5v-280q0 -57 11 -104.5t36.5 -82t67.5 -54t104 -19.5t104 19.5t67 54t35.5 82t10.5 104.5v284q0 9 7.5 15t15.5 6q11 0 13.5 -8.5t2.5 -16.5v-297q0 -91 -32 -157.5t-100 -98.5q-22 -18 -43 -39.5t-38 -45t-27.5 -49
t-10.5 -51.5q0 -40 16.5 -62.5t43 -33t58.5 -13t63 -2.5q8 0 18 -2t10 -14q0 -11 -9 -14t-17 -3h-62q-31 0 -59 10.5t-49 29.5t-33 45.5t-12 58.5q0 48 24.5 89.5t59.5 76.5q-14 -2 -28 -3.5t-29 -1.5q-66 0 -114.5 20.5t-80 57t-46.5 88t-15 114.5z" />
    <glyph glyph-name="Wcircumflex" unicode="&#x174;" horiz-adv-x="2370" 
d="M911 -246q-9 0 -14.5 5.5t-9.5 13.5v2l-39.5 82l-75.5 156l-102 210.5l-119 246l-126.5 262l-125 258.5l-113.5 235.5l-92.5 193l-62.5 131t-23 49.5q0 19 19 19q3 0 8.5 -4t7.5 -6l866 -1798l256 530q-7 13 -28 56.5l-52 108l-70 145.5l-82 169.5l-87.5 180.5l-86 178
l-78 162l-63.5 133l-43 91t-16 35q0 19 19 19q3 -2 8.5 -4.5t7.5 -5.5l592 -1227l602 1227q2 2 7.5 6t8.5 4q7 0 13 -6t6 -13q0 -1 -16 -35l-44 -91l-65 -133l-79.5 -162l-87.5 -178l-88.5 -180.5l-83.5 -169.5l-72 -145.5l-53 -108t-28 -56.5l254 -530l879 1798q1 2 6.5 6
t7.5 4q9 0 15 -6t6 -15q0 -1 -23.5 -49l-63.5 -130.5l-94 -192.5l-115 -235.5l-126.5 -258.5l-128.5 -262l-120.5 -246.5l-103.5 -211l-76.5 -155.5l-39.5 -81q-3 -7 -7.5 -14t-13.5 -7q-11 0 -16 5t-10 15l-246 525l-258 -524q-3 -7 -7.5 -14t-13.5 -7zM1404 1704
q0 -5 -5.5 -10t-10.5 -5t-20 14.5l-36 36t-44.5 48l-44.5 50l-37 42l-21 24.5l-21 -24l-37 -42l-44.5 -50l-44 -48t-36 -36.5t-20.5 -14.5q-6 0 -11 4.5t-5 10.5q0 7 12.5 24t32 39l43 46.5l45.5 47l39 39.5t24 25q4 5 10.5 8.5t12.5 3.5t13.5 -3.5t11.5 -8.5q7 -8 24 -25
l38.5 -39.5l44.5 -47l42.5 -46.5t32 -39t12.5 -24z" />
    <glyph glyph-name="wcircumflex" unicode="&#x175;" horiz-adv-x="977" 
d="M483 215l-110 -209q-3 -5 -8.5 -11.5t-12.5 -6.5q-8 0 -12.5 6t-7.5 12l-21.5 40l-37 69l-47.5 88.5l-52 97.5l-50.5 96l-43 84.5l-30 62t-11.5 29.5q0 6 5 10.5t11 4.5q3 0 9 -4t8 -7l280 -536l113 211q-6 12 -20 38l-31.5 59l-36.5 68.5l-35 67l-27.5 55.5t-13.5 33
q0 5 5.5 10t10.5 5t11 -3t8 -8l149 -286l146 287q2 2 8.5 5t9.5 5q6 -1 11.5 -4.5t5.5 -10.5q0 -6 -10.5 -29t-27 -55l-36.5 -69l-38 -70.5l-31.5 -59l-18.5 -34.5l112 -215l279 536q5 11 16 11q5 0 11 -4.5t6 -10.5q0 -8 -19.5 -48.5l-49.5 -98.5l-66 -125.5l-68.5 -128
l-57 -106l-32.5 -60.5q-3 -6 -8 -12t-13 -6q-7 3 -18.5 18.5t-24.5 38t-27 49.5l-26 51l-21.5 43zM708 674q0 -5 -5.5 -10t-10.5 -5t-20 14.5l-36 36t-44.5 48l-44.5 50l-37 42l-21 24.5l-21 -24l-37 -42l-44.5 -50l-44 -48t-36 -36.5t-20.5 -14.5q-6 0 -11 4.5t-5 10.5
q0 7 12.5 24t32 39l43 46.5l45.5 47l39 39.5t24 25q4 5 10.5 8.5t12.5 3.5t13.5 -3.5t11.5 -8.5q7 -8 24 -25l38.5 -39.5l44.5 -47l42.5 -46.5t32 -39t12.5 -24z" />
    <glyph glyph-name="Ycircumflex" unicode="&#x176;" horiz-adv-x="1593" 
d="M795 -242q-11 0 -14 6t-3 15v907l-65 81.5l-98.5 122l-119 147l-126.5 156.5l-120.5 150.5l-102 128.5l-71 90.5t-26.5 36.5q0 7 6.5 12t12.5 5l14 -6l715 -889l712 889q2 2 8 4t9 2q7 0 12.5 -5t5.5 -12q0 -2 -26.5 -36.5l-70.5 -90.5l-102 -128.5l-121 -150.5
l-126 -156.5l-118.5 -147l-99 -122l-65.5 -81.5v-907q0 -9 -5.5 -15t-14.5 -6zM1015 1704q0 -5 -5.5 -10t-10.5 -5t-20 14.5l-36 36t-44.5 48l-44.5 50l-37 42l-21 24.5l-21 -24l-37 -42l-44.5 -50l-44 -48t-36 -36.5t-20.5 -14.5q-6 0 -11 4.5t-5 10.5q0 7 12.5 24t32 39
l43 46.5l45.5 47l39 39.5t24 25q4 5 10.5 8.5t12.5 3.5t13.5 -3.5t11.5 -8.5q7 -8 24 -25l38.5 -39.5l44.5 -47l42.5 -46.5t32 -39t12.5 -24z" />
    <glyph glyph-name="ycircumflex" unicode="&#x177;" horiz-adv-x="748" 
d="M551 68q-49 -32 -103 -57t-114 -25q-63 0 -102 24.5t-60.5 64t-29 90t-7.5 103.5v299q0 9 6 15t15 6q11 0 13.5 -6t2.5 -15v-301q0 -42 6 -85.5t23.5 -79t49 -58.5t83.5 -23q60 0 114 25.5t103 56.5v465q0 8 6 14.5t14 6.5q11 0 14 -5.5t3 -15.5v-442l30.5 22t34.5 15
q4 -2 7.5 -6t3.5 -9q0 -6 -11 -15.5t-24.5 -18.5t-25.5 -16t-15 -9v-324q0 -72 -40.5 -112.5t-111.5 -40.5q-8 0 -13 3t-5 13q0 14 13 14.5t22 0.5q35 0 55 16.5t29.5 41.5t11.5 55t2 57v256zM593 674q0 -5 -5.5 -10t-10.5 -5t-20 14.5l-36 36t-44.5 48l-44.5 50l-36.5 42
t-21.5 24.5l-21 -24l-37 -42l-44.5 -50l-44 -48t-36 -36.5t-20.5 -14.5q-6 0 -11 4.5t-5 10.5q0 7 12.5 24t32 39l43 46.5l45.5 47l39 39.5t24 25q4 5 10.5 8.5t12.5 3.5t13.5 -3.5t11.5 -8.5q7 -8 24 -25l38.5 -39.5l44.5 -47l42.5 -46.5t32 -39t12.5 -24z" />
    <glyph glyph-name="Ydieresis" unicode="&#x178;" horiz-adv-x="1593" 
d="M795 -242q-11 0 -14 6t-3 15v907l-65 81.5l-98.5 122l-119 147l-126.5 156.5l-120.5 150.5l-102 128.5l-71 90.5t-26.5 36.5q0 7 6.5 12t12.5 5l14 -6l715 -889l712 889q2 2 8 4t9 2q7 0 12.5 -5t5.5 -12q0 -2 -26.5 -36.5l-70.5 -90.5l-102 -128.5l-121 -150.5
l-126 -156.5l-118.5 -147l-99 -122l-65.5 -81.5v-907q0 -9 -5.5 -15t-14.5 -6zM959 1863q20 0 34.5 -14.5t14.5 -34.5t-14.5 -34.5t-34.5 -14.5q-19 0 -35 15t-16 34t16 34t35 15zM637 1863q20 0 34.5 -14.5t14.5 -34.5t-14.5 -34.5t-34.5 -14.5q-18 0 -34.5 15.5
t-16.5 33.5t16.5 33.5t34.5 15.5z" />
    <glyph glyph-name="Zacute" unicode="&#x179;" horiz-adv-x="1708" 
d="M1505 1571h-1366q-20 0 -20 20q0 17 20 17h1393q11 0 17.5 -4.5t6.5 -16.5q0 -8 -3.5 -14t-8.5 -12l-1407 -1758h1399q7 0 13.5 -4t6.5 -12q0 -20 -20 -20h-1430q-10 0 -16 3.5t-6 14.5q0 7 6 16t10 14zM969 1954q5 0 10 -3.5t5 -9.5q0 -5 -15.5 -23.5t-39.5 -44l-52 -54
l-54 -54.5l-45.5 -45l-25.5 -25q-2 -2 -7 -5t-7 -3q-6 0 -10.5 4.5t-4.5 10.5t15 25t38.5 44l51 53l53 53l45.5 44.5l27 26.5q6 6 16 6z" />
    <glyph glyph-name="zacute" unicode="&#x17a;" horiz-adv-x="676" 
d="M219 37h322q20 0 20 -19q0 -18 -20 -18h-346q-8 0 -15.5 3.5t-7.5 12.5t21.5 47t54.5 91.5l73 114.5l76 115.5l64 96.5l37 56h-228q-27 0 -59.5 -1.5t-64 -8.5t-58.5 -22t-43 -42l-12 -6q-6 0 -11.5 5t-5.5 11q0 3 4.5 11t6.5 10q14 24 40.5 39.5t57 24.5t62.5 12t57 3
h278q9 0 15.5 -2.5t7.5 -13.5q-3 -8 -6.5 -16.5t-8.5 -16.5zM454 924q5 0 10 -3.5t5 -9.5q0 -5 -15.5 -23.5t-39.5 -44l-52 -54l-54 -54.5l-45.5 -45l-25.5 -25q-2 -2 -7 -5t-7 -3q-6 0 -10.5 4.5t-4.5 10.5t15 25t38.5 44l51 53l53 53l45.5 44.5l27 26.5q6 6 16 6z" />
    <glyph glyph-name="Zdotaccent" unicode="&#x17b;" horiz-adv-x="1708" 
d="M1505 1571h-1366q-20 0 -20 20q0 17 20 17h1393q11 0 17.5 -4.5t6.5 -16.5q0 -8 -3.5 -14t-8.5 -12l-1407 -1758h1399q7 0 13.5 -4t6.5 -12q0 -20 -20 -20h-1430q-10 0 -16 3.5t-6 14.5q0 7 6 16t10 14zM828 1856q20 0 33.5 -13.5t13.5 -33.5q0 -19 -14 -33t-33 -14
q-18 0 -32.5 14.5t-14.5 32.5q0 19 14 33t33 14z" />
    <glyph glyph-name="zdotaccent" unicode="&#x17c;" horiz-adv-x="676" 
d="M219 37h322q20 0 20 -19q0 -18 -20 -18h-346q-8 0 -15.5 3.5t-7.5 12.5t21.5 47t54.5 91.5l73 114.5l76 115.5l64 96.5l37 56h-228q-27 0 -59.5 -1.5t-64 -8.5t-58.5 -22t-43 -42l-12 -6q-6 0 -11.5 5t-5.5 11q0 3 4.5 11t6.5 10q14 24 40.5 39.5t57 24.5t62.5 12t57 3
h278q9 0 15.5 -2.5t7.5 -13.5q-3 -8 -6.5 -16.5t-8.5 -16.5zM382 977q20 0 33.5 -13.5t13.5 -33.5q0 -19 -14 -33t-33 -14q-18 0 -32.5 14.5t-14.5 32.5q0 19 14 33t33 14z" />
    <glyph glyph-name="Zcaron" unicode="&#x17d;" horiz-adv-x="1708" 
d="M1505 1571h-1366q-20 0 -20 20q0 17 20 17h1393q11 0 17.5 -4.5t6.5 -16.5q0 -8 -3.5 -14t-8.5 -12l-1407 -1758h1399q7 0 13.5 -4t6.5 -12q0 -20 -20 -20h-1430q-10 0 -16 3.5t-6 14.5q0 7 6 16t10 14zM635 1933q0 6 5.5 9t10.5 3q6 0 22 -14t36.5 -35t43 -47l43 -49.5
l36.5 -42l22 -25.5l22 25.5l36.5 42l43 49.5t43 47t36.5 35t22 14q5 0 10.5 -3t5.5 -9q0 -9 -6 -16l-191 -208q-8 -10 -22 -10t-24 10q-7 8 -24 25.5l-39 40l-45 47.5l-42.5 47.5t-32 39.5t-12.5 24z" />
    <glyph glyph-name="zcaron" unicode="&#x17e;" horiz-adv-x="676" 
d="M219 37h322q20 0 20 -19q0 -18 -20 -18h-346q-8 0 -15.5 3.5t-7.5 12.5t21.5 47t54.5 91.5l73 114.5l76 115.5l64 96.5l37 56h-228q-27 0 -59.5 -1.5t-64 -8.5t-58.5 -22t-43 -42l-12 -6q-6 0 -11.5 5t-5.5 11q0 3 4.5 11t6.5 10q14 24 40.5 39.5t57 24.5t62.5 12t57 3
h278q9 0 15.5 -2.5t7.5 -13.5q-3 -8 -6.5 -16.5t-8.5 -16.5zM119 893q0 6 5.5 9t10.5 3q6 0 22 -14t36.5 -35t43 -47l43 -49.5l36.5 -42l22 -25.5l22 25.5l36.5 42l43 49.5t43 47t36.5 35t22 14q5 0 10.5 -3t5.5 -9q0 -9 -6 -16l-191 -208q-8 -10 -22 -10t-24 10
q-7 8 -24 25.5l-39 40l-45 47.5l-42.5 47.5t-32 39.5t-12.5 24z" />
    <glyph glyph-name="longs" unicode="&#x17f;" horiz-adv-x="496" 
d="M266 -369q0 -20 -20 -20q-9 0 -13 6t-4 14v906q-10 0 -32.5 -2t-48.5 -2q-29 0 -51.5 5t-22.5 19q0 12 21.5 15.5t49.5 3.5q26 0 50 -1.5t34 -1.5q-1 185 -2.5 367t-1.5 367q0 60 11 115t38 97t72.5 67.5t114.5 25.5q48 0 92 -15t77 -43t52.5 -69t19.5 -92l-2 -4
q0 -8 -3.5 -15.5t-14.5 -7.5q-9 0 -12.5 8.5t-5.5 16.5q-9 43 -23.5 77t-38 58t-57.5 36.5t-82 12.5q-62 0 -101.5 -22.5t-61.5 -60.5t-30 -87t-8 -102z" />
    <glyph glyph-name="florin" unicode="&#x192;" horiz-adv-x="1034" 
d="M823 1118q15 0 43.5 -6.5t57 -18t50 -27.5t21.5 -36q0 -8 -5.5 -15t-14.5 -7q-5 0 -16 11.5t-29 26t-43.5 26t-61.5 11.5q-59 0 -97.5 -24.5t-64 -63t-40.5 -86.5t-25 -96l-53 -240h246q8 0 14 -6t6 -14q0 -9 -6 -12.5t-14 -3.5h-252l-90 -392q-13 -55 -28 -112
t-36.5 -110t-50 -100.5t-68.5 -82.5t-92 -55.5t-119 -20.5q-9 0 -28 1.5t-38.5 5t-34.5 11t-15 19.5q0 8 7.5 11t14.5 3q24 0 50 -8t52 -8q60 0 106 20t81.5 54t61.5 79t45 94.5t32.5 101.5t24.5 99l88 390h-189q-20 0 -20 20q0 11 5.5 13.5t14.5 2.5h195l53 234
q12 54 30 109.5t47.5 100t74 73t110.5 28.5z" />
    <glyph glyph-name="AEacute" unicode="&#x1fc;" horiz-adv-x="2763" 
d="M541 360h917v1176zM66 -248q-6 0 -13.5 6t-7.5 13q0 3 16.5 26.5t44.5 60l63.5 83l73.5 95.5l75.5 97l68.5 88l53 68l29 37h-186q-8 0 -14.5 4.5t-6.5 13.5q0 11 6 13.5t15 2.5h211l950 1217q11 14 23 22.5t32 8.5h1098q8 0 14 -6.5t6 -14.5q0 -10 -5.5 -13t-14.5 -3
h-1100v-1211h1133q7 0 13.5 -4t6.5 -12q0 -11 -4.5 -14.5t-15.5 -3.5h-1133v-523h1100q7 0 13.5 -4t6.5 -12q0 -11 -4.5 -14.5t-15.5 -3.5h-1098q-23 0 -32 4.5t-9 29.5v523h-944l-30.5 -40.5l-54 -71.5l-69.5 -92l-77 -100.5l-76 -98.5l-67 -85.5l-50 -60.5t-24 -25z
M1771 1978q5 0 10 -3.5t5 -9.5q0 -5 -15.5 -23.5t-39.5 -44l-52 -54l-54 -54.5l-45.5 -45l-25.5 -25q-2 -2 -7 -5t-7 -3q-6 0 -10.5 4.5t-4.5 10.5t15 25t38.5 44l51 53l53 53l45.5 44.5l27 26.5q6 6 16 6z" />
    <glyph glyph-name="aeacute" unicode="&#x1fd;" horiz-adv-x="1346" 
d="M686 551h-31q-53 0 -114.5 -11.5t-123.5 -34.5t-119 -56.5t-101 -77t-70.5 -97t-26.5 -116.5q0 -66 40.5 -102t103.5 -36q61 0 115 25t99.5 67t83.5 96.5t66.5 113.5t48 118.5t29.5 110.5zM723 320l514 -1q-5 51 -26 94t-55 74t-78.5 48.5t-96.5 17.5q-51 0 -96 -17
t-79.5 -48t-56.5 -74t-26 -94zM688 428q-24 -69 -65.5 -146.5t-98 -143.5t-127 -109t-153.5 -43q-82 0 -131.5 43.5t-49.5 128.5q0 66 27.5 124t73.5 106t106 85.5t125 63.5t131 39.5t123 13.5q47 0 62 -9.5t15 -34.5q0 -18 -3.5 -45.5t-5.5 -68.5q44 76 113 117t157 41
q57 0 109 -22t91.5 -60.5t63 -89.5t23.5 -109q0 -26 -27 -26h-522q0 -62 19 -110t53.5 -81.5t83.5 -51t110 -17.5q58 0 101 17t73 38t48.5 38t27.5 17q16 0 16 -16q0 -13 -12 -23q-29 -29 -58.5 -49t-61 -33.5t-66.5 -19.5t-76 -6q-75 0 -131 24t-92.5 67t-55 103t-18.5 131
q0 29 0.5 58.5t1.5 58.5zM944 924q5 0 10 -3.5t5 -9.5q0 -5 -15.5 -23.5t-39.5 -44l-52 -54l-54 -54.5l-45.5 -45l-25.5 -25q-2 -2 -7 -5t-7 -3q-6 0 -10.5 4.5t-4.5 10.5t15 25t38.5 44l51 53l53 53l45.5 44.5l27 26.5q6 6 16 6z" />
    <glyph glyph-name="Oslashacute" unicode="&#x1fe;" horiz-adv-x="2066" 
d="M494 -20q124 -87 256 -136t284 -49q124 0 238.5 32t214 90.5t181 140.5t139.5 181.5t90 214t32 238.5q0 229 -97 419t-284 323zM467 -2l1053 1454q-114 69 -233 104t-253 35q-124 0 -238.5 -32t-214 -91t-181.5 -141t-140.5 -182t-90.5 -214.5t-32 -238.5
q0 -99 22.5 -196.5t65 -187t103.5 -168.5t139 -142zM467 -51q-7 -9 -23.5 -32.5l-37.5 -53.5l-44.5 -62.5l-44.5 -60.5t-37 -47.5t-22 -22.5q-16 0 -16 15q0 3 13.5 23.5l34 49.5l44.5 63l46 65l38.5 53.5l21.5 29.5q-80 67 -143.5 149t-107 175t-66.5 194t-23 205
q0 129 33 249t93.5 223.5t145.5 188.5t189 146t223.5 94t249.5 33q139 0 263 -36.5t243 -108.5q5 6 19.5 27l34 48l41.5 56.5l41 54.5t33 41t17 16q17 0 17 -16q0 -3 -11.5 -20.5t-29.5 -42.5l-39.5 -54l-40.5 -55l-34 -46t-19 -26q94 -71 168.5 -155.5t125.5 -182
t78 -206.5t27 -228q0 -129 -33.5 -248t-94.5 -223t-146 -189t-189 -146t-223 -94.5t-248 -33.5q-159 0 -297.5 51t-269.5 140zM1253 1989q5 0 10 -3.5t5 -9.5q0 -5 -15.5 -23.5t-39.5 -44l-52 -54l-54 -54.5l-45.5 -45l-25.5 -25q-2 -2 -7 -5t-7 -3q-6 0 -10.5 4.5
t-4.5 10.5t15 25t38.5 44l51 53l53 53l45.5 44.5l27 26.5q6 6 16 6z" />
    <glyph glyph-name="oslashacute" unicode="&#x1ff;" horiz-adv-x="743" 
d="M504 516q-58 35 -131 35q-55 0 -103 -20.5t-83 -56.5t-55.5 -84t-20.5 -103t24 -105t62 -88zM221 74q34 -24 72 -37.5t80 -13.5q55 0 103 20.5t83 56.5t55.5 84t20.5 103q0 30 -6.5 61t-19.5 58.5t-33 51t-46 40.5zM201 43q-6 -8 -17.5 -26l-25 -37.5t-26 -35.5
t-19.5 -20q-6 0 -13.5 3.5t-7.5 11.5q0 4 11.5 21.5l26 38.5l27.5 39.5l17 24.5q-46 44 -74 102t-28 122q0 62 23.5 117t64.5 96t96 64.5t117 23.5q42 0 79.5 -11.5t73.5 -31.5l16.5 24l22 31t23 29t20.5 16q17 0 17 -16q0 -4 -9.5 -19t-22 -32l-24 -32t-14.5 -20
q57 -43 88 -105t31 -134q0 -63 -23.5 -117.5t-64.5 -95t-96 -63.5t-117 -23q-48 0 -90.5 13t-81.5 42zM577 924q5 0 10 -3.5t5 -9.5q0 -5 -15.5 -23.5t-39.5 -44l-52 -54l-54 -54.5l-45.5 -45l-25.5 -25q-2 -2 -7 -5t-7 -3q-6 0 -10.5 4.5t-4.5 10.5t15 25t38.5 44l51 53
l53 53l45.5 44.5l27 26.5q6 6 16 6z" />
    <glyph glyph-name="Scommaaccent" unicode="&#x218;" horiz-adv-x="1679" 
d="M1581 1294q0 -8 -6 -14t-14 -6q-8 3 -12 7.5l-9 10.5q-60 78 -143.5 134t-179 91t-196.5 51.5t-196 16.5q-72 0 -149.5 -11t-151.5 -34.5t-140.5 -60.5t-116.5 -89.5t-79.5 -121.5t-29.5 -156q0 -111 47.5 -185.5t123 -122.5t168.5 -74.5t185 -41.5q55 -9 118.5 -16
t130 -16t133.5 -22t128 -33.5t114 -51t91.5 -74.5t61 -103.5t22.5 -138.5q0 -84 -26 -151.5t-71 -121t-105.5 -92.5t-129.5 -64t-143 -37.5t-146 -12.5q-150 0 -283.5 39t-254.5 129q-3 2 -15.5 11t-26 20.5t-24 23.5t-10.5 21q0 8 5.5 12t12.5 4q9 0 15 -4t12 -10
q56 -55 123 -94.5t139.5 -65.5t150 -38.5t154.5 -12.5q66 0 135.5 11.5t134.5 34.5t122.5 59t100.5 85t68 112t25 140q0 96 -36.5 161.5t-97 109t-138.5 68t-161 39t-164.5 22.5t-148.5 18q-68 10 -137.5 25t-133.5 39t-120 58t-97 82t-65 111.5t-24 145.5q0 97 31.5 173
t85.5 133t126 96.5t153 63.5t166 35t165 11q87 0 173.5 -13t169 -40.5t158.5 -70t142 -100.5q26 -23 51 -47.5t39 -56.5zM778 -517q0 9 4 12.5t10 4t12.5 -1t12.5 -1.5q20 0 32.5 8.5t19 22.5t8.5 32t2 37q0 16 -0.5 31t-0.5 29q0 20 3.5 33.5t15.5 13.5q11 0 14.5 -5
t3.5 -15v-80q0 -31 -3 -56t-13 -43t-27.5 -27.5t-46.5 -9.5q-3 0 -11 0.5t-16 2t-14 4.5t-6 8z" />
    <glyph glyph-name="scommaaccent" unicode="&#x219;" horiz-adv-x="569" 
d="M170 49l4 -4q47 -22 102 -22q23 0 44.5 5t38.5 16t27.5 29t10.5 44q0 34 -21 55t-52 35.5t-68 26.5t-68 29.5t-52 44.5t-21 71q0 51 20.5 90.5t55 65.5t78.5 39.5t91 13.5q9 0 32 -3t47 -9.5t42.5 -16.5t18.5 -24q0 -17 -17 -17q-5 0 -18.5 5.5t-32 12t-40 12t-42.5 5.5
q-38 0 -74 -11t-64 -32.5t-45 -53.5t-17 -73q0 -38 21 -61t53 -38.5t69 -27.5t69 -28t53 -40.5t21 -64.5q0 -34 -13.5 -59.5t-36 -43t-52 -26t-60.5 -8.5q-9 0 -31 2t-44.5 7.5t-40 14t-17.5 21.5q0 14 9.5 16t19.5 2zM169 -270q0 9 4 12.5t10 4t12.5 -1t12.5 -1.5
q20 0 32.5 8.5t19 22.5t8.5 32t2 37q0 16 -0.5 31t-0.5 29q0 20 3.5 33.5t15.5 13.5q11 0 14.5 -5t3.5 -15v-80q0 -31 -3 -56t-13 -43t-27.5 -27.5t-46.5 -9.5q-3 0 -11 0.5t-16 2t-14 4.5t-6 8z" />
    <glyph glyph-name="dotlessj" unicode="&#x237;" horiz-adv-x="346" 
d="M186 -45q0 -63 -14.5 -121.5t-46 -104t-81 -73t-120.5 -27.5q-10 0 -22.5 3.5t-12.5 15.5q0 15 10 17.5t21 2.5q67 0 111 25.5t70.5 67.5t37.5 96t11 112v598q0 9 5.5 15t14.5 6q11 0 13.5 -8.5t2.5 -16.5v-608z" />
    <glyph glyph-name="circumflex" unicode="&#x2c6;" 
d="M731 674q0 -5 -5.5 -10t-10.5 -5t-20 14.5l-36 36t-44.5 48l-44.5 50l-36.5 42t-21.5 24.5l-21 -24l-37 -42l-44.5 -50l-44 -48t-36 -36.5t-20.5 -14.5q-6 0 -11 4.5t-5 10.5q0 7 12.5 24t32 39l43 46.5l45.5 47l39 39.5t24 25q4 5 10.5 8.5t12.5 3.5t13.5 -3.5
t11.5 -8.5q7 -8 24 -25l38.5 -39.5l44.5 -47l42.5 -46.5t32 -39t12.5 -24z" />
    <glyph glyph-name="caron" unicode="&#x2c7;" 
d="M293 893q0 6 5.5 9t10.5 3q6 0 22 -14t36.5 -35t43 -47l43 -49.5l36.5 -42l22 -25.5l22 25.5l36.5 42l43 49.5t43 47t36.5 35t22 14q5 0 10.5 -3t5.5 -9q0 -9 -6 -16l-191 -208q-8 -10 -22 -10t-24 10q-7 8 -24 25.5l-39 40l-45 47.5l-42.5 47.5t-32 39.5t-12.5 24z" />
    <glyph glyph-name="breve" unicode="&#x2d8;" 
d="M283 899q6 0 9 -7.5t4.5 -17.5t2.5 -20t2 -14q9 -34 31.5 -58t53 -39.5t64.5 -22.5t66 -7q36 0 70.5 9.5t64.5 29.5q25 17 46.5 42.5t27.5 55.5l2.5 13t4 16t6.5 14t10 6q10 0 13 -8.5t3 -16.5q0 -46 -24.5 -82t-61.5 -60.5t-81.5 -37t-84.5 -12.5q-44 0 -88.5 11.5
t-80.5 35.5t-58.5 60.5t-22.5 87.5q0 22 21 22z" />
    <glyph glyph-name="dotaccent" unicode="&#x2d9;" 
d="M512 834q23 0 40 -16.5t17 -39.5q0 -22 -17.5 -39.5t-39.5 -17.5t-38.5 18t-16.5 39q0 22 16.5 39t38.5 17z" />
    <glyph glyph-name="ring" unicode="&#x2da;" 
d="M512 979q-32 0 -58.5 -11t-46 -31t-30 -47t-10.5 -59q0 -31 11 -57.5t30.5 -45.5t46 -29.5t57.5 -10.5q30 0 56.5 11t47 30t32 45.5t11.5 56.5q0 31 -11.5 58t-31 47t-46.5 31.5t-58 11.5zM512 1012q37 0 69.5 -14.5t56.5 -39.5t38 -57.5t14 -69.5t-14 -69.5t-38 -56.5
t-56.5 -38t-69.5 -14t-69.5 14t-56.5 38t-38 56.5t-14 69.5t13.5 70t37.5 57.5t56.5 39t70.5 14.5z" />
    <glyph glyph-name="ogonek" unicode="&#x2db;" 
d="M489 0h48q-25 -18 -55.5 -43t-57 -55t-44.5 -63t-18 -68q0 -40 16.5 -62.5t43 -33t58.5 -13t63 -2.5q8 0 18 -2t10 -14q0 -11 -9 -14t-17 -3h-62q-31 0 -59 10.5t-49 29.5t-33 45.5t-12 58.5q0 36 15 69t38 62t51 53.5t55 44.5z" />
    <glyph glyph-name="tilde" unicode="&#x2dc;" 
d="M391 817q-31 0 -45.5 -10t-22.5 -25.5t-14 -35t-18 -37.5q-19 0 -19 20q0 24 9 46t24.5 38.5t37 26.5t46.5 10q29 0 57.5 -13.5t57 -29.5t57 -29.5t57.5 -13.5q18 0 35 5.5t31 16t22.5 25.5t8.5 35q0 9 2.5 16.5t13.5 7.5q9 0 13 -7t4 -15q0 -26 -10.5 -47t-28.5 -37
t-41 -24.5t-47 -8.5q-32 0 -60.5 13.5t-56 29.5t-55.5 29.5t-58 13.5z" />
    <glyph glyph-name="hungarumlaut" unicode="&#x2dd;" 
d="M782 936q6 0 10.5 -5t4.5 -11q0 -4 -11 -22.5t-28.5 -44l-38 -55l-39 -56l-33 -46.5t-18.5 -26q-5 -8 -15 -8q-5 0 -11.5 3.5t-6.5 10.5q0 1 12 20.5l31 48.5l41 62.5t43 62t37 47.5t22 19zM559 936q6 0 11 -5t5 -11q0 -4 -11 -22.5t-28 -44l-37.5 -55l-39.5 -56
l-33 -46.5l-19 -27q-4 -7 -14 -7q-5 0 -11.5 3.5t-6.5 10.5q0 5 12.5 26t32 50l42.5 61.5l43.5 59.5t35.5 45t18 18z" />
    <glyph glyph-name="afii10023" unicode="&#x401;" horiz-adv-x="1659" 
d="M250 324h-193q-20 0 -20 20q0 10 5.5 13t14.5 3h193v1225q0 15 15 19t26 4h1190q8 0 14 -6.5t6 -14.5q0 -9 -6 -12.5t-14 -3.5h-1192v-1211h1227q8 0 14 -6t6 -14q0 -9 -6 -12.5t-14 -3.5h-1227v-521h1192q7 0 13.5 -4t6.5 -12q0 -20 -20 -20h-1190q-24 0 -32.5 6.5
t-8.5 31.5v519zM1005 1853q20 0 34.5 -14.5t14.5 -34.5t-14.5 -34.5t-34.5 -14.5q-19 0 -35 15t-16 34t16 34t35 15zM683 1853q20 0 34.5 -14.5t14.5 -34.5t-14.5 -34.5t-34.5 -14.5q-18 0 -34.5 15.5t-16.5 33.5t16.5 33.5t34.5 15.5z" />
    <glyph glyph-name="afii10051" unicode="&#x402;" horiz-adv-x="1686" 
d="M36 1591q0 11 6 14t15 3h1268q20 0 20 -21q0 -8 -6.5 -12t-13.5 -4h-617v-912h399q101 0 187 -24t149 -76t99 -134t36 -198q0 -121 -39 -208t-108 -142.5t-164.5 -81.5t-208.5 -26h-348q-24 0 -32.5 6.5t-8.5 31.5v816h-193q-20 0 -20 20q0 12 5.5 14t14.5 2h193l-1 912
h-611q-9 0 -15 5.5t-6 14.5zM708 623v-818h299q51 0 101 2t100 11q78 14 139.5 50t104 89t65 121t22.5 147q0 93 -28 166.5t-79.5 125t-125.5 79t-166 27.5h-432z" />
    <glyph glyph-name="afii10052" unicode="&#x403;" horiz-adv-x="1481" 
d="M254 -212q0 -9 -5 -15t-14 -6q-8 0 -14 6.5t-6 14.5v1790q0 25 8.5 31.5t32.5 6.5h1190q20 0 20 -20q0 -8 -6.5 -12t-13.5 -4h-1192v-1792zM973 1954q5 0 10 -3.5t5 -9.5q0 -5 -15.5 -23.5t-39.5 -44l-52 -54l-54 -54.5l-45.5 -45l-25.5 -25q-2 -2 -7 -5t-7 -3
q-6 0 -10.5 4.5t-4.5 10.5t15 25t38.5 44l51 53l53 53l45.5 44.5l27 26.5q6 6 16 6z" />
    <glyph glyph-name="afii10053" unicode="&#x404;" horiz-adv-x="1842" 
d="M1675 1368q0 -5 -4 -10.5t-10 -5.5q-5 0 -10.5 3.5l-10.5 6.5l-74.5 53.5t-76.5 50.5t-79.5 44.5t-83.5 35.5q-68 23 -137 34t-141 11q-124 0 -239 -32t-214.5 -90.5t-181.5 -140.5t-140 -182t-90 -215t-32 -239q0 -86 16.5 -167.5t47.5 -157.5h923q10 0 15 -3t5 -14
q0 -8 -6 -13t-14 -5h-909q53 -117 137.5 -216t191 -170t231 -111t259.5 -40q166 0 308 51t268 158q4 4 15.5 12.5t16.5 8.5q8 0 11.5 -5t3.5 -12q0 -8 -3.5 -12.5t-8.5 -9.5q-51 -55 -125 -97.5t-157.5 -71.5t-169.5 -44t-159 -15q-127 0 -245 34t-222 95.5t-190 147.5
t-147.5 190t-95.5 222t-34 245q0 129 33.5 248t94.5 223t146 189t189 146t223 94.5t248 33.5q170 0 325 -57.5t281 -171.5q14 -13 21 -29z" />
    <glyph glyph-name="afii10054" unicode="&#x405;" horiz-adv-x="1628" 
d="M1550 1294q0 -8 -6 -14t-14 -6q-8 3 -12 7.5l-9 10.5q-60 78 -143.5 134t-179 91t-196.5 51.5t-196 16.5q-72 0 -149.5 -11t-151.5 -34.5t-140.5 -60.5t-116.5 -89.5t-79.5 -121.5t-29.5 -156q0 -111 47.5 -185.5t123 -122.5t168.5 -74.5t185 -41.5q55 -9 118.5 -16
t130 -16t133.5 -22t128 -33.5t114 -51t91.5 -74.5t61 -103.5t22.5 -138.5q0 -84 -26 -151.5t-71 -121t-105.5 -92.5t-129.5 -64t-143 -37.5t-146 -12.5q-150 0 -283.5 39t-254.5 129q-3 2 -15.5 11t-26 20.5t-24 23.5t-10.5 21q0 8 5.5 12t12.5 4q9 0 15 -4t12 -10
q56 -55 123 -94.5t139.5 -65.5t150 -38.5t154.5 -12.5q66 0 135.5 11.5t134.5 34.5t122.5 59t100.5 85t68 112t25 140q0 96 -36.5 161.5t-97 109t-138.5 68t-161 39t-164.5 22.5t-148.5 18q-68 10 -137.5 25t-133.5 39t-120 58t-97 82t-65 111.5t-24 145.5q0 97 31.5 173
t85.5 133t126 96.5t153 63.5t166 35t165 11q87 0 173.5 -13t169 -40.5t158.5 -70t142 -100.5q26 -23 51 -47.5t39 -56.5z" />
    <glyph glyph-name="afii10055" unicode="&#x406;" horiz-adv-x="470" 
d="M230 1595q0 9 5.5 15t14.5 6q11 0 13.5 -6t2.5 -15v-1816q0 -9 -5.5 -15t-14.5 -6q-11 0 -13.5 6t-2.5 15v1816z" />
    <glyph glyph-name="afii10056" unicode="&#x407;" horiz-adv-x="343" 
d="M339 1853q20 0 34.5 -14.5t14.5 -34.5t-14.5 -34.5t-34.5 -14.5q-19 0 -35 15t-16 34t16 34t35 15zM17 1853q20 0 34.5 -14.5t14.5 -34.5t-14.5 -34.5t-34.5 -14.5q-18 0 -34.5 15.5t-16.5 33.5t16.5 33.5t34.5 15.5zM157 1595q0 9 5.5 15t14.5 6q11 0 13.5 -6t2.5 -15
v-1816q0 -9 -5.5 -15t-14.5 -6q-11 0 -13.5 6t-2.5 15v1816z" />
    <glyph glyph-name="afii10057" unicode="&#x408;" horiz-adv-x="1595" 
d="M1432 639q0 -64 -3.5 -137t-14 -146.5t-30.5 -142.5t-54 -125q-51 -84 -119.5 -147t-149.5 -104.5t-172.5 -62t-187.5 -20.5q-118 0 -230 37t-206 104.5t-162 162.5t-98 212q-1 2 -2.5 8.5t-1.5 8.5q0 16 16 16q10 0 15.5 -8t7.5 -16q31 -113 93.5 -203.5t150.5 -153.5
t198.5 -97t239.5 -34q155 0 297 67q88 42 150.5 95t104.5 116t66 133.5t36 148.5t15.5 161t3.5 170v915q0 9 6 15t15 6q11 0 13.5 -6t2.5 -15v-958z" />
    </font>
</defs>
</svg>
