<?xml version="1.0" encoding="utf-8"?>
<!-- Generator: Adobe Illustrator 16.0.0, SVG Export Plug-In . SVG Version: 6.00 Build 0)  -->
<!DOCTYPE svg PUBLIC "-//W3C//DTD SVG 1.1//EN" "http://www.w3.org/Graphics/SVG/1.1/DTD/svg11.dtd">
<svg version="1.1" xmlns="http://www.w3.org/2000/svg" xmlns:xlink="http://www.w3.org/1999/xlink" x="0px" y="0px"
	 width="1568.922px" height="313.484px" viewBox="0 0 1568.922 313.484" enable-background="new 0 0 1568.922 313.484"
	 xml:space="preserve">
<g id="back_placeholder">
	<rect x="-2124.986" y="-357.979" fill="#0B0B0B" width="1920" height="1080"/>
	<rect x="-184.986" y="-357.568" display="none" fill="#00A964" width="1920" height="1080"/>
</g>
<g id="Layer_1" display="none">
</g>
<g id="Layer_2">
	
		<rect x="-1540.592" y="5.257" transform="matrix(-0.8869 -0.462 0.462 -0.8869 -2918.7932 -632.3246)" fill="#000000" width="7.574" height="71.789"/>
	
		<rect x="-1673.99" y="55.522" transform="matrix(0.4559 -0.89 0.89 0.4559 -989.1556 -1437.2703)" fill="#000000" width="7.826" height="69.686"/>
	
		<rect x="-1716.192" y="162.781" transform="matrix(0.953 -0.3029 0.3029 0.953 -129.3359 -500.3883)" fill="#000000" width="77.16" height="7.848"/>
	
		<rect x="-1587.805" y="224.932" transform="matrix(-0.303 -0.953 0.953 -0.303 -2238.1899 -1179.0685)" fill="#000000" stroke="#E6E7E8" stroke-miterlimit="10" width="75.029" height="8.119"/>
	<circle fill="#FEEA02" stroke="#000000" stroke-width="6" stroke-miterlimit="10" cx="-1492.071" cy="-37.938" r="55.566"/>
	<circle fill="#273993" stroke="#000000" stroke-width="6" stroke-miterlimit="10" cx="-1737.257" cy="54.355" r="42.636"/>
	<circle fill="#C82035" stroke="#000000" stroke-width="6" stroke-miterlimit="10" cx="-1765.488" cy="198.802" r="56.45"/>
	<circle fill="#6ABD45" stroke="#000000" stroke-width="6" stroke-miterlimit="10" cx="-1520.289" cy="314.229" r="56.449"/>
	<circle fill="none" stroke="#000000" stroke-width="7" stroke-miterlimit="10" cx="-1581.493" cy="131.781" r="61.631"/>
	<g>
		<path fill="#000000" d="M379.896,229.265c-23.292,0-40.704-5.221-52.237-15.665c-11.534-10.442-17.601-23.854-18.201-40.234
			h21.075c1.127,12.323,6.255,21.433,15.384,27.33c9.129,5.899,20.154,8.847,33.078,8.847c12.245,0,22.106-2.517,29.584-7.551
			c7.475-5.033,11.213-11.87,11.213-20.512c0-9.09-3.87-15.702-11.607-19.835c-7.739-4.132-21.058-8.208-39.953-12.229
			c-18.896-4.019-32.457-9.597-40.685-16.736c-8.228-7.137-12.341-16.641-12.341-28.513c0-13.373,5.354-24.344,16.06-32.909
			c10.707-8.565,24.925-12.848,42.657-12.848c18.633,0,33.659,4.322,45.081,12.961c11.419,8.641,17.468,20.85,18.145,36.627h-21.301
			c-2.18-19.985-15.854-29.978-41.022-29.978c-12.172,0-21.602,2.292-28.288,6.875c-6.688,4.584-10.03,10.669-10.03,18.257
			c0,6.914,2.686,12.098,8.058,15.553c5.371,3.457,15.401,6.801,30.091,10.031c14.688,3.231,26.354,6.424,34.994,9.58
			c8.64,3.155,16.04,8.058,22.202,14.707c6.16,6.649,9.241,15.572,9.241,26.767c0,14.2-5.654,25.997-16.961,35.388
			C412.821,224.57,398.077,229.265,379.896,229.265z"/>
		<path fill="#000000" d="M475.466,255.299c10.518,0,19.12-9.618,25.809-28.852l-45.193-119.576h22.991l31.669,93.542l31.669-93.542
			h22.99l-45.192,119.576c-4.358,11.42-8.059,20.229-11.102,26.429c-3.043,6.198-7.026,11.419-11.946,15.665
			c-4.922,4.244-10.951,6.367-18.088,6.367c-5.336,0-9.918-0.526-13.75-1.577v-19.61
			C468.628,254.772,472.009,255.299,475.466,255.299z"/>
		<path fill="#000000" d="M605.409,122.086c10.594-11.946,22.502-17.919,35.727-17.919c26.972,0,40.459,14.69,40.459,44.065v78.215
			h-21.3v-77.313c0-9.767-1.747-16.792-5.241-21.075c-3.493-4.283-9.224-6.424-17.187-6.424c-10.819,0-21.639,6.387-32.458,19.159
			v85.653h-21.301V106.872h21.301V122.086z"/>
		<path fill="#000000" d="M784.491,229.265c-23.368,0-42.021-7.681-55.956-23.047c-13.938-15.364-20.906-36.158-20.906-62.38
			c0-26.22,6.968-47.014,20.906-62.38c13.936-15.364,32.588-23.047,55.956-23.047c17.956,0,33.246,4.846,45.869,14.539
			c12.622,9.692,19.723,22.466,21.3,38.318h-22.54c-0.901-10.442-5.429-18.746-13.58-24.907c-8.153-6.16-18.427-9.242-30.824-9.242
			c-16.755,0-30.017,5.767-39.783,17.3c-9.768,11.534-14.651,28.006-14.651,49.419c0,21.339,4.847,37.793,14.539,49.363
			c9.692,11.571,22.839,17.356,39.445,17.356c12.922,0,23.366-3.156,31.331-9.467c7.963-6.312,12.471-15.327,13.523-27.049h22.54
			c-1.577,17.582-8.491,31.182-20.736,40.798C818.676,224.457,803.199,229.265,784.491,229.265z"/>
		<path fill="#000000" d="M954.895,214.163c-10.819,10.069-24.757,15.102-41.813,15.102c-11.872,0-21.638-3.212-29.302-9.636
			s-11.495-14.707-11.495-24.851c0-27.95,24.079-41.925,72.241-41.925h10.368c0-8.564-0.451-14.781-1.353-18.652
			c-0.901-3.869-3.42-7.081-7.551-9.636c-4.133-2.554-10.707-3.832-19.723-3.832c-18.934,0-28.702,6.762-29.303,20.286h-21.188
			c1.578-24.569,18.782-36.853,51.617-36.853c15.327,0,27.273,3.043,35.839,9.128c8.565,6.086,12.848,18.032,12.848,35.839v77.313
			h-21.188V214.163z M954.895,195.004v-26.485h-14.538c-30.807,0-46.208,8.379-46.208,25.133c0,6.086,2.254,10.763,6.763,14.031
			c4.508,3.269,10.594,4.902,18.257,4.902c6.988,0,13.75-1.578,20.286-4.733C945.991,204.696,951.137,200.413,954.895,195.004z"/>
		<path fill="#000000" d="M1169.139,226.447h-21.301v-77.313c0-9.918-1.428-16.979-4.282-21.188
			c-2.856-4.207-7.627-6.311-14.313-6.311c-10.294,0-20.398,6.387-30.316,19.159v85.653h-21.188v-77.313
			c0-9.918-1.428-16.979-4.282-21.188c-2.856-4.207-7.664-6.311-14.426-6.311c-10.295,0-20.362,6.387-30.204,19.159v85.653h-21.301
			V106.872h21.301v15.215c10.067-11.946,21.225-17.919,33.473-17.919c17.505,0,28.662,7.213,33.472,21.639
			c7.963-9.392,14.725-15.345,20.286-17.863c5.56-2.517,11.006-3.775,16.342-3.775c24.493,0,36.74,14.69,36.74,44.065V226.447z"/>
		<path fill="#000000" d="M1221.094,121.185c9.467-11.344,20.85-17.018,34.148-17.018c15.627,0,27.725,5.542,36.29,16.623
			c8.564,11.083,12.848,26.054,12.848,44.911c0,19.61-4.79,35.106-14.369,46.489c-9.58,11.383-21.658,17.074-36.233,17.074
			c-12.924,0-23.819-4.019-32.684-12.059v55.224h-21.301V106.872h21.301V121.185z M1221.094,198.047
			c9.09,9.692,19.534,14.538,31.331,14.538c9.166,0,16.454-3.925,21.864-11.777c5.409-7.851,8.114-19.554,8.114-35.106
			c0-14.725-2.556-25.901-7.664-33.528c-5.11-7.625-12.247-11.439-21.413-11.439c-11.797,0-22.54,6.838-32.232,20.512V198.047z"/>
		<path fill="#000000" d="M1403.895,211.232c-10.594,12.022-22.503,18.032-35.727,18.032c-26.974,0-40.459-14.725-40.459-44.179
			v-78.214h21.3v77.313c0,9.768,1.728,16.792,5.185,21.075c3.455,4.282,9.166,6.424,17.131,6.424c11.87,0,22.727-6.386,32.57-19.159
			v-85.653h21.188v119.576h-21.188V211.232z"/>
		<path fill="#000000" d="M1499.239,229.265c-32.684,0-49.776-12.848-51.278-38.544h21.3c0.149,14.577,10.067,21.864,29.753,21.864
			c8.791,0,15.497-1.82,20.117-5.466c4.621-3.644,6.932-8.208,6.932-13.693c0-5.409-2.254-9.222-6.763-11.439
			c-4.508-2.215-13.806-5.089-27.894-8.621c-14.087-3.531-24.382-7.476-30.88-11.834c-6.499-4.356-9.748-12.02-9.748-22.991
			c0-9.917,4.037-18.125,12.115-24.625c8.075-6.498,18.877-9.749,32.401-9.749c31.331,0,47.334,11.157,48.011,33.472h-21.188
			c-0.751-11.27-9.204-16.905-25.357-16.905c-7.139,0-13.056,1.353-17.75,4.057c-4.696,2.705-7.044,6.649-7.044,11.833
			c0,4.66,1.803,8.021,5.409,10.087s12.641,4.846,27.104,8.34c14.463,3.493,25.207,7.57,32.232,12.228
			c7.025,4.659,10.538,12.698,10.538,24.118c0,10.895-4.339,19.931-13.017,27.104
			C1525.555,225.678,1513.891,229.265,1499.239,229.265z"/>
	</g>
	<text transform="matrix(1 0 0 1 -1484.1401 198.8018)" fill="#000000" font-family="'MicrosoftSansSerif'" font-size="181">SynCampus</text>
	<g>
		<path fill="#000000" d="M-1544.529,142.767l-12.498,12.424l-7.719-7.764c0,0-6.162,9.201-19.406,8.248
			c-13.245-0.951-16.984-13.361-16.984-13.361l21.367-0.094l-26.323-26.479l-26.522,26.364l13.858,0.031
			c0.68,1.253,3.403,19.52,23.11,27.602c4.965,2.036,10.455,2.968,15.434,2.746C-1563.653,171.743-1548.38,159.813-1544.529,142.767
			z"/>
		<path fill="#000000" d="M-1618.454,121.268l12.498-12.425l7.718,7.766c0,0,6.162-9.201,19.407-8.25
			c13.246,0.953,16.984,13.362,16.984,13.362l-21.367,0.095l26.323,26.479l26.521-26.365l-13.856-0.03
			c-0.68-1.254-3.404-19.52-23.111-27.602c-4.965-2.037-10.454-2.967-15.434-2.746
			C-1599.331,92.292-1614.604,104.222-1618.454,121.268z"/>
	</g>
	<path fill="none" stroke="#000000" stroke-width="16" stroke-miterlimit="10" d="M275.994,116.156
		c21.826,68.649-16.137,141.995-84.792,163.822c-68.652,21.821-141.998-16.142-163.82-84.794
		C5.557,126.529,43.521,53.183,112.173,31.362C180.827,9.536,254.174,47.5,275.994,116.156z"/>
	<path fill="#000000" d="M236.1,181.054l-28.425,28.26l-17.555-17.659c0,0-14.015,20.927-44.136,18.759
		c-30.123-2.165-38.629-30.389-38.629-30.389l48.597-0.213l-59.866-60.223l-60.324,59.96l31.52,0.072
		c1.549,2.849,7.74,44.391,52.561,62.773c11.292,4.632,23.776,6.751,35.102,6.246C192.607,246.957,227.342,219.824,236.1,181.054z"
		/>
	<path fill="#000000" d="M67.97,132.16l28.425-28.256l17.552,17.658c0,0,14.016-20.924,44.138-18.759
		c30.126,2.165,38.628,30.389,38.628,30.389l-48.594,0.215l59.867,60.224l60.319-59.965l-31.517-0.07
		c-1.545-2.848-7.74-44.394-52.561-62.775c-11.294-4.628-23.776-6.748-35.101-6.244C111.464,66.258,76.728,93.392,67.97,132.16z"/>
</g>
<g id="Layer_3" display="none">
	
		<text transform="matrix(1 0 0 1 -1698.1982 217.5439)" display="inline" fill="#1E1E1E" font-family="'Raavi'" font-size="228.9996">SynCampus</text>
</g>
</svg>
